<?xml version="1.0" encoding="UTF-8" standalone="no"?>
<svg
   xmlns:dc="http://purl.org/dc/elements/1.1/"
   xmlns:cc="http://creativecommons.org/ns#"
   xmlns:rdf="http://www.w3.org/1999/02/22-rdf-syntax-ns#"
   xmlns:svg="http://www.w3.org/2000/svg"
   xmlns="http://www.w3.org/2000/svg"
   xmlns:sodipodi="http://sodipodi.sourceforge.net/DTD/sodipodi-0.dtd"
   xmlns:inkscape="http://www.inkscape.org/namespaces/inkscape"
   width="64"
   height="64"
   version="1.1"
   viewBox="0 0 16.933 16.933"
   id="svg23"
   sodipodi:docname="application-pgp-signature.svg"
   inkscape:version="1.0.2 (e86c870879, 2021-01-15)">
  <metadata
     id="metadata27">
    <rdf:RDF>
      <cc:Work
         rdf:about="">
        <dc:format>image/svg+xml</dc:format>
        <dc:type
           rdf:resource="http://purl.org/dc/dcmitype/StillImage" />
      </cc:Work>
    </rdf:RDF>
  </metadata>
  <sodipodi:namedview
     pagecolor="#ffffff"
     bordercolor="#666666"
     borderopacity="1"
     objecttolerance="10"
     gridtolerance="10"
     guidetolerance="10"
     inkscape:pageopacity="0"
     inkscape:pageshadow="2"
     inkscape:window-width="2160"
     inkscape:window-height="1246"
     id="namedview25"
     showgrid="false"
     inkscape:zoom="11.484375"
     inkscape:cx="32"
     inkscape:cy="32"
     inkscape:window-x="0"
     inkscape:window-y="42"
     inkscape:window-maximized="1"
     inkscape:current-layer="svg23" />
  <defs
     id="defs5">
    <filter
       id="a"
       x="-.039001"
       y="-.033428"
       width="1.078"
       height="1.0669"
       color-interpolation-filters="sRGB">
      <feGaussianBlur
         stdDeviation="0.20637525"
         id="feGaussianBlur2" />
    </filter>
  </defs>
  <path
     d="m3.4395 1.3543c-0.73289 0-1.3229 0.59001-1.3229 1.3229v12.171c0 0.73289 0.59001 1.3229 1.3229 1.3229h10.054c0.73289 0 1.3229-0.59001 1.3229-1.3229v-10.319l-3.175-3.175z"
     fill-rule="evenodd"
     filter="url(#a)"
     opacity=".15"
     stroke-width=".26458"
     style="paint-order:stroke fill markers"
     id="path7" />
  <g
     fill-rule="evenodd"
     id="g13">
    <path
       transform="scale(.26458)"
       d="m13 4c-2.77 0-5 2.23-5 5v46c0 2.77 2.23 5 5 5h38c2.77 0 5-2.23 5-5v-39l-12-12z"
       fill="#f4f4f4"
       style="paint-order:stroke fill markers"
       id="path9" />
    <path
       d="m14.816 4.2332-3.1749-3.1749v1.852c0 0.73288 0.59001 1.3229 1.3229 1.3229z"
       fill="#E6E6E6"
       style="paint-order:stroke fill markers"
       id="path11" />
  </g>
  <path
     d="m11.641 2.9104v0.15451c0 0.79397 0.59 1.433 1.3229 1.433h1.852l1.42e-4 -0.26463-1.8522 5e-5c-0.73289 1.98e-5 -1.3229-0.59001-1.3229-1.3229z"
     fill-rule="evenodd"
     opacity=".1"
     stroke-width="1.0408"
     style="paint-order:stroke fill markers"
     id="path21" />
  <path
     d="M 5.5748078,9.3132029 5.5723978,7.2490968 7.8876945,6.9042985 V 9.3132029 Z M 8.2740338,6.8427047 11.359808,6.349875 V 9.31315 H 8.2740338 Z M 11.360602,9.7363956 11.359808,12.699671 8.2740338,12.223642 V 9.7363427 Z M 7.8882789,12.170091 5.5745697,11.822065 V 9.7355754 h 2.312889 v 2.4336956 z"
     fill="#5aabff"
     stroke-width="0.800031"
     id="path23" />
</svg>
