<?xml version="1.0" encoding="UTF-8"?>
<svg width="64" height="64" version="1.1" viewBox="0 0 16.933 16.933" xmlns="http://www.w3.org/2000/svg" xmlns:cc="http://creativecommons.org/ns#" xmlns:dc="http://purl.org/dc/elements/1.1/" xmlns:rdf="http://www.w3.org/1999/02/22-rdf-syntax-ns#">
 <metadata>
  <rdf:RDF>
   <cc:Work rdf:about="">
    <dc:format>image/svg+xml</dc:format>
    <dc:type rdf:resource="http://purl.org/dc/dcmitype/StillImage"/>
    <dc:title/>
   </cc:Work>
  </rdf:RDF>
 </metadata>
 <defs>
  <filter id="a" x="-.039001" y="-.033428" width="1.078" height="1.0669" color-interpolation-filters="sRGB">
   <feGaussianBlur stdDeviation="0.20637525"/>
  </filter>
 </defs>
 <path d="m3.4395 1.3543c-0.73289 0-1.3229 0.59001-1.3229 1.3229v12.171c0 0.73289 0.59001 1.3229 1.3229 1.3229h10.054c0.73289 0 1.3229-0.59001 1.3229-1.3229v-10.319l-3.175-3.175z" filter="url(#a)" opacity=".15" stroke-width=".26458" style="paint-order:stroke fill markers"/>
 <g fill-rule="evenodd">
  <path transform="scale(.26458)" d="m13 4c-2.77 0-5 2.23-5 5v46c0 2.77 2.23 5 5 5h38c2.77 0 5-2.23 5-5v-39l-12-12z" fill="#f4f4f4" style="paint-order:stroke fill markers"/>
  <path d="m14.816 4.2332-3.1749-3.1749v1.852c0 0.73288 0.59001 1.3229 1.3229 1.3229z" fill="#E6E6E6" style="paint-order:stroke fill markers"/>
 </g>
 <path d="m11.697 6.3527a0.049476 0.049476 0 0 0-0.03916 0.00265c-0.03175 0.01561-0.06006 0.066145-0.08731 0.14869-0.06509 0.19446-0.48074 1.4041-2.6029 1.7303a1.0551 1.0554 0 0 1 0.57413 0.93872 1.0551 1.0554 0 0 1-1.0554 1.0551 1.0551 1.0554 0 0 1-0.96015-0.62017 0.83739 0.83765 0 0 1-0.70378 0.38549 0.83739 0.83765 0 0 1-0.8313-0.74241 0.85723 0.85723 0 0 1-0.10451 0.1643c-0.01614-0.025399-0.02619-0.053974-0.04392-0.07858a1.5594 1.5594 0 0 0-0.36776-0.3675c-0.15425-0.10715-0.31485-0.1778-0.47307-0.20108-0.18256-0.026458-0.35903 0.012964-0.49899 0.11377-0.14023 0.10107-0.22225 0.25585-0.25426 0.43735-0.027781 0.15716-0.018256 0.32755 0.034924 0.50746 0.046301 0.15636 0.12065 0.31405 0.22807 0.46301a1.5933 1.5933 0 0 0 0.40242 0.39369c0.16668 0.10954 0.34369 0.17356 0.51672 0.18335 0.05371 0.0032 0.10848-0.01005 0.15769-0.01746 1.1221 0.88792 3.3496 1.7168 4.8259 0.76939 0.03201 0.01085 0.06403 0.02408 0.09631 0.03519 7.93e-4 0.01508-4e-3 0.03043 0 0.04392l0.07011-0.02646c0.01243 4e-3 0.02196 0.01402 0.03466 0.01773 0.0026 7.94e-4 0.0061-7.93e-4 0.0087 0l0.02646 0.02566 0.66568 0.23627c-0.02752 0.23071 0.08705 0.49291 0.3765 0.6035a10.645 10.645 0 0 1 1.0072 0.45428c-0.2487-0.84295-0.33945-1.5195-0.98952-1.4599-0.12091 0.01111-0.21219 0.06085-0.28019 0.13123l-0.5871-0.37597h-0.02646l-0.0085-9e-3c0.79003-0.77627 1.252-2.2352 0.9718-4.7738-0.01217-0.095248-0.04498-0.15557-0.08308-0.1688zm-5.6265 0.77204-0.03492 1.574s0.01349 0.048418 0.02461 0.11377a0.83739 0.83765 0 0 1 0.76224-0.4937 0.83739 0.83765 0 0 1 0.71304 0.40004 1.0551 1.0554 0 0 1 0.34792-0.40983c-1.2679-0.066938-1.8129-1.1843-1.8129-1.1843zm0.88158 1.5626a0.58631 0.57519 0 0 0-0.17462 0.026458 0.29024 0.28469 0 0 1 0.16906 0.25823 0.29024 0.28469 0 0 1-0.29051 0.28469 0.29024 0.28469 0 0 1-0.26352-0.16536 0.58631 0.57519 0 0 0-0.02672 0.17118 0.58631 0.57519 0 0 0 0.5863 0.57519 0.58631 0.57519 0 0 0 0.58604-0.57519 0.58631 0.57519 0 0 0-0.58604-0.57519zm1.7642 0.11165a0.58631 0.57519 0 0 0-0.17462 0.026458 0.29024 0.28469 0 0 1 0.16906 0.25823 0.29024 0.28469 0 0 1-0.29051 0.28469 0.29024 0.28469 0 0 1-0.26299-0.16536 0.58631 0.57519 0 0 0-0.02672 0.17118 0.58631 0.57519 0 0 0 0.58578 0.57519 0.58631 0.57519 0 0 0 0.58657-0.57519 0.58631 0.57519 0 0 0-0.58657-0.57519zm-3.8165 0.34607a0.30479 0.34051 0 0 1 0.30479 0.34078 0.30479 0.34051 0 0 1-0.30479 0.34051 0.30479 0.34051 0 0 1-0.30506-0.34051 0.30479 0.34051 0 0 1 0.30506-0.34078z" color="#000000" fill="#67614f" overflow="visible" solid-color="#000000" stroke-width=".26458" style="isolation:auto;mix-blend-mode:normal"/>
</svg>
