<?xml version="1.0" encoding="UTF-8" standalone="no"?>
<svg
   xmlns:dc="http://purl.org/dc/elements/1.1/"
   xmlns:cc="http://creativecommons.org/ns#"
   xmlns:rdf="http://www.w3.org/1999/02/22-rdf-syntax-ns#"
   xmlns:svg="http://www.w3.org/2000/svg"
   xmlns="http://www.w3.org/2000/svg"
   xmlns:sodipodi="http://sodipodi.sourceforge.net/DTD/sodipodi-0.dtd"
   xmlns:inkscape="http://www.inkscape.org/namespaces/inkscape"
   width="64"
   height="64"
   version="1.1"
   viewBox="0 0 16.933 16.933"
   id="svg19"
   sodipodi:docname="image-x-generic.svg"
   inkscape:version="1.0.2 (e86c870879, 2021-01-15)">
  <metadata
     id="metadata23">
    <rdf:RDF>
      <cc:Work
         rdf:about="">
        <dc:format>image/svg+xml</dc:format>
        <dc:type
           rdf:resource="http://purl.org/dc/dcmitype/StillImage" />
      </cc:Work>
    </rdf:RDF>
  </metadata>
  <sodipodi:namedview
     pagecolor="#ffffff"
     bordercolor="#666666"
     borderopacity="1"
     objecttolerance="10"
     gridtolerance="10"
     guidetolerance="10"
     inkscape:pageopacity="0"
     inkscape:pageshadow="2"
     inkscape:window-width="2160"
     inkscape:window-height="1246"
     id="namedview21"
     showgrid="false"
     inkscape:zoom="11.484375"
     inkscape:cx="32"
     inkscape:cy="32"
     inkscape:window-x="0"
     inkscape:window-y="42"
     inkscape:window-maximized="1"
     inkscape:current-layer="svg19"
     inkscape:document-rotation="0" />
  <defs
     id="defs5">
    <filter
       id="a"
       x="-.039001"
       y="-.033428"
       width="1.078"
       height="1.0669"
       color-interpolation-filters="sRGB">
      <feGaussianBlur
         stdDeviation="0.20637525"
         id="feGaussianBlur2" />
    </filter>
  </defs>
  <path
     d="m3.4395 1.3543c-0.73289 0-1.3229 0.59001-1.3229 1.3229v12.171c0 0.73289 0.59001 1.3229 1.3229 1.3229h10.054c0.73289 0 1.3229-0.59001 1.3229-1.3229v-10.319l-3.175-3.175z"
     filter="url(#a)"
     opacity=".15"
     stroke-width=".26458"
     style="paint-order:stroke fill markers"
     id="path7" />
  <g
     fill-rule="evenodd"
     id="g13">
    <path
       transform="scale(.26458)"
       d="m13 4c-2.77 0-5 2.23-5 5v46c0 2.77 2.23 5 5 5h38c2.77 0 5-2.23 5-5v-39l-12-12z"
       fill="#f4f4f4"
       style="paint-order:stroke fill markers"
       id="path9" />
    <path
       d="m14.816 4.2332-3.1749-3.1749v1.852c0 0.73288 0.59001 1.3229 1.3229 1.3229z"
       fill="#E6E6E6"
       style="paint-order:stroke fill markers"
       id="path11" />
  </g>
  <path
     d="m11.641 2.9104v0.15451c0 0.79397 0.59 1.433 1.3229 1.433h1.852l1.42e-4 -0.26463-1.8522 5e-5c-0.73289 1.98e-5 -1.3229-0.59001-1.3229-1.3229z"
     opacity=".1"
     stroke-width="1.0408"
     style="paint-order:stroke fill markers"
     id="path17" />
  <path
     d="m 11.69681,6.3527122 a 0.04947611,0.04947611 0 0 0 -0.03916,0.00265 c -0.03175,0.01561 -0.06006,0.066145 -0.08731,0.1486929 -0.06509,0.194465 -0.480738,1.4041161 -2.6029194,1.730341 a 1.0551375,1.0554021 0 0 1 0.574134,0.9387229 1.0551375,1.0554021 0 0 1 -1.055402,1.055138 1.0551375,1.0554021 0 0 1 -0.960154,-0.6201715 0.83738975,0.83765433 0 0 1 -0.703778,0.3854904 0.83738975,0.83765433 0 0 1 -0.831304,-0.7424063 0.85723311,0.85723311 0 0 1 -0.104509,0.164303 c -0.01614,-0.025399 -0.02619,-0.053974 -0.04392,-0.07858 A 1.5594234,1.5594234 0 0 0 5.4747256,8.9693896 C 5.3204766,8.8622354 5.1598776,8.7915931 5.0016596,8.7683102 4.8191006,8.7418522 4.6426276,8.7812742 4.5026656,8.8820788 4.3624391,8.9831476 4.2804199,9.1379258 4.248406,9.3194264 4.220625,9.4765858 4.23015,9.6469741 4.28333,9.8268879 4.329631,9.9832529 4.4039776,10.140942 4.5113966,10.289899 a 1.5932894,1.5932894 0 0 0 0.402423,0.393693 c 0.166684,0.109535 0.343687,0.173563 0.516721,0.183352 0.05371,0.0032 0.108477,-0.01005 0.157689,-0.01746 1.122075,0.887924 3.349559,1.716848 4.8259054,0.769393 0.03201,0.01085 0.06403,0.02408 0.09631,0.03519 7.93e-4,0.01508 -0.004,0.03043 0,0.04392 l 0.07011,-0.02646 c 0.01243,0.004 0.02196,0.01402 0.03466,0.01773 0.0026,7.94e-4 0.0061,-7.93e-4 0.0087,0 l 0.02646,0.02566 0.665678,0.236269 c -0.02752,0.230712 0.08705,0.492909 0.376495,0.603502 a 10.644772,10.644772 0 0 1 1.007249,0.454281 c -0.248702,-0.842946 -0.339453,-1.519472 -0.989521,-1.459942 -0.120912,0.01111 -0.212192,0.06085 -0.280188,0.131231 l -0.587099,-0.375966 h -0.02646 l -0.0085,-0.009 c 0.790031,-0.776268 1.251984,-2.2351518 0.971796,-4.7737789 -0.01217,-0.095248 -0.04498,-0.155572 -0.08308,-0.1688009 z m -5.6265194,0.772039 -0.03492,1.5739753 c 0,0 0.01349,0.048418 0.02461,0.1137685 a 0.83738975,0.83765433 0 0 1 0.762241,-0.4937027 0.83738975,0.83765433 0 0 1 0.713039,0.4000421 1.0551375,1.0554021 0 0 1 0.34792,-0.4098315 c -1.267859,-0.066938 -1.81289,-1.1842517 -1.81289,-1.1842517 z m 0.881575,1.5625984 a 0.58630511,0.57519283 0 0 0 -0.174622,0.026458 0.2902422,0.28468606 0 0 1 0.169065,0.2582282 0.2902422,0.28468606 0 0 1 -0.290506,0.2846861 0.2902422,0.28468606 0 0 1 -0.26352,-0.1653613 0.58630511,0.57519283 0 0 0 -0.02672,0.171182 0.58630511,0.57519283 0 0 0 0.586305,0.5751933 0.58630511,0.57519283 0 0 0 0.58604,-0.5751933 0.58630511,0.57519283 0 0 0 -0.58604,-0.575193 z m 1.764206,0.111652 a 0.58630511,0.57519283 0 0 0 -0.174621,0.026458 0.2902422,0.28468606 0 0 1 0.169065,0.2582282 0.2902422,0.28468606 0 0 1 -0.290506,0.2846861 0.2902422,0.28468606 0 0 1 -0.262991,-0.1653614 0.58630511,0.57519283 0 0 0 -0.02672,0.1711821 0.58630511,0.57519283 0 0 0 0.585776,0.5751933 0.58630511,0.57519283 0 0 0 0.58657,-0.5751933 0.58630511,0.57519283 0 0 0 -0.586571,-0.575193 z m -3.816539,0.3460681 a 0.30479399,0.34051204 0 0 1 0.304794,0.3407767 0.30479399,0.34051204 0 0 1 -0.304794,0.3405125 0.30479399,0.34051204 0 0 1 -0.305058,-0.3405125 0.30479399,0.34051204 0 0 1 0.305058,-0.3407767 z"
     color="#000000"
     fill="#67614f"
     overflow="visible"
     solid-color="#000000"
     style="isolation:auto;mix-blend-mode:normal;stroke-width:0.264578"
     id="path22" />
</svg>
