<?xml version="1.0" encoding="UTF-8" standalone="no"?>
<svg
   xmlns:dc="http://purl.org/dc/elements/1.1/"
   xmlns:cc="http://creativecommons.org/ns#"
   xmlns:rdf="http://www.w3.org/1999/02/22-rdf-syntax-ns#"
   xmlns:svg="http://www.w3.org/2000/svg"
   xmlns="http://www.w3.org/2000/svg"
   xmlns:sodipodi="http://sodipodi.sourceforge.net/DTD/sodipodi-0.dtd"
   xmlns:inkscape="http://www.inkscape.org/namespaces/inkscape"
   width="64"
   height="64"
   version="1.1"
   viewBox="0 0 16.933 16.933"
   id="svg19"
   sodipodi:docname="inode-symlink.svg"
   inkscape:version="1.0.2 (e86c870879, 2021-01-15)">
  <metadata
     id="metadata23">
    <rdf:RDF>
      <cc:Work
         rdf:about="">
        <dc:format>image/svg+xml</dc:format>
        <dc:type
           rdf:resource="http://purl.org/dc/dcmitype/StillImage" />
      </cc:Work>
    </rdf:RDF>
  </metadata>
  <sodipodi:namedview
     pagecolor="#ffffff"
     bordercolor="#666666"
     borderopacity="1"
     objecttolerance="10"
     gridtolerance="10"
     guidetolerance="10"
     inkscape:pageopacity="0"
     inkscape:pageshadow="2"
     inkscape:window-width="2160"
     inkscape:window-height="1246"
     id="namedview21"
     showgrid="false"
     inkscape:zoom="11.484375"
     inkscape:cx="32"
     inkscape:cy="32"
     inkscape:window-x="0"
     inkscape:window-y="42"
     inkscape:window-maximized="1"
     inkscape:current-layer="svg19"
     inkscape:document-rotation="0" />
  <defs
     id="defs5">
    <filter
       id="a"
       x="-.039001"
       y="-.033428"
       width="1.078"
       height="1.0669"
       color-interpolation-filters="sRGB">
      <feGaussianBlur
         stdDeviation="0.20637525"
         id="feGaussianBlur2" />
    </filter>
  </defs>
  <path
     d="m3.4395 1.3543c-0.73289 0-1.3229 0.59001-1.3229 1.3229v12.171c0 0.73289 0.59001 1.3229 1.3229 1.3229h10.054c0.73289 0 1.3229-0.59001 1.3229-1.3229v-10.319l-3.175-3.175z"
     filter="url(#a)"
     opacity=".15"
     stroke-width=".26458"
     style="paint-order:stroke fill markers"
     id="path7" />
  <g
     fill-rule="evenodd"
     id="g13">
    <path
       transform="scale(.26458)"
       d="m13 4c-2.77 0-5 2.23-5 5v46c0 2.77 2.23 5 5 5h38c2.77 0 5-2.23 5-5v-39l-12-12z"
       fill="#f4f4f4"
       style="paint-order:stroke fill markers"
       id="path9" />
    <path
       d="m14.816 4.2332-3.1749-3.1749v1.852c0 0.73288 0.59001 1.3229 1.3229 1.3229z"
       fill="#E6E6E6"
       style="paint-order:stroke fill markers"
       id="path11" />
  </g>
  <path
     d="m11.641 2.9104v0.15451c0 0.79397 0.59 1.433 1.3229 1.433h1.852l1.42e-4 -0.26463-1.8522 5e-5c-0.73289 1.98e-5 -1.3229-0.59001-1.3229-1.3229z"
     opacity=".1"
     stroke-width="1.0408"
     style="paint-order:stroke fill markers"
     id="path17" />
  <g
     id="g918"
     transform="translate(3.46e-7,-0.2797583)">
    <g
       id="g905">
      <g
         id="g6"
         transform="matrix(0.01679859,0,0,0.01679859,5.2646884,5.2646884)"
         style="fill:#7b7b7b;fill-opacity:1">
        <g
           id="g4"
           style="fill:#7b7b7b;fill-opacity:1">
          <path
             d="M 345.6,20.2 H 35.6 C 16,20.2 0,36.2 0,55.8 v 194 75.6 C 0,345 16,361 35.6,361 h 310 c 19.6,0 35.6,-16 35.6,-35.6 V 55.8 c 0,-19.6 -16,-35.6 -35.6,-35.6 z m 17.6,305.2 c 0,9.6 -8,17.6 -18,17.6 H 35.6 c -10,0 -18,-8 -18,-18 V 253 L 118,150.6 208.8,255 c 3.2,3.6 8,4 12,1.6 l 73.6,-52 68.8,49.6 z m 0.4,-92.8 -64,-46 c -3.2,-2.4 -7.2,-2.4 -10.4,0 l -72,51.2 -92,-105.6 c -1.6,-2 -4,-2.8 -6.4,-3.2 -2.4,0 -4.8,0.8 -6.8,2.8 l -94.4,96 v -172 c 0,-9.6 8,-17.6 18,-17.6 h 310 c 10,0 18,8 18,18 z"
             id="path2"
             style="fill:#7b7b7b;fill-opacity:1" />
        </g>
      </g>
      <g
         id="g12"
         transform="matrix(0.01679859,0,0,0.01679859,5.2646884,5.2646884)"
         style="fill:#7b7b7b;fill-opacity:1">
        <g
           id="g10"
           style="fill:#7b7b7b;fill-opacity:1">
          <path
             d="m 244.8,73.4 c -25.6,0 -46,20.8 -46,46 -0.4,25.2 20.4,46 46,46 25.6,0 46,-20.8 46,-46 0,-25.6 -20.8,-46 -46,-46 z m 0,74.4 c -15.6,0 -28.4,-12.8 -28.4,-28.4 0,-16 12.8,-28.4 28.4,-28.4 15.6,0 28.4,12.8 28.4,28.4 0,15.6 -12.8,28.4 -28.4,28.4 z"
             id="path8"
             style="fill:#7b7b7b;fill-opacity:1" />
        </g>
      </g>
    </g>
    <g
       fill="#7b7b7b"
       stroke-width="0.05444"
       aria-label="JPG"
       id="g101"
       transform="translate(-4e-6,-0.83287835)">
      <path
         d="m 6.9574,14.838 c 0.25696,0 0.40285,-0.16332 0.40285,-0.45729 v -1.0757 H 7.17951 v 1.0953 c 0,0.17856 -0.080571,0.27873 -0.22647,0.27873 -0.065328,0 -0.15243,-0.0196 -0.2134,-0.05009 l -0.052262,0.13501 c 0.087103,0.05226 0.17856,0.07404 0.27002,0.07404 z"
         id="path95" />
      <path
         d="M 7.7348,14.816 H 7.91554 V 14.28902 H 8.1725 c 0.33753,0 0.56399,-0.20034 0.56399,-0.50302 0,-0.28962 -0.2134,-0.48125 -0.53133,-0.48125 H 7.7348 Z m 0.18074,-0.68376 v -0.6707 h 0.26784 c 0.21994,0 0.36801,0.14372 0.36801,0.35712 0,0.20469 -0.12194,0.31357 -0.34624,0.31357 z"
         id="path97" />
      <path
         d="m 9.6947,14.836 c 0.20905,0 0.3985,-0.06097 0.55093,-0.18074 V 14.01505 H 9.63591 v 0.15679 h 0.42898 v 0.42245 c -0.1067,0.05444 -0.22429,0.08275 -0.34406,0.08275 -0.36366,0 -0.59884,-0.25042 -0.59884,-0.63803 0,-0.37672 0.21558,-0.59448 0.58359,-0.59448 0.13719,0 0.29615,0.03049 0.42898,0.08057 l 0.05226,-0.13936 c -0.13283,-0.06533 -0.2918,-0.10017 -0.45729,-0.10017 -0.47689,0 -0.79264,0.3114 -0.79264,0.78611 0,0.46165 0.30051,0.76433 0.7578,0.76433 z"
         id="path99" />
    </g>
  </g>
</svg>
