<?xml version="1.0" encoding="UTF-8" standalone="no"?>
<svg
   xmlns:dc="http://purl.org/dc/elements/1.1/"
   xmlns:cc="http://creativecommons.org/ns#"
   xmlns:rdf="http://www.w3.org/1999/02/22-rdf-syntax-ns#"
   xmlns:svg="http://www.w3.org/2000/svg"
   xmlns="http://www.w3.org/2000/svg"
   xmlns:sodipodi="http://sodipodi.sourceforge.net/DTD/sodipodi-0.dtd"
   xmlns:inkscape="http://www.inkscape.org/namespaces/inkscape"
   width="64"
   height="64"
   version="1.1"
   viewBox="0 0 16.933 16.933"
   id="svg19"
   sodipodi:docname="image-png.svg"
   inkscape:version="1.0.2 (e86c870879, 2021-01-15)">
  <metadata
     id="metadata23">
    <rdf:RDF>
      <cc:Work
         rdf:about="">
        <dc:format>image/svg+xml</dc:format>
        <dc:type
           rdf:resource="http://purl.org/dc/dcmitype/StillImage" />
      </cc:Work>
    </rdf:RDF>
  </metadata>
  <sodipodi:namedview
     pagecolor="#ffffff"
     bordercolor="#666666"
     borderopacity="1"
     objecttolerance="10"
     gridtolerance="10"
     guidetolerance="10"
     inkscape:pageopacity="0"
     inkscape:pageshadow="2"
     inkscape:window-width="2160"
     inkscape:window-height="1246"
     id="namedview21"
     showgrid="false"
     inkscape:zoom="11.484375"
     inkscape:cx="32"
     inkscape:cy="32"
     inkscape:window-x="0"
     inkscape:window-y="42"
     inkscape:window-maximized="1"
     inkscape:current-layer="svg19"
     inkscape:document-rotation="0" />
  <defs
     id="defs5">
    <filter
       id="a"
       x="-.039001"
       y="-.033428"
       width="1.078"
       height="1.0669"
       color-interpolation-filters="sRGB">
      <feGaussianBlur
         stdDeviation="0.20637525"
         id="feGaussianBlur2" />
    </filter>
  </defs>
  <path
     d="m3.4395 1.3543c-0.73289 0-1.3229 0.59001-1.3229 1.3229v12.171c0 0.73289 0.59001 1.3229 1.3229 1.3229h10.054c0.73289 0 1.3229-0.59001 1.3229-1.3229v-10.319l-3.175-3.175z"
     filter="url(#a)"
     opacity=".15"
     stroke-width=".26458"
     style="paint-order:stroke fill markers"
     id="path7" />
  <g
     fill-rule="evenodd"
     id="g13">
    <path
       transform="scale(.26458)"
       d="m13 4c-2.77 0-5 2.23-5 5v46c0 2.77 2.23 5 5 5h38c2.77 0 5-2.23 5-5v-39l-12-12z"
       fill="#f4f4f4"
       style="paint-order:stroke fill markers"
       id="path9" />
    <path
       d="m14.816 4.2332-3.1749-3.1749v1.852c0 0.73288 0.59001 1.3229 1.3229 1.3229z"
       fill="#E6E6E6"
       style="paint-order:stroke fill markers"
       id="path11" />
  </g>
  <path
     d="m11.641 2.9104v0.15451c0 0.79397 0.59 1.433 1.3229 1.433h1.852l1.42e-4 -0.26463-1.8522 5e-5c-0.73289 1.98e-5 -1.3229-0.59001-1.3229-1.3229z"
     opacity=".1"
     stroke-width="1.0408"
     style="paint-order:stroke fill markers"
     id="path17" />
  <g
     id="g905"
     transform="translate(3.46e-7,-0.2797583)">
    <g
       id="g6"
       transform="matrix(0.01679859,0,0,0.01679859,5.2646884,5.2646884)"
       style="fill:#7b7b7b;fill-opacity:1">
      <g
         id="g4"
         style="fill:#7b7b7b;fill-opacity:1">
        <path
           d="M 345.6,20.2 H 35.6 C 16,20.2 0,36.2 0,55.8 v 194 75.6 C 0,345 16,361 35.6,361 h 310 c 19.6,0 35.6,-16 35.6,-35.6 V 55.8 c 0,-19.6 -16,-35.6 -35.6,-35.6 z m 17.6,305.2 c 0,9.6 -8,17.6 -18,17.6 H 35.6 c -10,0 -18,-8 -18,-18 V 253 L 118,150.6 208.8,255 c 3.2,3.6 8,4 12,1.6 l 73.6,-52 68.8,49.6 z m 0.4,-92.8 -64,-46 c -3.2,-2.4 -7.2,-2.4 -10.4,0 l -72,51.2 -92,-105.6 c -1.6,-2 -4,-2.8 -6.4,-3.2 -2.4,0 -4.8,0.8 -6.8,2.8 l -94.4,96 v -172 c 0,-9.6 8,-17.6 18,-17.6 h 310 c 10,0 18,8 18,18 z"
           id="path2"
           style="fill:#7b7b7b;fill-opacity:1" />
      </g>
    </g>
    <g
       id="g12"
       transform="matrix(0.01679859,0,0,0.01679859,5.2646884,5.2646884)"
       style="fill:#7b7b7b;fill-opacity:1">
      <g
         id="g10"
         style="fill:#7b7b7b;fill-opacity:1">
        <path
           d="m 244.8,73.4 c -25.6,0 -46,20.8 -46,46 -0.4,25.2 20.4,46 46,46 25.6,0 46,-20.8 46,-46 0,-25.6 -20.8,-46 -46,-46 z m 0,74.4 c -15.6,0 -28.4,-12.8 -28.4,-28.4 0,-16 12.8,-28.4 28.4,-28.4 15.6,0 28.4,12.8 28.4,28.4 0,15.6 -12.8,28.4 -28.4,28.4 z"
           id="path8"
           style="fill:#7b7b7b;fill-opacity:1" />
      </g>
    </g>
  </g>
  <g
     fill="#7b7b7b"
     stroke-width="0.052625"
     aria-label="WEBP"
     id="g103"
     transform="translate(-1.05e-4,-1.327025)">
    <path
       d="M 5.475,13.5 H 5.68468 L 6.00742,14.7971 6.32913,13.5 H 6.56245 L 6.88519,14.7971 7.2069,13.5 H 7.41761 L 7.03217,15.0346 H 6.7711 L 6.44733,13.7025 6.12048,15.0346 H 5.85941 Z"
       id="path95" />
    <path
       d="m 7.6931,13.5 h 0.97027 v 0.17473 H 7.90072 v 0.4543 h 0.73079 v 0.17473 H 7.90072 v 0.55606 h 0.78115 v 0.17473 H 7.6931 Z"
       id="path97" />
    <path
       d="m 9.2307,14.302 v 0.56222 h 0.33302 q 0.16754,0 0.24771,-0.06886 0.081199,-0.06989 0.081199,-0.21276 0,-0.1439 -0.081199,-0.21173 -0.080171,-0.06886 -0.24771,-0.06886 z m 0,-0.63109 v 0.46252 h 0.30732 q 0.15212,0 0.22612,-0.05653 0.075032,-0.05756 0.075032,-0.17473 0,-0.11614 -0.075032,-0.1737 Q 9.690136,13.67091 9.53802,13.67091 Z M 9.02308,13.50029 h 0.53036 q 0.23743,0 0.36591,0.09867 0.12848,0.09867 0.12848,0.2806 0,0.14081 -0.065782,0.22407 -0.065781,0.08326 -0.19323,0.10381 0.15315,0.03289 0.23743,0.13773 0.08531,0.10381 0.08531,0.26004 0,0.20557 -0.13978,0.3176 -0.13979,0.11203 -0.39777,0.11203 h -0.55092 z"
       id="path99" />
    <path
       d="m 10.675,13.671 v 0.57661 h 0.26107 q 0.14492,0 0.22407,-0.07503 0.07914,-0.07503 0.07914,-0.21379 0,-0.13773 -0.07914,-0.21276 Q 11.081,13.671 10.93607,13.671 Z m -0.20762,-0.17062 h 0.46869 q 0.25799,0 0.38955,0.11717 0.13259,0.11614 0.13259,0.34124 0,0.22715 -0.13259,0.3433 -0.13156,0.11614 -0.38955,0.11614 H 10.675 v 0.6167 h -0.20762 z"
       id="path101" />
  </g>
</svg>
