<?xml version="1.0" encoding="UTF-8" standalone="no"?>
<svg
   xmlns:dc="http://purl.org/dc/elements/1.1/"
   xmlns:cc="http://creativecommons.org/ns#"
   xmlns:rdf="http://www.w3.org/1999/02/22-rdf-syntax-ns#"
   xmlns:svg="http://www.w3.org/2000/svg"
   xmlns="http://www.w3.org/2000/svg"
   xmlns:sodipodi="http://sodipodi.sourceforge.net/DTD/sodipodi-0.dtd"
   xmlns:inkscape="http://www.inkscape.org/namespaces/inkscape"
   width="64"
   height="64"
   version="1.1"
   viewBox="0 0 16.933 16.933"
   id="svg53"
   sodipodi:docname="folder-cloud.svg"
   inkscape:version="1.0.1 (3bc2e813f5, 2020-09-07)">
  <metadata
     id="metadata57">
    <rdf:RDF>
      <cc:Work
         rdf:about="">
        <dc:format>image/svg+xml</dc:format>
        <dc:type
           rdf:resource="http://purl.org/dc/dcmitype/StillImage" />
      </cc:Work>
    </rdf:RDF>
  </metadata>
  <sodipodi:namedview
     pagecolor="#ffffff"
     bordercolor="#666666"
     borderopacity="1"
     objecttolerance="10"
     gridtolerance="10"
     guidetolerance="10"
     inkscape:pageopacity="0"
     inkscape:pageshadow="2"
     inkscape:window-width="2160"
     inkscape:window-height="1272"
     id="namedview55"
     showgrid="false"
     inkscape:zoom="11.484375"
     inkscape:cx="36.245166"
     inkscape:cy="32"
     inkscape:window-x="0"
     inkscape:window-y="30"
     inkscape:window-maximized="1"
     inkscape:current-layer="svg53"
     inkscape:document-rotation="0" />
  <defs
     id="defs33" />
  <g
     id="g835"
     transform="translate(-3.0021286e-4,0.00453993)">
    <path
       d="m 2.21,2.38 h 2.695 c 0.75074,0 0.78302,0.0285 1.5421,0.62962 0.78159,0.5904 0.94779,0.607 1.8636,0.607 l 6.4126,-0.0524 c 0.638,-0.005 1.1517,0.51363 1.1517,1.1516 v 6.77 c 0,0.63802 -0.51364,1.1517 -1.1517,1.1517 H 2.2103 c -0.63802,0 -1.1517,-0.51364 -1.1517,-1.1517 v -7.9542 c 0,-0.63802 0.51364,-1.1517 1.1517,-1.1517 z"
       fill="#57B0FF"
       id="path37"
       style="fill:#57b0ff;fill-opacity:1" />
    <rect
       x="1.0583"
       y="5.0197883"
       width="14.817"
       height="9.5242119"
       rx="1.1517"
       ry="1.0693188"
       fill="#80C3FF"
       id="rect41"
       style="opacity:1;fill:#80c3ff;fill-opacity:1;stroke-width:0.973296" />
    <path
       d="m 2.2101125,5.0269843 c -0.63801,0 -1.1518,0.50323 -1.1518,1.1286 v 0.23512 c 0,-0.6089 0.51384,-1.0991 1.1518,-1.0991 H 14.723112 c 0.63801,0 1.1518,0.49024 1.1518,1.0991 v -0.23512 c 0,-0.62536 -0.51384,-1.1286 -1.1518,-1.1286 z"
       fill="#ffffff"
       opacity="0.1"
       stroke-width="0.264581"
       id="path49" />
  </g>
  <path
     d="m9.0621 6.8813c-0.82735 0-1.5389 0.47695-1.8528 1.1603-0.16789-0.13024-0.37885-0.20757-0.60779-0.20757-0.53927 0-0.97802 0.43021-0.99181 0.96615-0.55664 0.20877-0.9529 0.74566-0.9529 1.3752 0 0.74366 0.55291 1.3582 1.27 1.4551v0.01326h5.08v-0.0023c0.70828-0.04109 1.27-0.62845 1.27-1.347 0-0.69298-0.52247-1.2641-1.195-1.3407 0.0029-0.042246 0.0042-0.084717 0.0042-0.12766-4e-6 -1.074-0.90616-1.9447-2.024-1.9447z"
     color="#4d4d4d"
     opacity=".15"
     id="path51" />
</svg>
