<?xml version="1.0" encoding="UTF-8" standalone="no"?>
<svg
   xmlns:dc="http://purl.org/dc/elements/1.1/"
   xmlns:cc="http://creativecommons.org/ns#"
   xmlns:rdf="http://www.w3.org/1999/02/22-rdf-syntax-ns#"
   xmlns:svg="http://www.w3.org/2000/svg"
   xmlns="http://www.w3.org/2000/svg"
   xmlns:sodipodi="http://sodipodi.sourceforge.net/DTD/sodipodi-0.dtd"
   xmlns:inkscape="http://www.inkscape.org/namespaces/inkscape"
   width="64"
   height="64"
   version="1.1"
   viewBox="0 0 16.933 16.933"
   id="svg53"
   sodipodi:docname="folder-public.svg"
   inkscape:version="1.0.1 (3bc2e813f5, 2020-09-07)">
  <metadata
     id="metadata57">
    <rdf:RDF>
      <cc:Work
         rdf:about="">
        <dc:format>image/svg+xml</dc:format>
        <dc:type
           rdf:resource="http://purl.org/dc/dcmitype/StillImage" />
      </cc:Work>
    </rdf:RDF>
  </metadata>
  <sodipodi:namedview
     pagecolor="#ffffff"
     bordercolor="#666666"
     borderopacity="1"
     objecttolerance="10"
     gridtolerance="10"
     guidetolerance="10"
     inkscape:pageopacity="0"
     inkscape:pageshadow="2"
     inkscape:window-width="2160"
     inkscape:window-height="1272"
     id="namedview55"
     showgrid="false"
     inkscape:zoom="11.484375"
     inkscape:cx="32"
     inkscape:cy="32"
     inkscape:window-x="0"
     inkscape:window-y="30"
     inkscape:window-maximized="1"
     inkscape:current-layer="svg53"
     inkscape:document-rotation="0" />
  <defs
     id="defs33" />
  <g
     id="g835"
     transform="translate(-3.0021286e-4,0.00453993)">
    <path
       d="m 2.21,2.38 h 2.695 c 0.75074,0 0.78302,0.0285 1.5421,0.62962 0.78159,0.5904 0.94779,0.607 1.8636,0.607 l 6.4126,-0.0524 c 0.638,-0.005 1.1517,0.51363 1.1517,1.1516 v 6.77 c 0,0.63802 -0.51364,1.1517 -1.1517,1.1517 H 2.2103 c -0.63802,0 -1.1517,-0.51364 -1.1517,-1.1517 v -7.9542 c 0,-0.63802 0.51364,-1.1517 1.1517,-1.1517 z"
       fill="#57B0FF"
       id="path37"
       style="fill:#57b0ff;fill-opacity:1" />
    <rect
       x="1.0583"
       y="5.0197883"
       width="14.817"
       height="9.5242119"
       rx="1.1517"
       ry="1.0693188"
       fill="#80C3FF"
       id="rect41"
       style="opacity:1;fill:#80c3ff;fill-opacity:1;stroke-width:0.973296" />
    <path
       d="m 2.2101125,5.0269843 c -0.63801,0 -1.1518,0.50323 -1.1518,1.1286 v 0.23512 c 0,-0.6089 0.51384,-1.0991 1.1518,-1.0991 H 14.723112 c 0.63801,0 1.1518,0.49024 1.1518,1.0991 v -0.23512 c 0,-0.62536 -0.51384,-1.1286 -1.1518,-1.1286 z"
       fill="#ffffff"
       opacity="0.1"
       stroke-width="0.264581"
       id="path49" />
  </g>
  <path
     d="m8.4461 6.8712c-0.36113 0.010643-0.64592 0.30708-0.64592 0.67098 3.33e-4 0.24496 0.13406 0.47028 0.34894 0.5879l-0.85817 0.76446-0.066365 0.056774-0.066575-0.056774v2.14e-4l-0.85817-0.76446c0.21488-0.11762 0.34863-0.34294 0.34894-0.5879 0-0.36496-0.28643-0.66189-0.64905-0.67098h-0.037566c-0.36113 0.010647-0.64592 0.30708-0.64592 0.67097 3.315e-4 0.24496 0.13406 0.47028 0.34894 0.5879l-0.85817 0.76446-0.040071 0.54804 0.68119-0.50671-0.071793 0.82394-0.7029 2.4021h0.52091l0.78617-2.0206 0.00377-2.14e-4 0.78638 2.0208h0.52091v-2.14e-4h0.38672l0.78617-2.0204h0.00377l0.78638 2.0208h0.90763l0.78617-2.0204h0.0037l0.78638 2.0208h0.52095l-0.70285-2.4021-0.07179-0.82396 0.68119 0.50673-0.04007-0.54804-0.85817-0.76446c0.21488-0.11762 0.34863-0.34296 0.34894-0.58792 0-0.36496-0.28643-0.66187-0.64905-0.67095h-0.03756c-0.36113 0.010647-0.64592 0.30705-0.64592 0.67095 3.34e-4 0.24496 0.13406 0.4703 0.34894 0.58792l-0.85818 0.76446v-2.141e-4l-0.066366 0.056705-0.066575-0.056514-0.85817-0.76444c0.21488-0.11762 0.34863-0.34296 0.34894-0.58792 0-0.36496-0.28643-0.66187-0.64905-0.67095zm-0.51402 2.0647-0.071792 0.82393-0.6359 2.173-0.63569-2.1727-0.071793-0.82394 0.68119 0.50671 0.026505 0.016555 0.026294-0.0168zm1.0687 0 0.68119 0.50671 0.026505 0.0168 0.026295-0.017027v2.137e-4l0.68119-0.50672-0.071791 0.82394-0.6359 2.1728-0.6357-2.1728z"
     opacity=".15"
     stroke-width=".23656"
     id="path51" />
</svg>
