<?xml version="1.0" encoding="UTF-8" standalone="no"?>
<svg
   xmlns:dc="http://purl.org/dc/elements/1.1/"
   xmlns:cc="http://creativecommons.org/ns#"
   xmlns:rdf="http://www.w3.org/1999/02/22-rdf-syntax-ns#"
   xmlns:svg="http://www.w3.org/2000/svg"
   xmlns="http://www.w3.org/2000/svg"
   xmlns:sodipodi="http://sodipodi.sourceforge.net/DTD/sodipodi-0.dtd"
   xmlns:inkscape="http://www.inkscape.org/namespaces/inkscape"
   width="64"
   height="64"
   version="1.1"
   viewBox="0 0 16.933 16.933"
   id="svg51"
   sodipodi:docname="folder-open.svg"
   inkscape:version="1.0.1 (3bc2e813f5, 2020-09-07)">
  <metadata
     id="metadata55">
    <rdf:RDF>
      <cc:Work
         rdf:about="">
        <dc:format>image/svg+xml</dc:format>
        <dc:type
           rdf:resource="http://purl.org/dc/dcmitype/StillImage" />
      </cc:Work>
    </rdf:RDF>
  </metadata>
  <sodipodi:namedview
     pagecolor="#ffffff"
     bordercolor="#666666"
     borderopacity="1"
     objecttolerance="10"
     gridtolerance="10"
     guidetolerance="10"
     inkscape:pageopacity="0"
     inkscape:pageshadow="2"
     inkscape:window-width="2160"
     inkscape:window-height="1272"
     id="namedview53"
     showgrid="false"
     inkscape:zoom="11.484375"
     inkscape:cx="37.582684"
     inkscape:cy="32"
     inkscape:window-x="0"
     inkscape:window-y="30"
     inkscape:window-maximized="1"
     inkscape:current-layer="svg51"
     inkscape:document-rotation="0" />
  <defs
     id="defs33" />
  <path
     d="m 2.2096998,2.3845399 h 2.695 c 0.75074,0 0.78302,0.0285 1.5421,0.62962 0.78159,0.5904 0.94779,0.607 1.8636,0.607 L 14.723,3.5687599 c 0.638,-0.005 1.1517,0.51363 1.1517,1.1516 V 11.49036 c 0,0.63802 -0.51364,1.1517 -1.1517,1.1517 H 2.2099998 c -0.63802,0 -1.1517,-0.51364 -1.1517,-1.1517 V 3.5361599 c 0,-0.63802 0.51364,-1.1517 1.1517,-1.1517 z"
     fill="#57B0FF"
     id="path37"
     style="fill:#57b0ff;fill-opacity:1" />
  <g
     id="g854"
     transform="matrix(1,0,0,0.72528282,0,3.9967338)">
    <rect
       x="1.0579998"
       y="5.0243282"
       width="14.817"
       height="9.5242119"
       rx="1.1517"
       ry="1.0693188"
       fill="#80C3FF"
       id="rect41-3"
       style="fill:#80c3ff;fill-opacity:1;stroke-width:0.973296" />
    <path
       d="m 2.2098123,5.0315242 c -0.63801,0 -1.1518,0.50323 -1.1518,1.1286 v 0.23512 c 0,-0.6089 0.51384,-1.0991 1.1518,-1.0991 H 14.722812 c 0.63801,0 1.1518,0.49024 1.1518,1.0991 v -0.23512 c 0,-0.62536 -0.51384,-1.1286 -1.1518,-1.1286 z"
       fill="#ffffff"
       opacity="0.1"
       stroke-width="0.264581"
       id="path49" />
  </g>
</svg>
