<?xml version="1.0" encoding="UTF-8" standalone="no"?>
<svg
   xmlns:dc="http://purl.org/dc/elements/1.1/"
   xmlns:cc="http://creativecommons.org/ns#"
   xmlns:rdf="http://www.w3.org/1999/02/22-rdf-syntax-ns#"
   xmlns:svg="http://www.w3.org/2000/svg"
   xmlns="http://www.w3.org/2000/svg"
   xmlns:sodipodi="http://sodipodi.sourceforge.net/DTD/sodipodi-0.dtd"
   xmlns:inkscape="http://www.inkscape.org/namespaces/inkscape"
   width="64"
   height="64"
   version="1.1"
   viewBox="0 0 16.933 16.933"
   id="svg53"
   sodipodi:docname="user-desktop.svg"
   inkscape:version="1.0.1 (3bc2e813f5, 2020-09-07)">
  <metadata
     id="metadata57">
    <rdf:RDF>
      <cc:Work
         rdf:about="">
        <dc:format>image/svg+xml</dc:format>
        <dc:type
           rdf:resource="http://purl.org/dc/dcmitype/StillImage" />
      </cc:Work>
    </rdf:RDF>
  </metadata>
  <sodipodi:namedview
     pagecolor="#ffffff"
     bordercolor="#666666"
     borderopacity="1"
     objecttolerance="10"
     gridtolerance="10"
     guidetolerance="10"
     inkscape:pageopacity="0"
     inkscape:pageshadow="2"
     inkscape:window-width="2160"
     inkscape:window-height="1272"
     id="namedview55"
     showgrid="false"
     inkscape:zoom="11.484375"
     inkscape:cx="32"
     inkscape:cy="32"
     inkscape:window-x="0"
     inkscape:window-y="30"
     inkscape:window-maximized="1"
     inkscape:current-layer="svg53"
     inkscape:document-rotation="0" />
  <defs
     id="defs33" />
  <path
     d="m2.2102 4.4979c-0.63801 0-1.1518 0.50323-1.1518 1.1286v0.23512c0-0.6089 0.51384-1.0991 1.1518-1.0991h12.513c0.63801 0 1.1518 0.49024 1.1518 1.0991v-0.23512c0-0.62536-0.51384-1.1286-1.1518-1.1286z"
     fill="#ffffff"
     opacity=".1"
     stroke-width=".26458"
     id="path49" />
  <g
     id="g835"
     transform="translate(-3.0021286e-4,0.00453993)">
    <path
       d="m 2.21,2.38 h 2.695 c 0.75074,0 0.78302,0.0285 1.5421,0.62962 0.78159,0.5904 0.94779,0.607 1.8636,0.607 l 6.4126,-0.0524 c 0.638,-0.005 1.1517,0.51363 1.1517,1.1516 v 6.77 c 0,0.63802 -0.51364,1.1517 -1.1517,1.1517 H 2.2103 c -0.63802,0 -1.1517,-0.51364 -1.1517,-1.1517 v -7.9542 c 0,-0.63802 0.51364,-1.1517 1.1517,-1.1517 z"
       fill="#57B0FF"
       id="path37-3"
       style="fill:#57b0ff;fill-opacity:1" />
    <rect
       x="1.0583"
       y="5.0197883"
       width="14.817"
       height="9.5242119"
       rx="1.1517"
       ry="1.0693188"
       fill="#80C3FF"
       id="rect41-6"
       style="opacity:1;fill:#80c3ff;fill-opacity:1;stroke-width:0.973296" />
    <path
       d="m 2.2101125,5.0269843 c -0.63801,0 -1.1518,0.50323 -1.1518,1.1286 v 0.23512 c 0,-0.6089 0.51384,-1.0991 1.1518,-1.0991 H 14.723112 c 0.63801,0 1.1518,0.49024 1.1518,1.0991 v -0.23512 c 0,-0.62536 -0.51384,-1.1286 -1.1518,-1.1286 z"
       fill="#ffffff"
       opacity="0.1"
       stroke-width="0.264581"
       id="path49-7" />
  </g>
  <path
     d="m5.78 6.3499c-0.4961 0-0.8955 0.39938-0.8955 0.8955v4.0297c0 0.4961 0.39938 0.8955 0.8955 0.8955h5.373c0.4961 0 0.8955-0.39938 0.8955-0.8955v-4.0297c0-0.4961-0.39938-0.8955-0.8955-0.8955zm0 0.44775h5.373c0.24805 0 0.44775 0.1997 0.44775 0.44775v4.0297c0 0.24805-0.1997 0.44775-0.44775 0.44775h-5.373c-0.24805 0-0.44775-0.1997-0.44775-0.44775v-4.0297c0-0.24805 0.1997-0.44775 0.44775-0.44775zm0.44775 3.582c-0.24805 0-0.44775 0.1997-0.44775 0.44775s0.1997 0.44775 0.44775 0.44775h4.4775c0.24805 0 0.44775-0.1997 0.44775-0.44775s-0.1997-0.44775-0.44775-0.44775z"
     fill="#000000"
     opacity=".15"
     stroke-width=".44775"
     id="path51" />
</svg>
