<?xml version="1.0" encoding="UTF-8" standalone="no"?>
<svg
   xmlns:dc="http://purl.org/dc/elements/1.1/"
   xmlns:cc="http://creativecommons.org/ns#"
   xmlns:rdf="http://www.w3.org/1999/02/22-rdf-syntax-ns#"
   xmlns:svg="http://www.w3.org/2000/svg"
   xmlns="http://www.w3.org/2000/svg"
   xmlns:sodipodi="http://sodipodi.sourceforge.net/DTD/sodipodi-0.dtd"
   xmlns:inkscape="http://www.inkscape.org/namespaces/inkscape"
   width="64"
   height="64"
   version="1.1"
   viewBox="0 0 16.933 16.933"
   id="svg53"
   sodipodi:docname="user-home.svg"
   inkscape:version="1.0.1 (3bc2e813f5, 2020-09-07)">
  <metadata
     id="metadata57">
    <rdf:RDF>
      <cc:Work
         rdf:about="">
        <dc:format>image/svg+xml</dc:format>
        <dc:type
           rdf:resource="http://purl.org/dc/dcmitype/StillImage" />
      </cc:Work>
    </rdf:RDF>
  </metadata>
  <sodipodi:namedview
     pagecolor="#ffffff"
     bordercolor="#666666"
     borderopacity="1"
     objecttolerance="10"
     gridtolerance="10"
     guidetolerance="10"
     inkscape:pageopacity="0"
     inkscape:pageshadow="2"
     inkscape:window-width="2160"
     inkscape:window-height="1272"
     id="namedview55"
     showgrid="false"
     inkscape:zoom="11.484375"
     inkscape:cx="36.337902"
     inkscape:cy="28.989476"
     inkscape:window-x="0"
     inkscape:window-y="30"
     inkscape:window-maximized="1"
     inkscape:current-layer="svg53"
     inkscape:document-rotation="0" />
  <defs
     id="defs33" />
  <path
     d="m2.2102 4.4979c-0.63801 0-1.1518 0.50323-1.1518 1.1286v0.23512c0-0.6089 0.51384-1.0991 1.1518-1.0991h12.513c0.63801 0 1.1518 0.49024 1.1518 1.0991v-0.23512c0-0.62536-0.51384-1.1286-1.1518-1.1286z"
     fill="#ffffff"
     opacity=".1"
     stroke-width=".26458"
     id="path49" />
  <g
     id="g835"
     transform="translate(-3.0021286e-4,0.00453993)">
    <path
       d="m 2.21,2.38 h 2.695 c 0.75074,0 0.78302,0.0285 1.5421,0.62962 0.78159,0.5904 0.94779,0.607 1.8636,0.607 l 6.4126,-0.0524 c 0.638,-0.005 1.1517,0.51363 1.1517,1.1516 v 6.77 c 0,0.63802 -0.51364,1.1517 -1.1517,1.1517 H 2.2103 c -0.63802,0 -1.1517,-0.51364 -1.1517,-1.1517 v -7.9542 c 0,-0.63802 0.51364,-1.1517 1.1517,-1.1517 z"
       fill="#57B0FF"
       id="path37-3"
       style="fill:#57b0ff;fill-opacity:1" />
    <rect
       x="1.0583"
       y="5.0197883"
       width="14.817"
       height="9.5242119"
       rx="1.1517"
       ry="1.0693188"
       fill="#80C3FF"
       id="rect41-6"
       style="opacity:1;fill:#80c3ff;fill-opacity:1;stroke-width:0.973296" />
    <path
       d="m 2.2101125,5.0269843 c -0.63801,0 -1.1518,0.50323 -1.1518,1.1286 v 0.23512 c 0,-0.6089 0.51384,-1.0991 1.1518,-1.0991 H 14.723112 c 0.63801,0 1.1518,0.49024 1.1518,1.0991 v -0.23512 c 0,-0.62536 -0.51384,-1.1286 -1.1518,-1.1286 z"
       fill="#ffffff"
       opacity="0.1"
       stroke-width="0.264581"
       id="path49-7" />
  </g>
  <path
     d="m 11.470798,9.1117954 c -2.04e-4,-1.44e-4 -3.48e-4,-3.38e-4 -4.8e-4,-4.861e-4 L 8.8798371,6.521136 C 8.7694401,6.4106749 8.6225641,6.3498743 8.4664481,6.3498743 c -0.156116,0 -0.302992,0.060801 -0.413389,0.1712617 L 5.4639463,9.1100013 c -8.76e-4,8.72e-4 -0.0018,0.00179 -0.0026,0.0026 -0.226794,0.2280362 -0.226314,0.5980204 0.0011,0.8254744 0.104397,0.1039613 0.241194,0.1641413 0.38795,0.1704813 0.006,5.82e-4 0.012,8.7e-4 0.018,8.7e-4 h 0.103197 v 1.906162 c 0,0.377254 0.3069518,0.684159 0.6842218,0.684159 h 1.013494 c 0.103197,0 0.185995,-0.08332 0.185995,-0.186042 v -1.494469 c 0,-0.172121 0.140036,-0.312138 0.312232,-0.312138 h 0.597824 c 0.172076,0 0.312112,0.140001 0.312112,0.312138 v 1.494471 c 0,0.102701 0.0828,0.186042 0.185995,0.186042 h 1.0134939 c 0.37739,0 0.684222,-0.306907 0.684222,-0.684161 v -1.906162 h 0.096 c 0.156116,0 0.302872,-0.0608 0.41339,-0.1713013 0.227754,-0.227794 0.227754,-0.5984562 3.48e-4,-0.8263944 z m -0.263514,0.5633313 c -0.0396,0.04016 -0.0936,0.0623 -0.150356,0.0623 h -0.281752 c -0.103198,0 -0.185996,0.08328 -0.185996,0.186022 v 2.0921953 c 0,0.172083 -0.140036,0.312092 -0.312231,0.312092 H 9.4495701 V 11.0193 c 0,-0.377248 -0.306952,-0.684203 -0.684222,-0.684203 h -0.597824 c -0.377391,0 -0.684343,0.306955 -0.684343,0.684203 v 1.308436 h -0.827378 c -0.172075,0 -0.312112,-0.140001 -0.312112,-0.312092 V 9.9234487 c 0,-0.102761 -0.0828,-0.186022 -0.185995,-0.186022 H 5.8807433 c -0.003,-1.94e-4 -0.0058,-3.379e-4 -0.0088,-3.879e-4 -0.0552,-9.68e-4 -0.107997,-0.02296 -0.146396,-0.06196 -0.0828,-0.08284 -0.0828,-0.2176679 0,-0.3005589 4.8e-5,0 4.8e-5,-4.6e-5 9.6e-5,-10e-5 l 1.44e-4,-1.441e-4 2.5903848,-2.5900772 c 0.0396,-0.04016 0.0936,-0.062261 0.150236,-0.062261 0.0564,0 0.110397,0.0221 0.150236,0.062261 L 11.20644,9.3737438 c 3.84e-4,3.86e-4 8.28e-4,7.76e-4 0.0012,0.0012 0.0828,0.08298 0.0828,0.2175221 -3.84e-4,0.3002211 z m 0,0"
     id="path2"
     style="opacity:0.15;fill:#000000;fill-opacity:1;stroke-width:0.0124027" />
</svg>
