<svg width="22" height="22" version="1.1" xmlns="http://www.w3.org/2000/svg">
 <defs>
  <style id="current-color-scheme" type="text/css">.ColorScheme-Text { color:#ffffff; }</style>
 </defs>
 <g transform="matrix(.038904 0 0 .044232 1.0405 -.32327)" fill="#ffffff">
  <g fill="#ffffff">
   <g fill="#ffffff">
    <path d="m407 271c8.284 0 15-6.716 15-15s-6.716-15-15-15-15 6.716-15 15 6.716 15 15 15zm100.61-25.607c-31.568-31.569-61.924-54.228-92.798-69.269-35.594-17.341-71.939-24.803-111.1-22.809-41.725 2.123-85.538 14.913-133.94 39.101-24.547 12.266-49.936 27.295-76.519 45.315-21.74-15.507-44.585-33.206-68.645-53.256-6.364-5.303-15.821-4.444-21.126 1.921-5.304 6.364-4.443 15.822 1.921 21.126 21.418 17.848 42.002 33.97 61.898 48.477-19.896 14.506-40.48 30.628-61.898 48.477-6.364 5.304-7.225 14.762-1.921 21.126 5.321 6.385 14.783 7.208 21.126 1.921 24.06-20.05 46.905-37.749 68.646-53.256 26.583 18.02 51.972 33.049 76.519 45.315 45.789 22.881 95.02 39.416 146.2 39.416 34.534 0 66.986-7.606 98.837-23.124 30.874-15.041 61.229-37.699 92.798-69.269 2.929-2.929 4.394-6.768 4.394-10.606s-1.466-7.677-4.395-10.606zm-387.72 10.607c168.39-110.76 267.6-82.731 355.58 0-87.974 82.73-187.19 110.76-355.58 0z" fill="#ffffff"/>
   </g>
  </g>
 </g>
</svg>
