<?xml version="1.0" encoding="UTF-8" standalone="no"?>
<svg
   xmlns:dc="http://purl.org/dc/elements/1.1/"
   xmlns:cc="http://creativecommons.org/ns#"
   xmlns:rdf="http://www.w3.org/1999/02/22-rdf-syntax-ns#"
   xmlns:svg="http://www.w3.org/2000/svg"
   xmlns="http://www.w3.org/2000/svg"
   xmlns:xlink="http://www.w3.org/1999/xlink"
   xmlns:sodipodi="http://sodipodi.sourceforge.net/DTD/sodipodi-0.dtd"
   xmlns:inkscape="http://www.inkscape.org/namespaces/inkscape"
   width="48"
   height="48"
   version="1.1"
   viewBox="0 0 12.7 12.7"
   id="svg78"
   sodipodi:docname="user-trash2.svg"
   inkscape:version="1.0.1 (3bc2e813f5, 2020-09-07)">
  <metadata
     id="metadata82">
    <rdf:RDF>
      <cc:Work
         rdf:about="">
        <dc:format>image/svg+xml</dc:format>
        <dc:type
           rdf:resource="http://purl.org/dc/dcmitype/StillImage" />
        <dc:title></dc:title>
      </cc:Work>
    </rdf:RDF>
  </metadata>
  <sodipodi:namedview
     pagecolor="#ffffff"
     bordercolor="#666666"
     borderopacity="1"
     objecttolerance="10"
     gridtolerance="10"
     guidetolerance="10"
     inkscape:pageopacity="0"
     inkscape:pageshadow="2"
     inkscape:window-width="2160"
     inkscape:window-height="1247"
     id="namedview80"
     showgrid="false"
     units="px"
     inkscape:zoom="7.77875"
     inkscape:cx="83.560167"
     inkscape:cy="36.62557"
     inkscape:window-x="0"
     inkscape:window-y="35"
     inkscape:window-maximized="1"
     inkscape:current-layer="svg78" />
  <defs
     id="defs64">
    <linearGradient
       id="a">
      <stop
         stop-color="#d9dadd"
         offset="0"
         id="stop2" />
      <stop
         stop-color="#e3e4e6"
         offset=".25424"
         id="stop4" />
      <stop
         stop-color="#d8dbde"
         offset=".74364"
         id="stop6" />
      <stop
         stop-color="#f7f7f8"
         offset="1"
         id="stop8" />
    </linearGradient>
    <clipPath
       id="p">
      <path
         d="m 45.102,268 3.7755,30.736 c -5e-6,2.8428 5.3769,5.1475 12.01,5.1475 6.6332,0 12.011,-2.3047 12.011,-5.1475 L 76.6404,268 c -7.94e-4,2.1771 -7.0606,3.9419 -15.769,3.9419 -8.7084,2e-5 -15.768,-1.7648 -15.769,-3.9419 z m 31.538,0 c 0,-0.0854 -0.01476,-0.17017 -0.03617,-0.25425 0.02299,0.0846 0.03506,0.16942 0.03617,0.25425 z"
         color="#000000"
         fill="#ffffff"
         opacity="0.691"
         id="path11" />
    </clipPath>
    <filter
       id="k"
       x="-0.084444001"
       y="-0.18727"
       width="1.1689"
       height="1.3745"
       color-interpolation-filters="sRGB">
      <feGaussianBlur
         stdDeviation="1.0791004"
         id="feGaussianBlur14" />
    </filter>
    <clipPath
       id="n">
      <path
         d="m 45.102,268 3.7755,30.736 c -5e-6,2.8428 5.3769,5.1475 12.01,5.1475 6.6332,0 12.011,-2.3047 12.011,-5.1475 L 76.6404,268 c -7.94e-4,2.1771 -7.0606,3.9419 -15.769,3.9419 -8.7084,2e-5 -15.768,-1.7648 -15.769,-3.9419 z m 31.538,0 c 0,-0.0854 -0.01476,-0.17017 -0.03617,-0.25425 0.02299,0.0846 0.03506,0.16942 0.03617,0.25425 z"
         color="#000000"
         fill="#ffffff"
         opacity="0.691"
         id="path17" />
    </clipPath>
    <filter
       id="i"
       x="-0.36660999"
       y="-0.59061998"
       width="1.7332"
       height="2.1812"
       color-interpolation-filters="sRGB">
      <feGaussianBlur
         stdDeviation="1.6947276"
         id="feGaussianBlur20" />
    </filter>
    <linearGradient
       id="f"
       x1="170.46001"
       x2="289.66"
       y1="713.63"
       y2="713.63"
       gradientTransform="matrix(1.1115,0,0,1.1115,-152.89,-585.89)"
       gradientUnits="userSpaceOnUse"
       xlink:href="#a" />
    <linearGradient
       id="e"
       x1="170.46001"
       x2="289.66"
       y1="704.72998"
       y2="704.72998"
       gradientTransform="matrix(1.1115,0,0,1.1115,-152.89,-585.89)"
       gradientUnits="userSpaceOnUse">
      <stop
         stop-color="#fbfbfc"
         offset="0"
         id="stop24" />
      <stop
         stop-color="#ccced2"
         offset=".25424"
         id="stop26" />
      <stop
         stop-color="#f3f4f5"
         offset=".74364"
         id="stop28" />
      <stop
         stop-color="#d6d6db"
         offset="1"
         id="stop30" />
    </linearGradient>
    <clipPath
       id="o">
      <path
         d="m 45.102,268 3.7755,30.736 c -5e-6,2.8428 5.3769,5.1475 12.01,5.1475 6.6332,0 12.011,-2.3047 12.011,-5.1475 L 76.6404,268 c -7.94e-4,2.1771 -7.0606,3.9419 -15.769,3.9419 -8.7084,2e-5 -15.768,-1.7648 -15.769,-3.9419 z m 31.538,0 c 0,-0.0854 -0.01476,-0.17017 -0.03617,-0.25425 0.02299,0.0846 0.03506,0.16942 0.03617,0.25425 z"
         color="#000000"
         fill="#ffffff"
         opacity="0.691"
         id="path33" />
    </clipPath>
    <filter
       id="j"
       x="-0.084444001"
       y="-0.18727"
       width="1.1689"
       height="1.3745"
       color-interpolation-filters="sRGB">
      <feGaussianBlur
         stdDeviation="1.0791004"
         id="feGaussianBlur36" />
    </filter>
    <clipPath
       id="m">
      <path
         d="m 45.102,268 3.7755,30.736 c -5e-6,2.8428 5.3769,5.1475 12.01,5.1475 6.6332,0 12.011,-2.3047 12.011,-5.1475 L 76.6404,268 c -7.94e-4,2.1771 -7.0606,3.9419 -15.769,3.9419 -8.7084,2e-5 -15.768,-1.7648 -15.769,-3.9419 z m 31.538,0 c 0,-0.0854 -0.01476,-0.17017 -0.03617,-0.25425 0.02299,0.0846 0.03506,0.16942 0.03617,0.25425 z"
         color="#000000"
         fill="#ffffff"
         opacity="0.691"
         id="path39" />
    </clipPath>
    <filter
       id="h"
       x="-0.36660999"
       y="-0.59061998"
       width="1.7332"
       height="2.1812"
       color-interpolation-filters="sRGB">
      <feGaussianBlur
         stdDeviation="1.6947276"
         id="feGaussianBlur42" />
    </filter>
    <clipPath
       id="l">
      <g
         transform="translate(-3.4018,-18.615)"
         id="g51">
        <path
           transform="matrix(0.26458,0,0,0.26458,0,97)"
           d="m 170.46,646.3 14.27,116.17 c -2e-5,10.744 20.322,19.455 45.393,19.455 25.071,0 45.395,-8.7107 45.395,-19.455 L 289.661,646.3 c -0.003,8.2284 -26.686,14.899 -59.6,14.898 -32.914,8e-5 -59.597,-6.67 -59.6,-14.898 z m 119.2,0 c 0,-0.3229 -0.0558,-0.64315 -0.13672,-0.96094 0.0869,0.31986 0.13251,0.64034 0.13672,0.96094 z"
           color="#000000"
           fill="url(#d)"
           opacity="0.915"
           id="path45" />
        <path
           d="m 46.505,302.14 c 7.684,-6.0136 8.7531,-2.8063 14.767,-2.205 6.0136,0.60135 15.903,-4.2763 15.903,-4.2763 l -1.0023,13.631 c 0,0 -28.531,2.0713 -29.667,-7.1495 z"
           clip-path="url(#o)"
           fill="#ffffff"
           fill-rule="evenodd"
           filter="url(#j)"
           opacity="0.729"
           id="path47" />
        <path
           d="m 60.737,305.42 c 6.7486,-6.3476 8.1517,-7.4836 10.758,-1.6704 2.6059,5.8131 -10.758,1.6704 -10.758,1.6704 z"
           clip-path="url(#m)"
           fill="#a4a4a4"
           fill-rule="evenodd"
           filter="url(#h)"
           opacity="0.483"
           id="path49" />
      </g>
    </clipPath>
    <linearGradient
       id="d"
       x1="170.46001"
       x2="289.66"
       y1="713.63"
       y2="713.63"
       gradientUnits="userSpaceOnUse"
       xlink:href="#a" />
    <filter
       id="g"
       x="-0.24031"
       y="-0.031948999"
       width="1.4806"
       height="1.0639"
       color-interpolation-filters="sRGB">
      <feGaussianBlur
         stdDeviation="0.50623594"
         id="feGaussianBlur55" />
    </filter>
    <pattern
       id="b"
       width="500.75668"
       height="171.65068"
       patternTransform="matrix(.26458 0 0 .26458 36.58 237.81)"
       patternUnits="userSpaceOnUse">
      <path
         transform="matrix(15.878 0 0 15.878 -716.12 -4653.4)"
         d="m46.505 302.14c7.684-6.0136 8.7531-2.8063 14.767-2.205 6.0136 0.60135 15.903-4.2763 15.903-4.2763l-1.0023 13.631s-28.531 2.0713-29.667-7.1495z"
         clip-path="url(#p)"
         fill="#fff"
         fill-rule="evenodd"
         filter="url(#k)"
         opacity=".729"
         id="path58" />
    </pattern>
    <pattern
       id="c"
       width="305.31874"
       height="126.84432"
       patternTransform="matrix(.26458 0 0 .26458 85.177 249.67)"
       patternUnits="userSpaceOnUse">
      <path
         transform="matrix(15.878 0 0 15.878 -899.79 -4698.2)"
         d="m60.737 305.42c6.7486-6.3476 8.1517-7.4836 10.758-1.6704 2.6059 5.8131-10.758 1.6704-10.758 1.6704z"
         clip-path="url(#n)"
         fill="#a4a4a4"
         fill-rule="evenodd"
         filter="url(#i)"
         opacity=".483"
         id="path61" />
    </pattern>
  </defs>
  <g
     transform="matrix(0.07339392,0,0,0.06366907,-1.1967939,-6.5138757)"
     id="g76">
    <path
       d="m 102.83,115.92 c -36.586,0 -66.246,7.4154 -66.246,16.562 l 0.11725,0.94871 c 1.42e-4,6.8e-4 -1.55e-4,0.001 0,0.002 1.9736,8.7036 30.821,15.609 66.129,15.609 35.314,9e-5 64.166,-6.9076 66.131,-15.613 l 0.11507,-0.94653 c -5e-5,-9.1466 -29.66,-16.562 -66.246,-16.562 z M 52.705,263.81 c 0.17211,0.72627 0.42854,1.4416 0.76417,2.1449 -0.33574,-0.70321 -0.59193,-1.4186 -0.76417,-2.1449 z m 0.76417,2.147 c 0.50408,1.0558 1.1875,2.0826 2.0363,3.0762 -0.84838,-0.99307 -1.5323,-2.021 -2.0363,-3.0762 z m 2.9394,4.0575 c 0.6386,0.64716 1.3481,1.2777 2.1253,1.8909 -0.7767,-0.6128 -1.4871,-1.2441 -2.1253,-1.8909 z m 92.981,0.002 c -0.63778,0.64603 -1.3473,1.2766 -2.1232,1.8887 0.77674,-0.61281 1.4849,-1.2419 2.1232,-1.8887 z m -89.64,2.794 c 0.84239,0.59411 1.75,1.1712 2.718,1.7259 -0.96851,-0.55508 -1.8753,-1.1314 -2.718,-1.7259 z m 4.216,2.5422 c 1.5424,0.801 3.2163,1.5532 5.0083,2.2513 -1.792,-0.69808 -3.466,-1.4503 -5.0083,-2.2513 z m 5.0083,2.2513 c 1.1947,0.46535 2.4411,0.90699 3.7362,1.3221 -1.2951,-0.41507 -2.5415,-0.85671 -3.7362,-1.3221 z m 72.861,-2.2513 c -1.5424,0.801 -3.2184,1.5532 -5.0105,2.2513 1.7921,-0.69804 3.4681,-1.4503 5.0105,-2.2513 z m -5.0105,2.2513 c -1.1947,0.46539 -2.441,0.90695 -3.7362,1.3221 1.2951,-0.41507 2.5415,-0.85675 3.7362,-1.3221 z"
       color="#000000"
       fill="url(#e)"
       opacity="0.542"
       id="path66"
       style="fill:url(#e)" />
    <path
       d="M 36.58,132.48 52.441,261.6 c -2.2e-5,11.943 22.589,21.625 50.455,21.625 27.866,0 50.457,-9.682 50.457,-21.625 l 15.72,-129.12 c -0.003,9.146 -29.662,16.56 -66.246,16.56 -36.584,8e-5 -66.243,-7.4138 -66.246,-16.56 z m 132.49,0 c 0,-0.35891 -0.062,-0.71487 -0.15197,-1.0681 0.0966,0.35553 0.14729,0.71175 0.15197,1.0681 z"
       color="#000000"
       fill="url(#f)"
       opacity="0.915"
       id="path68"
       style="fill:url(#f)" />
    <rect
       x="36.580002"
       y="237.81"
       width="132.49001"
       height="45.416"
       fill="url(#b)"
       id="rect70" />
    <rect
       x="85.177002"
       y="249.67"
       width="80.781998"
       height="33.561001"
       fill="url(#c)"
       id="rect72" />
    <path
       transform="matrix(4.201,0,0,4.201,-138.6,-915.19)"
       d="m 44.938,285.23 c 3.4963,-11.623 -4.5155,-41.02 -4.1589,-37.78 z"
       clip-path="url(#l)"
       fill="#9d9da9"
       fill-rule="evenodd"
       filter="url(#g)"
       opacity="0.064"
       id="path74" />
  </g>
</svg>
