<?xml version="1.0" encoding="UTF-8" standalone="no"?>
<svg
   xmlns:dc="http://purl.org/dc/elements/1.1/"
   xmlns:cc="http://creativecommons.org/ns#"
   xmlns:rdf="http://www.w3.org/1999/02/22-rdf-syntax-ns#"
   xmlns:svg="http://www.w3.org/2000/svg"
   xmlns="http://www.w3.org/2000/svg"
   xmlns:sodipodi="http://sodipodi.sourceforge.net/DTD/sodipodi-0.dtd"
   xmlns:inkscape="http://www.inkscape.org/namespaces/inkscape"
   width="64"
   height="64"
   version="1.1"
   viewBox="0 0 16.933 16.933"
   id="svg129"
   sodipodi:docname="accessories-dictionary.svg"
   inkscape:version="1.0.2 (e86c870879, 2021-01-15)">
  <metadata
     id="metadata133">
    <rdf:RDF>
      <cc:Work
         rdf:about="">
        <dc:format>image/svg+xml</dc:format>
        <dc:type
           rdf:resource="http://purl.org/dc/dcmitype/StillImage" />
      </cc:Work>
    </rdf:RDF>
  </metadata>
  <sodipodi:namedview
     pagecolor="#ffffff"
     bordercolor="#666666"
     borderopacity="1"
     objecttolerance="10"
     gridtolerance="10"
     guidetolerance="10"
     inkscape:pageopacity="0"
     inkscape:pageshadow="2"
     inkscape:window-width="2160"
     inkscape:window-height="1307"
     id="namedview131"
     showgrid="false"
     inkscape:zoom="5.7421875"
     inkscape:cx="30.201223"
     inkscape:cy="33.160789"
     inkscape:window-x="0"
     inkscape:window-y="0"
     inkscape:window-maximized="1"
     inkscape:current-layer="svg129"
     inkscape:document-rotation="0" />
  <defs
     id="defs51">
    <linearGradient
       id="b"
       x1="399.57"
       x2="399.57"
       y1="545.8"
       y2="517.8"
       gradientTransform="matrix(.56696 0 0 .56696 -218.64 -293.02)"
       gradientUnits="userSpaceOnUse">
      <stop
         stop-color="#3889e9"
         offset="0"
         id="stop9" />
      <stop
         stop-color="#5ea5fb"
         offset="1"
         id="stop11" />
    </linearGradient>
    <linearGradient
       id="linearGradient910"
       x1="7.9373"
       x2="7.9373"
       y1="15.081"
       y2="1.852"
       gradientTransform="translate(-.0038746 .0082548)"
       gradientUnits="userSpaceOnUse">
      <stop
         stop-color="#932625"
         offset="0"
         id="stop19" />
      <stop
         stop-color="#dd4c4b"
         offset="1"
         id="stop21" />
    </linearGradient>
  </defs>
  <g
     shape-rendering="auto"
     id="g63">
    <path
       d="m4.3693 0.52916c-2.1142 0-3.8402 1.7835-3.8402 3.9682v8.4675c0 2.1846 1.726 3.9682 3.8402 3.9682h8.1944c2.1142 0 3.8402-1.7835 3.8402-3.9682v-8.4675c0-2.1846-1.726-3.9682-3.8402-3.9682zm0.25704 0.52089h7.6808c1.8443 0 3.3291 1.5342 3.3291 3.44v7.9368c0 1.9058-1.4847 3.44-3.3291 3.44h-7.6808c-1.8443 0-3.3291-1.5342-3.3291-3.44v-7.9368c0-1.9058 1.4847-3.44 3.3291-3.44z"
       color="#000000"
       color-rendering="auto"
       dominant-baseline="auto"
       image-rendering="auto"
       opacity=".01"
       solid-color="#000000"
       stop-color="#000000"
       style="font-feature-settings:normal;font-variant-alternates:normal;font-variant-caps:normal;font-variant-east-asian:normal;font-variant-ligatures:normal;font-variant-numeric:normal;font-variant-position:normal;font-variation-settings:normal;inline-size:0;isolation:auto;mix-blend-mode:normal;shape-margin:0;shape-padding:0;text-decoration-color:#000000;text-decoration-line:none;text-decoration-style:solid;text-indent:0;text-orientation:mixed;text-transform:none;white-space:normal"
       id="path53" />
    <path
       d="m4.3587 0.79373c-1.9668 0-3.5639 1.6528-3.5639 3.6876v8.4996c0 2.0348 1.5971 3.6876 3.5639 3.6876h8.2162c1.9668 0 3.5644-1.6528 3.5644-3.6876v-8.4996c0-2.0348-1.5976-3.6876-3.5644-3.6876zm0.27222 0.25631h7.6718c1.8422 0 3.3251 1.5342 3.3251 3.44v7.9368c0 1.9058-1.483 3.44-3.3251 3.44h-7.6718c-1.8422 0-3.3251-1.5342-3.3251-3.44v-7.9368c0-1.9058 1.483-3.44 3.3251-3.44z"
       color="#000000"
       color-rendering="auto"
       dominant-baseline="auto"
       image-rendering="auto"
       opacity=".01"
       solid-color="#000000"
       stop-color="#000000"
       style="font-feature-settings:normal;font-variant-alternates:normal;font-variant-caps:normal;font-variant-east-asian:normal;font-variant-ligatures:normal;font-variant-numeric:normal;font-variant-position:normal;font-variation-settings:normal;inline-size:0;isolation:auto;mix-blend-mode:normal;shape-margin:0;shape-padding:0;text-decoration-color:#000000;text-decoration-line:none;text-decoration-style:solid;text-indent:0;text-orientation:mixed;text-transform:none;white-space:normal"
       id="path55" />
    <path
       d="m4.3097 1.0583c-1.8657 0-3.3751 1.5383-3.3751 3.439v8.4675c0 1.9007 1.57 3.439 3.4357 3.439h8.1996c1.8657 0 3.4274-1.5383 3.4274-3.439v-8.4675c0-1.9007-1.51-3.439-3.3756-3.439h-0.09688c1.794 0.086515 3.2138 1.5819 3.2138 3.4318v7.9368c0 1.9058-1.5059 3.44-3.3766 3.44h-7.7905c-1.8707 0-3.3766-1.5342-3.3766-3.44v-7.9368c0-1.8498 1.4199-3.3451 3.2138-3.4318z"
       color="#000000"
       color-rendering="auto"
       dominant-baseline="auto"
       image-rendering="auto"
       opacity=".03"
       solid-color="#000000"
       stop-color="#000000"
       style="font-feature-settings:normal;font-variant-alternates:normal;font-variant-caps:normal;font-variant-east-asian:normal;font-variant-ligatures:normal;font-variant-numeric:normal;font-variant-position:normal;font-variation-settings:normal;inline-size:0;isolation:auto;mix-blend-mode:normal;shape-margin:0;shape-padding:0;text-decoration-color:#000000;text-decoration-line:none;text-decoration-style:solid;text-indent:0;text-orientation:mixed;text-transform:none;white-space:normal"
       id="path57" />
    <path
       transform="scale(.26458)"
       d="m4 46.969v2.0312c0 6.6479 5.8957 12 12.544 12h30.961c6.6479 0 12.495-5.3521 12.495-12v-1.9922c-0.02117 7.1849-5.81 12.963-13 12.963h-29.998c-7.2032 0-13.002-5.7987-13.002-13.002z"
       color="#000000"
       color-rendering="auto"
       dominant-baseline="auto"
       image-rendering="auto"
       opacity=".03"
       solid-color="#000000"
       stop-color="#000000"
       style="font-feature-settings:normal;font-variant-alternates:normal;font-variant-caps:normal;font-variant-east-asian:normal;font-variant-ligatures:normal;font-variant-numeric:normal;font-variant-position:normal;font-variation-settings:normal;inline-size:0;isolation:auto;mix-blend-mode:normal;shape-margin:0;shape-padding:0;text-decoration-color:#000000;text-decoration-line:none;text-decoration-style:solid;text-indent:0;text-orientation:mixed;text-transform:none;white-space:normal"
       id="path59" />
    <path
       d="m1.0583 11.906v0.59234c0 1.9386 1.5729 3.4993 3.3318 3.4993h8.1603c1.7589 0 3.3243-1.5608 3.3243-3.4993v-0.58095c-0.0056 2.0952-1.5372 3.7801-3.4395 3.7801h-7.9368c-1.9058 0-3.44-1.691-3.44-3.7915z"
       color="#000000"
       color-rendering="auto"
       dominant-baseline="auto"
       image-rendering="auto"
       opacity=".05"
       solid-color="#000000"
       stop-color="#000000"
       style="font-feature-settings:normal;font-variant-alternates:normal;font-variant-caps:normal;font-variant-east-asian:normal;font-variant-ligatures:normal;font-variant-numeric:normal;font-variant-position:normal;font-variation-settings:normal;inline-size:0;isolation:auto;mix-blend-mode:normal;shape-margin:0;shape-padding:0;text-decoration-color:#000000;text-decoration-line:none;text-decoration-style:solid;text-indent:0;text-orientation:mixed;text-transform:none;white-space:normal"
       id="path61" />
  </g>
  <path
     d="m4.4945 1.0583c-1.9058 0-3.44 1.5342-3.44 3.44v7.9368c0 1.9058 1.5342 3.44 3.44 3.44h7.9368c1.9058 0 3.44-1.5342 3.44-3.44v-7.9368c0-1.9058-1.5342-3.44-3.44-3.44z"
     fill="url(#linearGradient910)"
     id="path65" />
  <circle
     cx="8.4718"
     cy="8.4781"
     r="7.9376"
     fill-opacity="0"
     stroke-width=".41578"
     id="circle71" />
  <circle
     cx="8.4718"
     cy="8.4781"
     r="0"
     fill="url(#b)"
     stroke-width=".41578"
     id="circle73" />
  <g
     stroke-width=".26458"
     id="g89"
     style="fill-opacity:1;fill:#ffffff">
    <rect
       x="9.5248"
       y="3.7041"
       width="4.4978"
       height=".13229"
       rx="0"
       ry="0"
       opacity=".1"
       id="rect77"
       style="fill-opacity:1;fill:#ffffff" />
    <rect
       x="9.5248"
       y="4.7624"
       width="4.4978"
       height=".13229"
       rx="0"
       ry="0"
       opacity=".1"
       id="rect79"
       style="fill-opacity:1;fill:#ffffff" />
    <rect
       x="9.5248"
       y="5.8207"
       width="4.4978"
       height=".13229"
       rx="0"
       ry="0"
       opacity=".1"
       id="rect81"
       style="fill-opacity:1;fill:#ffffff" />
    <rect
       x="9.5248"
       y="6.879"
       width="4.4978"
       height=".13229"
       rx="0"
       ry="0"
       opacity=".1"
       id="rect83"
       style="fill-opacity:1;fill:#ffffff" />
    <rect
       x="9.5248"
       y="7.9373"
       width="4.4978"
       height=".13229"
       rx="0"
       ry="0"
       opacity=".1"
       id="rect85"
       style="fill-opacity:1;fill:#ffffff" />
    <rect
       x="9.5248"
       y="8.9957"
       width="4.4978"
       height=".13229"
       rx="0"
       ry="0"
       opacity=".1"
       id="rect87"
       style="fill-opacity:1;fill:#ffffff" />
  </g>
  <path
     d="M 4.2333,1.0318547 H 7.4082 V 10.626755 L 5.8207,9.3038547 4.2332,10.626755 Z"
     fill="#ffffff"
     stroke-linecap="round"
     stroke-linejoin="round"
     stroke-width="0.39687"
     id="path123"
     style="opacity:0.8;fill:#ffffff;fill-opacity:1" />
  <text
     x="9.5248127"
     y="13.98414"
     fill="#ffffff"
     font-family="sans-serif"
     font-size="3.976px"
     font-weight="400"
     letter-spacing="0"
     opacity="0.5"
     stroke-width="0.099"
     word-spacing="0"
     style="line-height:1.25;opacity:0.8;"
     id="text19"><tspan
       x="9.5248127"
       y="13.98414"
       id="tspan17">Aa</tspan></text>
</svg>
