<svg width="64" height="64" version="1.1" viewBox="0 0 16.933 16.933" xmlns="http://www.w3.org/2000/svg">
 <defs>
  <linearGradient id="linearGradient889" x1="8.1105" x2="8.1105" y1="14.648" y2="2.624" gradientUnits="userSpaceOnUse">
   <stop stop-color="#ce1921" offset="0"/>
   <stop stop-color="#f44" offset="1"/>
  </linearGradient>
 </defs>
 <g shape-rendering="auto">
  <path d="m4.3693 0.52916c-2.1142 0-3.8402 1.7835-3.8402 3.9682v8.4675c0 2.1846 1.726 3.9682 3.8402 3.9682h8.1944c2.1142 0 3.8402-1.7835 3.8402-3.9682v-8.4675c0-2.1846-1.726-3.9682-3.8402-3.9682zm0.25704 0.52089h7.6808c1.8443 0 3.3291 1.5342 3.3291 3.44v7.9368c0 1.9058-1.4847 3.44-3.3291 3.44h-7.6808c-1.8443 0-3.3291-1.5342-3.3291-3.44v-7.9368c0-1.9058 1.4847-3.44 3.3291-3.44z" color="#000000" color-rendering="auto" dominant-baseline="auto" image-rendering="auto" opacity=".01" solid-color="#000000" stop-color="#000000" style="font-feature-settings:normal;font-variant-alternates:normal;font-variant-caps:normal;font-variant-east-asian:normal;font-variant-ligatures:normal;font-variant-numeric:normal;font-variant-position:normal;font-variation-settings:normal;inline-size:0;isolation:auto;mix-blend-mode:normal;shape-margin:0;shape-padding:0;text-decoration-color:#000000;text-decoration-line:none;text-decoration-style:solid;text-indent:0;text-orientation:mixed;text-transform:none;white-space:normal"/>
  <path d="m4.3587 0.79373c-1.9668 0-3.5639 1.6528-3.5639 3.6876v8.4996c0 2.0348 1.5971 3.6876 3.5639 3.6876h8.2162c1.9668 0 3.5644-1.6528 3.5644-3.6876v-8.4996c0-2.0348-1.5976-3.6876-3.5644-3.6876zm0.27222 0.25631h7.6718c1.8422 0 3.3251 1.5342 3.3251 3.44v7.9368c0 1.9058-1.483 3.44-3.3251 3.44h-7.6718c-1.8422 0-3.3251-1.5342-3.3251-3.44v-7.9368c0-1.9058 1.483-3.44 3.3251-3.44z" color="#000000" color-rendering="auto" dominant-baseline="auto" image-rendering="auto" opacity=".01" solid-color="#000000" stop-color="#000000" style="font-feature-settings:normal;font-variant-alternates:normal;font-variant-caps:normal;font-variant-east-asian:normal;font-variant-ligatures:normal;font-variant-numeric:normal;font-variant-position:normal;font-variation-settings:normal;inline-size:0;isolation:auto;mix-blend-mode:normal;shape-margin:0;shape-padding:0;text-decoration-color:#000000;text-decoration-line:none;text-decoration-style:solid;text-indent:0;text-orientation:mixed;text-transform:none;white-space:normal"/>
  <path d="m4.3097 1.0583c-1.8657 0-3.3751 1.5383-3.3751 3.439v8.4675c0 1.9007 1.57 3.439 3.4357 3.439h8.1996c1.8657 0 3.4274-1.5383 3.4274-3.439v-8.4675c0-1.9007-1.51-3.439-3.3756-3.439h-0.09688c1.794 0.086515 3.2138 1.5819 3.2138 3.4318v7.9368c0 1.9058-1.5059 3.44-3.3766 3.44h-7.7905c-1.8707 0-3.3766-1.5342-3.3766-3.44v-7.9368c0-1.8498 1.4199-3.3451 3.2138-3.4318z" color="#000000" color-rendering="auto" dominant-baseline="auto" image-rendering="auto" opacity=".03" solid-color="#000000" stop-color="#000000" style="font-feature-settings:normal;font-variant-alternates:normal;font-variant-caps:normal;font-variant-east-asian:normal;font-variant-ligatures:normal;font-variant-numeric:normal;font-variant-position:normal;font-variation-settings:normal;inline-size:0;isolation:auto;mix-blend-mode:normal;shape-margin:0;shape-padding:0;text-decoration-color:#000000;text-decoration-line:none;text-decoration-style:solid;text-indent:0;text-orientation:mixed;text-transform:none;white-space:normal"/>
  <path transform="scale(.26458)" d="m4 46.969v2.0312c0 6.6479 5.8957 12 12.544 12h30.961c6.6479 0 12.495-5.3521 12.495-12v-1.9922c-0.02117 7.1849-5.81 12.963-13 12.963h-29.998c-7.2032 0-13.002-5.7987-13.002-13.002z" color="#000000" color-rendering="auto" dominant-baseline="auto" image-rendering="auto" opacity=".03" solid-color="#000000" stop-color="#000000" style="font-feature-settings:normal;font-variant-alternates:normal;font-variant-caps:normal;font-variant-east-asian:normal;font-variant-ligatures:normal;font-variant-numeric:normal;font-variant-position:normal;font-variation-settings:normal;inline-size:0;isolation:auto;mix-blend-mode:normal;shape-margin:0;shape-padding:0;text-decoration-color:#000000;text-decoration-line:none;text-decoration-style:solid;text-indent:0;text-orientation:mixed;text-transform:none;white-space:normal"/>
  <path d="m1.0583 11.906v0.59234c0 1.9386 1.5729 3.4993 3.3318 3.4993h8.1603c1.7589 0 3.3243-1.5608 3.3243-3.4993v-0.58095c-0.0056 2.0952-1.5372 3.7801-3.4395 3.7801h-7.9368c-1.9058 0-3.44-1.691-3.44-3.7915z" color="#000000" color-rendering="auto" dominant-baseline="auto" image-rendering="auto" opacity=".05" solid-color="#000000" stop-color="#000000" style="font-feature-settings:normal;font-variant-alternates:normal;font-variant-caps:normal;font-variant-east-asian:normal;font-variant-ligatures:normal;font-variant-numeric:normal;font-variant-position:normal;font-variation-settings:normal;inline-size:0;isolation:auto;mix-blend-mode:normal;shape-margin:0;shape-padding:0;text-decoration-color:#000000;text-decoration-line:none;text-decoration-style:solid;text-indent:0;text-orientation:mixed;text-transform:none;white-space:normal"/>
 </g>
 <rect x="1.0583" y="1.05" width="14.817" height="14.817" rx="3.4401" ry="3.4401" fill="url(#linearGradient889)"/>
 <path transform="scale(.26458)" d="m17.002 3.9688c-7.2032 0-13.002 5.7987-13.002 13.002v1.0312c0-7.2032 5.7987-13.002 13.002-13.002h29.998c7.2032 0 13.002 5.7987 13.002 13.002v-1.0312c0-7.2032-5.7987-13.002-13.002-13.002h-29.998z" fill="#fff" opacity=".25" stroke-width="3.7796"/>
 <path d="m4.4983 15.875c-1.9058 0-3.44-1.5342-3.44-3.44v-0.27285c0 1.9058 1.5342 3.44 3.44 3.44h7.9368c1.9058 0 3.44-1.5342 3.44-3.44v0.27285c0 1.9058-1.5342 3.44-3.44 3.44z" opacity=".25"/>
 <path d="m8.1785 3.4418c-0.10085-0.016137-0.20043 0.050754-0.30645 0.23142-0.16963 0.28771-0.24777 1.0933-0.10799 1.8682 0.047221 0.26482 0.1481 0.64999 0.28472 1.0701-0.10813 0.39356-0.22925 0.81088-0.36117 1.2251-0.52112 1.6366-1.6404 3.3514-2.2307 4.2742-0.37319 0.58083-1.2704 1.2634-1.3464 1.1304-0.074639-0.133 0.17815-0.43114 0.49298-0.90883 0.31348-0.47499 1.1164-0.96774 1.1164-0.96774s-0.34289-0.01336-1.2209 0.76018c-0.87802 0.77759-0.61222 1.1617-0.40321 1.2798 0.20763 0.12077 0.7908 0.58181 2.7722-2.8583 0.72348-1.2567 1.1435-2.3995 1.3879-3.3472 0.25026 0.64833 0.57326 1.3034 0.93198 1.716 0.20914 0.24187 0.48393 0.47229 0.78894 0.68586-0.24017 0.04375-0.51609 0.096962-0.88991 0.1655-1.3689 0.24826-2.0502 0.78671-2.0653 0.79875 0.01102-0.0035 1.6028-0.50701 3.2939-0.74125 0.66514 0.40468 1.4292 0.71598 2.061 0.84223 0.98574 0.19943 1.2544-0.16193 1.2862-0.21038-0.03842 0.0318-0.16651 0.09141-0.57365 0.0568-0.32712-0.02698-1.2215-0.27989-2.1277-0.76579 1.8764-0.17339 2.5249 0.017265 2.6921 0.15077 0.16692 0.13435 0.16691 0.28261 0.16691 0.28261s0.21477-0.20762 0.07363-0.41797c-0.11942-0.21849-0.30288-0.40026-1.8079-0.35414-0.74622 0.022141-1.1481 0.047778-1.5323 0.098874-0.45592-0.28363-0.89507-0.62181-1.2412-1.0316-0.46404-0.54928-0.74773-1.1815-0.93271-1.8037 0.27719-1.3348 0.19096-2.1611 0.19005-2.1698 0 0-0.1408 0.63968-0.35765 1.4832-0.12441-0.6376-0.16717-1.2254-0.20266-1.6431-0.075999-0.95809 0.35268-0.69228 0.41374-0.57014 0.09771 0.078709 0.14517 0.34082 0.14517 0.34082s-0.033781-0.39133-0.20477-0.55962c-0.063611-0.062598-0.12463-0.10181-0.18513-0.1115zm-1.1571 7.1236c-3.81e-5 1.3e-5 -0.00419 0.0014-0.00419 0.0014l-0.0014 0.0028s0.00545-0.0041 0.00557-0.0042z" fill="#fff" stroke-width="1.2666"/>
</svg>
