<svg width="64" height="64" version="1.1" viewBox="0 0 16.933 16.933" xmlns="http://www.w3.org/2000/svg">
 <defs>
  <linearGradient id="linearGradient957" x1="6.87" x2="6.87" y1="15.131" y2="1.8216" gradientUnits="userSpaceOnUse">
   <stop stop-color="#3b3838" offset="0"/>
   <stop stop-color="#535358" offset="1"/>
  </linearGradient>
 </defs>
 <rect x="1.0583" y="1.05" width="14.817" height="14.817" rx="3.4401" ry="3.4401" fill="url(#linearGradient957)"/>
 <path d="m7.4232 5.2387-0.12735 0.062412c-0.16133 0.079274-0.2354 0.16461-0.36942 0.42429-0.11677 0.22623-0.21871 0.34379-0.35683 0.41228-0.08242 0.040889-0.15233 0.044895-0.94186 0.055479-0.82879 0.011114-0.85549 0.013052-0.96455 0.063042-0.14639 0.067102-0.27294 0.18995-0.33917 0.32972l-0.052958 0.11222-6.308e-4 2.2361c-2.428e-4 2.4784-0.00743 2.35 0.14752 2.5311 0.04276 0.04999 0.13982 0.12224 0.21561 0.16013l0.13743 0.06873h7.3909l0.13806-0.06934c0.08318-0.0416 0.16904-0.10693 0.21624-0.16454 0.1543-0.18842 0.1465-0.05022 0.14626-2.5255l-6.31e-4 -2.2368-0.052962-0.11222c-0.066216-0.13971-0.19277-0.26262-0.33916-0.32973-0.10905-0.049985-0.13577-0.051925-0.96456-0.063041-0.95142-0.012763-0.9428-0.011562-1.1045-0.17337-0.047864-0.047897-0.13517-0.18011-0.19417-0.29441-0.13402-0.25973-0.20809-0.34498-0.36942-0.42429l-0.12735-0.062412h-2.0867zm0.94564 1.3163c0.19156-0.00797 0.38504 0.00125 0.52642 0.02963 0.4128 0.082875 0.80316 0.28746 1.1127 0.58251 0.31552 0.30074 0.52503 0.65056 0.63926 1.0692 0.04542 0.16637 0.05187 0.23969 0.05043 0.57241-0.0013 0.34711-0.0071 0.39999-0.06179 0.57935-0.108 0.35473-0.24957 0.61466-0.48099 0.88573-0.262 0.30686-0.72486 0.58832-1.1385 0.69219-0.25313 0.06356-0.63526 0.08752-0.85297 0.05358-0.72211-0.11255-1.3594-0.55898-1.6858-1.1808-0.19766-0.37662-0.26559-0.68713-0.24902-1.1398 0.016665-0.45515 0.11876-0.77534 0.36503-1.1474 0.29075-0.43923 0.73774-0.76656 1.2615-0.92356 0.1327-0.039779 0.32224-0.065165 0.5138-0.073128zm0.21498 0.62034c-0.095902-0.00587-0.1939-0.00367-0.29315 0.00756-0.65001 0.073558-1.1705 0.50992-1.3768 1.1543-0.064268 0.20064-0.078199 0.56651-0.030255 0.78803 0.075332 0.34799 0.28909 0.70214 0.5617 0.92863 0.39798 0.33059 0.98185 0.45027 1.4859 0.30449 0.2503-0.07238 0.47451-0.20887 0.68212-0.41483 0.21453-0.21282 0.32868-0.39592 0.41922-0.67076 0.04825-0.14645 0.0569-0.21566 0.05863-0.46399 0.0015-0.24725-0.0059-0.31761-0.05043-0.45957-0.21484-0.6846-0.78561-1.1327-1.4569-1.1738z" fill="#f8f8f8" stroke-width=".9612"/>
</svg>
