<?xml version="1.0" encoding="UTF-8" standalone="no"?>
<svg
   xmlns:dc="http://purl.org/dc/elements/1.1/"
   xmlns:cc="http://creativecommons.org/ns#"
   xmlns:rdf="http://www.w3.org/1999/02/22-rdf-syntax-ns#"
   xmlns:svg="http://www.w3.org/2000/svg"
   xmlns="http://www.w3.org/2000/svg"
   xmlns:xlink="http://www.w3.org/1999/xlink"
   xmlns:sodipodi="http://sodipodi.sourceforge.net/DTD/sodipodi-0.dtd"
   xmlns:inkscape="http://www.inkscape.org/namespaces/inkscape"
   width="64"
   height="64"
   version="1.1"
   viewBox="0 0 16.933 16.933"
   id="svg90"
   sodipodi:docname="addressbook.svg"
   inkscape:version="1.0.2 (e86c870879, 2021-01-15)">
  <metadata
     id="metadata94">
    <rdf:RDF>
      <cc:Work
         rdf:about="">
        <dc:format>image/svg+xml</dc:format>
        <dc:type
           rdf:resource="http://purl.org/dc/dcmitype/StillImage" />
      </cc:Work>
    </rdf:RDF>
  </metadata>
  <sodipodi:namedview
     pagecolor="#ffffff"
     bordercolor="#666666"
     borderopacity="1"
     objecttolerance="10"
     gridtolerance="10"
     guidetolerance="10"
     inkscape:pageopacity="0"
     inkscape:pageshadow="2"
     inkscape:window-width="2160"
     inkscape:window-height="1307"
     id="namedview92"
     showgrid="false"
     inkscape:zoom="11.484375"
     inkscape:cx="32"
     inkscape:cy="32"
     inkscape:window-x="0"
     inkscape:window-y="0"
     inkscape:window-maximized="1"
     inkscape:current-layer="svg90" />
  <defs
     id="defs32">
    <linearGradient
       id="linearGradient1103">
      <stop
         stop-opacity=".75"
         offset="0"
         id="stop2" />
      <stop
         stop-opacity=".8"
         offset=".7"
         id="stop4" />
      <stop
         stop-opacity=".5"
         offset="1"
         id="stop6" />
    </linearGradient>
    <linearGradient
       id="linearGradient928"
       x1="2.6458"
       x2="14.189"
       y1="3.2566"
       y2="14.287"
       gradientUnits="userSpaceOnUse">
      <stop
         stop-color="#6b99ca"
         offset="0"
         id="stop9" />
      <stop
         stop-color="#4676b0"
         offset="1"
         id="stop11" />
    </linearGradient>
    <linearGradient
       id="linearGradient1033"
       x1="14.552"
       x2="14.552"
       y1="7.4082"
       y2="6.0853"
       gradientUnits="userSpaceOnUse"
       gradientTransform="translate(6.3542621,-4.3725163)">
      <stop
         stop-color="#5ac8fa"
         offset="0"
         id="stop14" />
      <stop
         stop-color="#3e7790"
         offset="1"
         id="stop16" />
    </linearGradient>
    <linearGradient
       id="linearGradient1041"
       x1="14.816"
       x2="14.816"
       y1="10.054"
       y2="8.7311"
       gradientUnits="userSpaceOnUse">
      <stop
         stop-color="#ff9500"
         offset="0"
         id="stop19" />
      <stop
         stop-color="#915400"
         offset="1"
         id="stop21" />
    </linearGradient>
    <linearGradient
       id="linearGradient1049"
       x1="14.287"
       x2="14.287"
       y1="12.7"
       y2="11.377"
       gradientUnits="userSpaceOnUse">
      <stop
         stop-color="#4cd964"
         offset="0"
         id="stop24" />
      <stop
         stop-color="#2c7e3a"
         offset="1"
         id="stop26" />
    </linearGradient>
    <radialGradient
       id="radialGradient1105"
       cx="2.1166"
       cy="6.0853"
       r=".52916"
       gradientUnits="userSpaceOnUse"
       xlink:href="#linearGradient1103" />
    <radialGradient
       id="radialGradient1111"
       cx="2.1166"
       cy="6.0853"
       r=".52916"
       gradientTransform="translate(0 3.4395)"
       gradientUnits="userSpaceOnUse"
       xlink:href="#linearGradient1103" />
    <radialGradient
       id="radialGradient1115"
       cx="2.1166"
       cy="6.0853"
       r=".52916"
       gradientTransform="translate(0 6.879)"
       gradientUnits="userSpaceOnUse"
       xlink:href="#linearGradient1103" />
  </defs>
  <g
     shape-rendering="auto"
     id="g44">
    <path
       d="m4.3693 0.52916c-2.1142 0-3.8402 1.7835-3.8402 3.9682v8.4675c0 2.1846 1.726 3.9682 3.8402 3.9682h8.1944c2.1142 0 3.8402-1.7835 3.8402-3.9682v-8.4675c0-2.1846-1.726-3.9682-3.8402-3.9682zm0.25704 0.52089h7.6808c1.8443 0 3.3291 1.5342 3.3291 3.44v7.9368c0 1.9058-1.4847 3.44-3.3291 3.44h-7.6808c-1.8443 0-3.3291-1.5342-3.3291-3.44v-7.9368c0-1.9058 1.4847-3.44 3.3291-3.44z"
       color="#000000"
       color-rendering="auto"
       dominant-baseline="auto"
       image-rendering="auto"
       opacity=".01"
       solid-color="#000000"
       stop-color="#000000"
       style="font-feature-settings:normal;font-variant-alternates:normal;font-variant-caps:normal;font-variant-east-asian:normal;font-variant-ligatures:normal;font-variant-numeric:normal;font-variant-position:normal;font-variation-settings:normal;inline-size:0;isolation:auto;mix-blend-mode:normal;shape-margin:0;shape-padding:0;text-decoration-color:#000000;text-decoration-line:none;text-decoration-style:solid;text-indent:0;text-orientation:mixed;text-transform:none;white-space:normal"
       id="path34" />
    <path
       d="m4.3587 0.79373c-1.9668 0-3.5639 1.6528-3.5639 3.6876v8.4996c0 2.0348 1.5971 3.6876 3.5639 3.6876h8.2162c1.9668 0 3.5644-1.6528 3.5644-3.6876v-8.4996c0-2.0348-1.5976-3.6876-3.5644-3.6876zm0.27222 0.25631h7.6718c1.8422 0 3.3251 1.5342 3.3251 3.44v7.9368c0 1.9058-1.483 3.44-3.3251 3.44h-7.6718c-1.8422 0-3.3251-1.5342-3.3251-3.44v-7.9368c0-1.9058 1.483-3.44 3.3251-3.44z"
       color="#000000"
       color-rendering="auto"
       dominant-baseline="auto"
       image-rendering="auto"
       opacity=".01"
       solid-color="#000000"
       stop-color="#000000"
       style="font-feature-settings:normal;font-variant-alternates:normal;font-variant-caps:normal;font-variant-east-asian:normal;font-variant-ligatures:normal;font-variant-numeric:normal;font-variant-position:normal;font-variation-settings:normal;inline-size:0;isolation:auto;mix-blend-mode:normal;shape-margin:0;shape-padding:0;text-decoration-color:#000000;text-decoration-line:none;text-decoration-style:solid;text-indent:0;text-orientation:mixed;text-transform:none;white-space:normal"
       id="path36" />
    <path
       d="m4.3097 1.0583c-1.8657 0-3.3751 1.5383-3.3751 3.439v8.4675c0 1.9007 1.57 3.439 3.4357 3.439h8.1996c1.8657 0 3.4274-1.5383 3.4274-3.439v-8.4675c0-1.9007-1.51-3.439-3.3756-3.439h-0.09688c1.794 0.086515 3.2138 1.5819 3.2138 3.4318v7.9368c0 1.9058-1.5059 3.44-3.3766 3.44h-7.7905c-1.8707 0-3.3766-1.5342-3.3766-3.44v-7.9368c0-1.8498 1.4199-3.3451 3.2138-3.4318z"
       color="#000000"
       color-rendering="auto"
       dominant-baseline="auto"
       image-rendering="auto"
       opacity=".03"
       solid-color="#000000"
       stop-color="#000000"
       style="font-feature-settings:normal;font-variant-alternates:normal;font-variant-caps:normal;font-variant-east-asian:normal;font-variant-ligatures:normal;font-variant-numeric:normal;font-variant-position:normal;font-variation-settings:normal;inline-size:0;isolation:auto;mix-blend-mode:normal;shape-margin:0;shape-padding:0;text-decoration-color:#000000;text-decoration-line:none;text-decoration-style:solid;text-indent:0;text-orientation:mixed;text-transform:none;white-space:normal"
       id="path38" />
    <path
       transform="scale(.26458)"
       d="m4 46.969v2.0312c0 6.6479 5.8957 12 12.544 12h30.961c6.6479 0 12.495-5.3521 12.495-12v-1.9922c-0.02117 7.1849-5.81 12.963-13 12.963h-29.998c-7.2032 0-13.002-5.7987-13.002-13.002z"
       color="#000000"
       color-rendering="auto"
       dominant-baseline="auto"
       image-rendering="auto"
       opacity=".03"
       solid-color="#000000"
       stop-color="#000000"
       style="font-feature-settings:normal;font-variant-alternates:normal;font-variant-caps:normal;font-variant-east-asian:normal;font-variant-ligatures:normal;font-variant-numeric:normal;font-variant-position:normal;font-variation-settings:normal;inline-size:0;isolation:auto;mix-blend-mode:normal;shape-margin:0;shape-padding:0;text-decoration-color:#000000;text-decoration-line:none;text-decoration-style:solid;text-indent:0;text-orientation:mixed;text-transform:none;white-space:normal"
       id="path40" />
    <path
       d="m1.0583 11.906v0.59234c0 1.9386 1.5729 3.4993 3.3318 3.4993h8.1603c1.7589 0 3.3243-1.5608 3.3243-3.4993v-0.58095c-0.0056 2.0952-1.5372 3.7801-3.4395 3.7801h-7.9368c-1.9058 0-3.44-1.691-3.44-3.7915z"
       color="#000000"
       color-rendering="auto"
       dominant-baseline="auto"
       image-rendering="auto"
       opacity=".05"
       solid-color="#000000"
       stop-color="#000000"
       style="font-feature-settings:normal;font-variant-alternates:normal;font-variant-caps:normal;font-variant-east-asian:normal;font-variant-ligatures:normal;font-variant-numeric:normal;font-variant-position:normal;font-variation-settings:normal;inline-size:0;isolation:auto;mix-blend-mode:normal;shape-margin:0;shape-padding:0;text-decoration-color:#000000;text-decoration-line:none;text-decoration-style:solid;text-indent:0;text-orientation:mixed;text-transform:none;white-space:normal"
       id="path42" />
  </g>
  <rect
     x="1.0583"
     y="1.05"
     width="14.817"
     height="14.817"
     rx="3.4401"
     ry="3.4401"
     fill="url(#linearGradient928)"
     id="rect54" />
  <path
     d="m32 14a18 18 0 0 0-18 18 18 18 0 0 0 8.6328 15.352 18 18 0 0 0 0.080079 0.044922 18 18 0 0 0 1.4668 0.79883 18 18 0 0 0 0.22266 0.09961 18 18 0 0 0 1.4141 0.59375 18 18 0 0 0 0.33984 0.11328 18 18 0 0 0 1.3301 0.41016 18 18 0 0 0 0.54492 0.12109 18 18 0 0 0 1.1895 0.23828 18 18 0 0 0 0.66797 0.082032 18 18 0 0 0 1.1484 0.11328 18 18 0 0 0 0.96289 0.033203 18 18 0 0 0 13.307-5.9082 18 18 0 0 0 0.16797-0.18164c-0.00126-0.001982-0.002644-0.003878-0.003906-0.005859a18 18 0 0 0 4.5293-11.904 18 18 0 0 0-18-18zm0 2a16 16 0 0 1 16 16 16 16 0 0 1-3.7383 10.275c-2.7533-3.2356-6.9356-5.2754-12.262-5.2754-5.3205 0-9.5005 2.0339-12.254 5.2637a16 16 0 0 1-3.7461-10.264 16 16 0 0 1 16-16zm0 5a6 6.5 0 0 0-6 6.5 6 6.5 0 0 0 6 6.5 6 6.5 0 0 0 6-6.5 6 6.5 0 0 0-6-6.5z"
     fill="#fff"
     id="path58"
     transform="scale(.26458)"
     style="fill:#ffffff;fill-opacity:1" />
  <path
     transform="scale(.26458)"
     d="m17.002 3.9688c-7.2032 0-13.002 5.7987-13.002 13.002v1.0312c0-7.2032 5.7987-13.002 13.002-13.002h29.998c7.2032 0 13.002 5.7987 13.002 13.002v-1.0312c0-7.2032-5.7987-13.002-13.002-13.002h-29.998z"
     fill="#fff"
     opacity=".15"
     stroke-width="3.7796"
     id="path68" />
  <path
     d="m4.4983 15.875c-1.9058 0-3.44-1.5342-3.44-3.44v-0.27285c0 1.9058 1.5342 3.44 3.44 3.44h7.9368c1.9058 0 3.44-1.5342 3.44-3.44v0.27285c0 1.9058-1.5342 3.44-3.44 3.44z"
     opacity=".15"
     id="path70" />
</svg>
