<?xml version="1.0" encoding="UTF-8"?>
<svg width="64" height="64" version="1.1" viewBox="0 0 16.933 16.933" xmlns="http://www.w3.org/2000/svg" xmlns:cc="http://creativecommons.org/ns#" xmlns:dc="http://purl.org/dc/elements/1.1/" xmlns:rdf="http://www.w3.org/1999/02/22-rdf-syntax-ns#" xmlns:xlink="http://www.w3.org/1999/xlink">
 <metadata>
  <rdf:RDF>
   <cc:Work rdf:about="">
    <dc:format>image/svg+xml</dc:format>
    <dc:type rdf:resource="http://purl.org/dc/dcmitype/StillImage"/>
    <dc:title/>
   </cc:Work>
  </rdf:RDF>
 </metadata>
 <defs>
  <linearGradient id="linearGradient1103">
   <stop stop-opacity=".75" offset="0"/>
   <stop stop-opacity=".8" offset=".7"/>
   <stop stop-opacity=".5" offset="1"/>
  </linearGradient>
  <linearGradient id="linearGradient928" x1="2.6458" x2="14.189" y1="3.2566" y2="14.287" gradientUnits="userSpaceOnUse">
   <stop stop-color="#6b99ca" offset="0"/>
   <stop stop-color="#4676b0" offset="1"/>
  </linearGradient>
  <radialGradient id="radialGradient1105" cx="2.1166" cy="6.0853" r=".52916" gradientUnits="userSpaceOnUse" xlink:href="#linearGradient1103"/>
  <radialGradient id="radialGradient1111" cx="2.1166" cy="6.0853" r=".52916" gradientTransform="translate(0 3.4395)" gradientUnits="userSpaceOnUse" xlink:href="#linearGradient1103"/>
  <radialGradient id="radialGradient1115" cx="2.1166" cy="6.0853" r=".52916" gradientTransform="translate(0 6.879)" gradientUnits="userSpaceOnUse" xlink:href="#linearGradient1103"/>
 </defs>
 <g shape-rendering="auto">
  <path d="m4.3693 0.52916c-2.1142 0-3.8402 1.7835-3.8402 3.9682v8.4675c0 2.1846 1.726 3.9682 3.8402 3.9682h8.1944c2.1142 0 3.8402-1.7835 3.8402-3.9682v-8.4675c0-2.1846-1.726-3.9682-3.8402-3.9682zm0.25704 0.52089h7.6808c1.8443 0 3.3291 1.5342 3.3291 3.44v7.9368c0 1.9058-1.4847 3.44-3.3291 3.44h-7.6808c-1.8443 0-3.3291-1.5342-3.3291-3.44v-7.9368c0-1.9058 1.4847-3.44 3.3291-3.44z" color="#000000" color-rendering="auto" dominant-baseline="auto" image-rendering="auto" opacity=".01" solid-color="#000000" stop-color="#000000" style="font-feature-settings:normal;font-variant-alternates:normal;font-variant-caps:normal;font-variant-east-asian:normal;font-variant-ligatures:normal;font-variant-numeric:normal;font-variant-position:normal;font-variation-settings:normal;inline-size:0;isolation:auto;mix-blend-mode:normal;shape-margin:0;shape-padding:0;text-decoration-color:#000000;text-decoration-line:none;text-decoration-style:solid;text-indent:0;text-orientation:mixed;text-transform:none;white-space:normal"/>
  <path d="m4.3587 0.79373c-1.9668 0-3.5639 1.6528-3.5639 3.6876v8.4996c0 2.0348 1.5971 3.6876 3.5639 3.6876h8.2162c1.9668 0 3.5644-1.6528 3.5644-3.6876v-8.4996c0-2.0348-1.5976-3.6876-3.5644-3.6876zm0.27222 0.25631h7.6718c1.8422 0 3.3251 1.5342 3.3251 3.44v7.9368c0 1.9058-1.483 3.44-3.3251 3.44h-7.6718c-1.8422 0-3.3251-1.5342-3.3251-3.44v-7.9368c0-1.9058 1.483-3.44 3.3251-3.44z" color="#000000" color-rendering="auto" dominant-baseline="auto" image-rendering="auto" opacity=".01" solid-color="#000000" stop-color="#000000" style="font-feature-settings:normal;font-variant-alternates:normal;font-variant-caps:normal;font-variant-east-asian:normal;font-variant-ligatures:normal;font-variant-numeric:normal;font-variant-position:normal;font-variation-settings:normal;inline-size:0;isolation:auto;mix-blend-mode:normal;shape-margin:0;shape-padding:0;text-decoration-color:#000000;text-decoration-line:none;text-decoration-style:solid;text-indent:0;text-orientation:mixed;text-transform:none;white-space:normal"/>
  <path d="m4.3097 1.0583c-1.8657 0-3.3751 1.5383-3.3751 3.439v8.4675c0 1.9007 1.57 3.439 3.4357 3.439h8.1996c1.8657 0 3.4274-1.5383 3.4274-3.439v-8.4675c0-1.9007-1.51-3.439-3.3756-3.439h-0.09688c1.794 0.086515 3.2138 1.5819 3.2138 3.4318v7.9368c0 1.9058-1.5059 3.44-3.3766 3.44h-7.7905c-1.8707 0-3.3766-1.5342-3.3766-3.44v-7.9368c0-1.8498 1.4199-3.3451 3.2138-3.4318z" color="#000000" color-rendering="auto" dominant-baseline="auto" image-rendering="auto" opacity=".03" solid-color="#000000" stop-color="#000000" style="font-feature-settings:normal;font-variant-alternates:normal;font-variant-caps:normal;font-variant-east-asian:normal;font-variant-ligatures:normal;font-variant-numeric:normal;font-variant-position:normal;font-variation-settings:normal;inline-size:0;isolation:auto;mix-blend-mode:normal;shape-margin:0;shape-padding:0;text-decoration-color:#000000;text-decoration-line:none;text-decoration-style:solid;text-indent:0;text-orientation:mixed;text-transform:none;white-space:normal"/>
  <path transform="scale(.26458)" d="m4 46.969v2.0312c0 6.6479 5.8957 12 12.544 12h30.961c6.6479 0 12.495-5.3521 12.495-12v-1.9922c-0.02117 7.1849-5.81 12.963-13 12.963h-29.998c-7.2032 0-13.002-5.7987-13.002-13.002z" color="#000000" color-rendering="auto" dominant-baseline="auto" image-rendering="auto" opacity=".03" solid-color="#000000" stop-color="#000000" style="font-feature-settings:normal;font-variant-alternates:normal;font-variant-caps:normal;font-variant-east-asian:normal;font-variant-ligatures:normal;font-variant-numeric:normal;font-variant-position:normal;font-variation-settings:normal;inline-size:0;isolation:auto;mix-blend-mode:normal;shape-margin:0;shape-padding:0;text-decoration-color:#000000;text-decoration-line:none;text-decoration-style:solid;text-indent:0;text-orientation:mixed;text-transform:none;white-space:normal"/>
  <path d="m1.0583 11.906v0.59234c0 1.9386 1.5729 3.4993 3.3318 3.4993h8.1603c1.7589 0 3.3243-1.5608 3.3243-3.4993v-0.58095c-0.0056 2.0952-1.5372 3.7801-3.4395 3.7801h-7.9368c-1.9058 0-3.44-1.691-3.44-3.7915z" color="#000000" color-rendering="auto" dominant-baseline="auto" image-rendering="auto" opacity=".05" solid-color="#000000" stop-color="#000000" style="font-feature-settings:normal;font-variant-alternates:normal;font-variant-caps:normal;font-variant-east-asian:normal;font-variant-ligatures:normal;font-variant-numeric:normal;font-variant-position:normal;font-variation-settings:normal;inline-size:0;isolation:auto;mix-blend-mode:normal;shape-margin:0;shape-padding:0;text-decoration-color:#000000;text-decoration-line:none;text-decoration-style:solid;text-indent:0;text-orientation:mixed;text-transform:none;white-space:normal"/>
 </g>
 <rect x="1.0583" y="1.05" width="14.817" height="14.817" rx="3.4401" ry="3.4401" fill="url(#linearGradient928)"/>
 <path transform="scale(.26458)" d="m32 14a18 18 0 0 0-18 18 18 18 0 0 0 8.6328 15.352 18 18 0 0 0 0.080079 0.044922 18 18 0 0 0 1.4668 0.79883 18 18 0 0 0 0.22266 0.09961 18 18 0 0 0 1.4141 0.59375 18 18 0 0 0 0.33984 0.11328 18 18 0 0 0 1.3301 0.41016 18 18 0 0 0 0.54492 0.12109 18 18 0 0 0 1.1895 0.23828 18 18 0 0 0 0.66797 0.082032 18 18 0 0 0 1.1484 0.11328 18 18 0 0 0 0.96289 0.033203 18 18 0 0 0 13.307-5.9082 18 18 0 0 0 0.16797-0.18164c-0.00126-0.001982-0.002644-0.003878-0.003906-0.005859a18 18 0 0 0 4.5293-11.904 18 18 0 0 0-18-18zm0 2a16 16 0 0 1 16 16 16 16 0 0 1-3.7383 10.275c-2.7533-3.2356-6.9356-5.2754-12.262-5.2754-5.3205 0-9.5005 2.0339-12.254 5.2637a16 16 0 0 1-3.7461-10.264 16 16 0 0 1 16-16zm0 5a6 6.5 0 0 0-6 6.5 6 6.5 0 0 0 6 6.5 6 6.5 0 0 0 6-6.5 6 6.5 0 0 0-6-6.5z" fill="#fff"/>
 <path transform="scale(.26458)" d="m32 15.904a16.096 16.096 0 0 0-16.096 16.096 16.096 16.096 0 0 0 3.6934 10.248l0.003906-0.007813c0.054126 0.006956 0.089541 0.01657 0.14453 0.023438a16 16 0 0 1-3.7461-10.264 16 16 0 0 1 16-16 16 16 0 0 1 16 16 16 16 0 0 1-3.7383 10.275c0.029451-0.017031 0.048871-0.031854 0.078125-0.048829l0.033203 0.046876a16.096 16.096 0 0 0 3.7227-10.273 16.096 16.096 0 0 0-16.096-16.096z" opacity=".2"/>
 <path transform="scale(.26458)" d="m17.002 3.9688c-7.2032 0-13.002 5.7987-13.002 13.002v1.0312c0-7.2032 5.7987-13.002 13.002-13.002h29.998c7.2032 0 13.002 5.7987 13.002 13.002v-1.0312c0-7.2032-5.7987-13.002-13.002-13.002h-29.998z" fill="#fff" opacity=".15" stroke-width="3.7796"/>
 <path d="m4.4983 15.875c-1.9058 0-3.44-1.5342-3.44-3.44v-0.27285c0 1.9058 1.5342 3.44 3.44 3.44h7.9368c1.9058 0 3.44-1.5342 3.44-3.44v0.27285c0 1.9058-1.5342 3.44-3.44 3.44z" opacity=".15"/>
 <circle cx="2.1166" cy="6.0853" r=".52916" fill="url(#radialGradient1105)" opacity=".75"/>
 <path transform="scale(.26458)" d="m4.1055 15.379a5 5 0 0 0-3.1152 4.6309 5 5 0 0 0 5 5 5 5 0 0 0 1.002-0.10156 0.5 0.5 0 0 0 0.0078125 0 0.5 0.5 0 0 0 0.5-0.5 0.5 0.5 0 0 0-0.5-0.5v-0.019531a4.0098 4.0098 0 0 1-1.0098 0.13086 4.0098 4.0098 0 0 1-4.0098-4.0098 4.0098 4.0098 0 0 1 2.043-3.4941c0.013157-0.38304 0.036726-0.76298 0.082031-1.1367z" fill="#fff" stroke="#000" stroke-linecap="round" stroke-linejoin="round" stroke-opacity=".35" stroke-width=".4"/>
 <path transform="scale(.26458)" d="m4.5527 13.211a5 5 0 0 0-3.5625 4.7891 5 5 0 0 0 5 5 5 5 0 0 0 1.0098-0.10352v-0.007812a0.5 0.5 0 0 0 0.5-0.5 0.5 0.5 0 0 0-0.5-0.5v-0.009766a4.0098 4.0098 0 0 1-0.052734 0.011719 0.5 0.5 0 0 0-0.12305 0.029297 4.0098 4.0098 0 0 1-0.83398 0.089844 4.0098 4.0098 0 0 1-4.0098-4.0098 4.0098 4.0098 0 0 1 2.2773-3.6152c0.079859-0.39871 0.1797-0.78942 0.29492-1.1738z" fill="#fff" stroke="#000" stroke-linecap="round" stroke-linejoin="round" stroke-opacity=".35" stroke-width=".4"/>
 <circle cx="2.1166" cy="9.5248" r=".52916" fill="url(#radialGradient1111)" opacity=".75"/>
 <path transform="scale(.26458)" d="m4 28.424a5 5 0 0 0-3.0098 4.5859 5 5 0 0 0 5 5 5 5 0 0 0 1.0098-0.10352v-0.001953a0.5 0.5 0 0 0 0.5-0.5 0.5 0.5 0 0 0-0.5-0.5v-0.015625a4.0098 4.0098 0 0 1-1.0098 0.13086 4.0098 4.0098 0 0 1-4.0098-4.0098 4.0098 4.0098 0 0 1 2.0195-3.4824v-1.1035z" fill="#fff" stroke="#000" stroke-linecap="round" stroke-linejoin="round" stroke-opacity=".35" stroke-width=".4"/>
 <path transform="scale(.26458)" d="m4 26.414a5 5 0 0 0-3.0098 4.5859 5 5 0 0 0 5 5 5 5 0 0 0 1.0098-0.10352v-0.005859a0.5 0.5 0 0 0 0.5-0.5 0.5 0.5 0 0 0-0.5-0.5v-0.011719a4.0098 4.0098 0 0 1-0.072266 0.017578 4.0098 4.0098 0 0 1-0.011719 0.001954 0.5 0.5 0 0 0-0.064453 0.015624 4.0098 4.0098 0 0 1-0.015625 0.003907 4.0098 4.0098 0 0 1-0.8457 0.091797 4.0098 4.0098 0 0 1-4.0098-4.0098 4.0098 4.0098 0 0 1 2.0195-3.4824v-1.1035z" fill="#fff" stroke="#000" stroke-linecap="round" stroke-linejoin="round" stroke-opacity=".35" stroke-width=".4"/>
 <circle cx="2.1166" cy="12.964" r=".52916" fill="url(#radialGradient1115)" opacity=".75"/>
 <path transform="scale(.26458)" d="m4 41.424a5 5 0 0 0-3.0098 4.5859 5 5 0 0 0 5 5 5 5 0 0 0 1.0098-0.10352v-0.005859a0.5 0.5 0 0 0 0.5-0.5 0.5 0.5 0 0 0-0.5-0.5v-0.011719a4.0098 4.0098 0 0 1-0.0625 0.015625 0.5 0.5 0 0 0-0.085938 0.019531 4.0098 4.0098 0 0 1-0.015625 0.003906 4.0098 4.0098 0 0 1-0.8457 0.091797 4.0098 4.0098 0 0 1-4.0098-4.0098 4.0098 4.0098 0 0 1 2.0195-3.4824v-1.1035z" fill="#fff" stroke="#000" stroke-linecap="round" stroke-linejoin="round" stroke-opacity=".35" stroke-width=".4"/>
 <path transform="scale(.26458)" d="m4 39.414a5 5 0 0 0-3.0098 4.5859 5 5 0 0 0 5 5 5 5 0 0 0 1.0098-0.10352v-0.005859a0.5 0.5 0 0 0 0.5-0.5 0.5 0.5 0 0 0-0.5-0.5v-0.011719a4.0098 4.0098 0 0 1-0.0625 0.015625 0.5 0.5 0 0 0-0.097656 0.023438 0.5 0.5 0 0 0-0.0039063 0 4.0098 4.0098 0 0 1-0.8457 0.091797 4.0098 4.0098 0 0 1-4.0098-4.0098 4.0098 4.0098 0 0 1 2.0195-3.4824v-1.1035z" fill="#fff" stroke="#000" stroke-linecap="round" stroke-linejoin="round" stroke-opacity=".35" stroke-width=".4"/>
</svg>
