<?xml version="1.0" encoding="UTF-8" standalone="no"?>
<svg
   xmlns:dc="http://purl.org/dc/elements/1.1/"
   xmlns:cc="http://creativecommons.org/ns#"
   xmlns:rdf="http://www.w3.org/1999/02/22-rdf-syntax-ns#"
   xmlns:svg="http://www.w3.org/2000/svg"
   xmlns="http://www.w3.org/2000/svg"
   xmlns:sodipodi="http://sodipodi.sourceforge.net/DTD/sodipodi-0.dtd"
   xmlns:inkscape="http://www.inkscape.org/namespaces/inkscape"
   width="64"
   height="64"
   version="1.1"
   viewBox="0 0 64 64"
   id="svg49"
   sodipodi:docname="android-studio.svg"
   inkscape:version="1.0.2 (e86c870879, 2021-01-15)">
  <metadata
     id="metadata53">
    <rdf:RDF>
      <cc:Work
         rdf:about="">
        <dc:format>image/svg+xml</dc:format>
        <dc:type
           rdf:resource="http://purl.org/dc/dcmitype/StillImage" />
      </cc:Work>
    </rdf:RDF>
  </metadata>
  <sodipodi:namedview
     pagecolor="#ffffff"
     bordercolor="#666666"
     borderopacity="1"
     objecttolerance="10"
     gridtolerance="10"
     guidetolerance="10"
     inkscape:pageopacity="0"
     inkscape:pageshadow="2"
     inkscape:window-width="2160"
     inkscape:window-height="1246"
     id="namedview51"
     showgrid="false"
     inkscape:zoom="11.484375"
     inkscape:cx="32"
     inkscape:cy="32"
     inkscape:window-x="0"
     inkscape:window-y="42"
     inkscape:window-maximized="1"
     inkscape:current-layer="svg49" />
  <defs
     id="defs17">
    <radialGradient
       id="radialGradient4191"
       cx="24"
       cy="1025.4"
       r="2"
       gradientTransform="matrix(1.5 0 0 1.4998 -4 -1517.4)"
       gradientUnits="userSpaceOnUse">
      <stop
         stop-color="#acacac"
         offset="0"
         id="stop2" />
      <stop
         stop-color="#cbcbcb"
         offset="1"
         id="stop4" />
    </radialGradient>
    <linearGradient
       id="linearGradient4204"
       x1="24"
       x2="24"
       y1="1032.4"
       y2="1018.4"
       gradientTransform="matrix(1.5 0 0 1.5 -4 -1517.5)"
       gradientUnits="userSpaceOnUse">
      <stop
         stop-color="#272b2d"
         offset="0"
         id="stop7" />
      <stop
         stop-color="#3e4447"
         offset="1"
         id="stop9" />
    </linearGradient>
    <linearGradient
       id="linearGradient862"
       x1="7.9373"
       x2="7.9373"
       y1="15.081"
       y2="1.852"
       gradientTransform="scale(3.7796)"
       gradientUnits="userSpaceOnUse">
      <stop
         stop-color="#3c972e"
         offset="0"
         id="stop12" />
      <stop
         stop-color="#92d068"
         offset="1"
         id="stop14" />
    </linearGradient>
  </defs>
  <g
     transform="scale(3.7796)"
     shape-rendering="auto"
     id="g31">
    <path
       d="m4.3693 0.52916c-2.1142 0-3.8402 1.7835-3.8402 3.9682v8.4675c0 2.1846 1.726 3.9682 3.8402 3.9682h8.1944c2.1142 0 3.8402-1.7835 3.8402-3.9682v-8.4675c0-2.1846-1.726-3.9682-3.8402-3.9682zm0.25704 0.52089h7.6808c1.8443 0 3.3291 1.5342 3.3291 3.44v7.9368c0 1.9058-1.4847 3.44-3.3291 3.44h-7.6808c-1.8443 0-3.3291-1.5342-3.3291-3.44v-7.9368c0-1.9058 1.4847-3.44 3.3291-3.44z"
       color="#000000"
       color-rendering="auto"
       dominant-baseline="auto"
       image-rendering="auto"
       opacity=".01"
       solid-color="#000000"
       stop-color="#000000"
       style="font-feature-settings:normal;font-variant-alternates:normal;font-variant-caps:normal;font-variant-east-asian:normal;font-variant-ligatures:normal;font-variant-numeric:normal;font-variant-position:normal;font-variation-settings:normal;inline-size:0;isolation:auto;mix-blend-mode:normal;shape-margin:0;shape-padding:0;text-decoration-color:#000000;text-decoration-line:none;text-decoration-style:solid;text-indent:0;text-orientation:mixed;text-transform:none;white-space:normal"
       id="path19" />
    <path
       d="m4.3587 0.79373c-1.9668 0-3.5639 1.6528-3.5639 3.6876v8.4996c0 2.0348 1.5971 3.6876 3.5639 3.6876h8.2162c1.9668 0 3.5644-1.6528 3.5644-3.6876v-8.4996c0-2.0348-1.5976-3.6876-3.5644-3.6876zm0.27222 0.25631h7.6718c1.8422 0 3.3251 1.5342 3.3251 3.44v7.9368c0 1.9058-1.483 3.44-3.3251 3.44h-7.6718c-1.8422 0-3.3251-1.5342-3.3251-3.44v-7.9368c0-1.9058 1.483-3.44 3.3251-3.44z"
       color="#000000"
       color-rendering="auto"
       dominant-baseline="auto"
       image-rendering="auto"
       opacity=".01"
       solid-color="#000000"
       stop-color="#000000"
       style="font-feature-settings:normal;font-variant-alternates:normal;font-variant-caps:normal;font-variant-east-asian:normal;font-variant-ligatures:normal;font-variant-numeric:normal;font-variant-position:normal;font-variation-settings:normal;inline-size:0;isolation:auto;mix-blend-mode:normal;shape-margin:0;shape-padding:0;text-decoration-color:#000000;text-decoration-line:none;text-decoration-style:solid;text-indent:0;text-orientation:mixed;text-transform:none;white-space:normal"
       id="path21" />
    <g
       id="g29">
      <path
         d="m4.3097 1.0583c-1.8657 0-3.3751 1.5383-3.3751 3.439v8.4675c0 1.9007 1.5094 3.439 3.3751 3.439h8.312c1.8657 0 3.3756-1.5383 3.3756-3.439v-8.4675c0-1.9007-1.51-3.439-3.3756-3.439h-0.09688c1.794 0.086515 3.2138 1.5819 3.2138 3.4318v7.9368c0 1.9058-1.5059 3.44-3.3766 3.44h-7.7905c-1.8707 0-3.3766-1.5342-3.3766-3.44v-7.9368c0-1.8498 1.4199-3.3451 3.2138-3.4318z"
         color="#000000"
         color-rendering="auto"
         dominant-baseline="auto"
         image-rendering="auto"
         opacity=".03"
         solid-color="#000000"
         stop-color="#000000"
         style="font-feature-settings:normal;font-variant-alternates:normal;font-variant-caps:normal;font-variant-east-asian:normal;font-variant-ligatures:normal;font-variant-numeric:normal;font-variant-position:normal;font-variation-settings:normal;inline-size:0;isolation:auto;mix-blend-mode:normal;shape-margin:0;shape-padding:0;text-decoration-color:#000000;text-decoration-line:none;text-decoration-style:solid;text-indent:0;text-orientation:mixed;text-transform:none;white-space:normal"
         id="path23" />
      <path
         transform="scale(.26458)"
         d="m4 46.969v2.0312c0 6.6479 5.3522 12 12 12h32c6.6479 0 12-5.3521 12-12v-1.9922c-0.021173 7.1849-5.81 12.963-13 12.963h-29.998c-7.2032 0-13.002-5.7987-13.002-13.002z"
         color="#000000"
         color-rendering="auto"
         dominant-baseline="auto"
         image-rendering="auto"
         opacity=".03"
         solid-color="#000000"
         stop-color="#000000"
         style="font-feature-settings:normal;font-variant-alternates:normal;font-variant-caps:normal;font-variant-east-asian:normal;font-variant-ligatures:normal;font-variant-numeric:normal;font-variant-position:normal;font-variation-settings:normal;inline-size:0;isolation:auto;mix-blend-mode:normal;shape-margin:0;shape-padding:0;text-decoration-color:#000000;text-decoration-line:none;text-decoration-style:solid;text-indent:0;text-orientation:mixed;text-transform:none;white-space:normal"
         id="path25" />
      <path
         d="m1.0583 11.906v0.59234c0 1.9386 1.4161 3.4993 3.1749 3.4993h8.4665c1.7589 0 3.1749-1.5608 3.1749-3.4993v-0.58095c-0.0056 2.0952-1.5372 3.7801-3.4395 3.7801h-7.9368c-1.9058 0-3.44-1.691-3.44-3.7915z"
         color="#000000"
         color-rendering="auto"
         dominant-baseline="auto"
         image-rendering="auto"
         opacity=".05"
         solid-color="#000000"
         stop-color="#000000"
         style="font-feature-settings:normal;font-variant-alternates:normal;font-variant-caps:normal;font-variant-east-asian:normal;font-variant-ligatures:normal;font-variant-numeric:normal;font-variant-position:normal;font-variation-settings:normal;inline-size:0;isolation:auto;mix-blend-mode:normal;shape-margin:0;shape-padding:0;text-decoration-color:#000000;text-decoration-line:none;text-decoration-style:solid;text-indent:0;text-orientation:mixed;text-transform:none;white-space:normal"
         id="path27" />
    </g>
  </g>
  <rect
     x="4"
     y="3.9686"
     width="56.002"
     height="56.002"
     rx="13.002"
     ry="13.002"
     fill="url(#linearGradient862)"
     stroke-width="3.7796"
     id="rect33" />
  <g
     transform="translate(0,1)"
     id="g47">
    <path
       d="m30.947 14.904-3.8971 2.25 20.25 35.074 4.1985 2.772-0.30137-5.022z"
       fill="#dcdcdc"
       id="path37" />
    <path
       d="m48.5 21.988c0 6.0124-1.7867 7.4386-3.961 9.9794-1.1238 1.2948-2.443 2.3942-3.9576 3.2247-2.0521 1.1482-5.1721 1.7835-7.6884 1.7835-2.5163 0-4.886-0.6597-6.9137-1.7835-1.4793-1.1916-4.4793 3.3084-2.4919 3.8984 2.785 1.5636 6.0098 2.41 9.43 2.41 3.4202 0 7.3952-0.84645 10.18-2.41 1.4902-0.83055 2.8583-1.8566 4.0554-3.0292 3.6156-3.518 5.8876-8.6004 5.8876-14.048-1.5427-0.015-3.1727 0-4.5406-0.015z"
       fill="#c3c3c3"
       stroke-width="1.5"
       id="path39" />
    <path
       d="m33.051 14.904 3.8971 2.25-20.25 35.074-4.1985 2.772 0.30137-5.022z"
       fill="#c3c3c3"
       id="path41" />
    <path
       d="m36.671 14.5h-1.6707v-4.5003h-6v4.5003h-1.6951c-1.5366 0-2.8049 1.2698-2.8049 2.7888v7.3432h0.0244c-0.0244 0.2412 0.12191 0.50655 0.43902 0.8199l5.6341 4.9694c0.39025 0.3858 0.90244 0.5787 1.3902 0.5787v-0.024l0.02441 0.024c0.51219 0 1.0244-0.1929 1.3902-0.5787l5.6341-4.9694c0.31708-0.31335 0.43902-0.60285 0.43902-0.8199h0.0244v-7.3191c-0.0244-1.543-1.2683-2.813-2.8293-2.813z"
       fill="url(#linearGradient4204)"
       stroke-width="1.5"
       id="path43" />
    <path
       d="m32.01 23.5h-0.01956c-1.6417 0-2.9902-1.3353-2.9902-2.98 0-1.6449 1.3485-2.9802 2.9902-2.9802v-0.039l0.01956 0.039c1.6417 0.0195 2.9902 1.3353 2.9902 2.9802 0 1.6448-1.3485 2.9607-2.9902 2.98z"
       fill="url(#radialGradient4191)"
       stroke-width="1.5"
       id="path45" />
  </g>
</svg>
