<?xml version="1.0" encoding="UTF-8" standalone="no"?>
<svg
   xmlns:dc="http://purl.org/dc/elements/1.1/"
   xmlns:cc="http://creativecommons.org/ns#"
   xmlns:rdf="http://www.w3.org/1999/02/22-rdf-syntax-ns#"
   xmlns:svg="http://www.w3.org/2000/svg"
   xmlns="http://www.w3.org/2000/svg"
   xmlns:sodipodi="http://sodipodi.sourceforge.net/DTD/sodipodi-0.dtd"
   xmlns:inkscape="http://www.inkscape.org/namespaces/inkscape"
   width="64"
   height="64"
   version="1.1"
   viewBox="0 0 16.933 16.933"
   id="svg58"
   sodipodi:docname="application-default-icon.svg"
   inkscape:version="1.0.2 (e86c870879, 2021-01-15)">
  <metadata
     id="metadata62">
    <rdf:RDF>
      <cc:Work
         rdf:about="">
        <dc:format>image/svg+xml</dc:format>
        <dc:type
           rdf:resource="http://purl.org/dc/dcmitype/StillImage" />
      </cc:Work>
    </rdf:RDF>
  </metadata>
  <sodipodi:namedview
     pagecolor="#ffffff"
     bordercolor="#666666"
     borderopacity="1"
     objecttolerance="10"
     gridtolerance="10"
     guidetolerance="10"
     inkscape:pageopacity="0"
     inkscape:pageshadow="2"
     inkscape:window-width="2160"
     inkscape:window-height="1307"
     id="namedview60"
     showgrid="false"
     inkscape:zoom="11.484375"
     inkscape:cx="32"
     inkscape:cy="32"
     inkscape:window-x="0"
     inkscape:window-y="0"
     inkscape:window-maximized="1"
     inkscape:current-layer="svg58" />
  <defs
     id="defs22">
    <linearGradient
       id="linearGradient862"
       x1="7.9373"
       x2="7.9373"
       y1="15.081"
       y2="1.852"
       gradientUnits="userSpaceOnUse">
      <stop
         stop-color="#1e1f1f"
         offset="0"
         id="stop2" />
      <stop
         stop-color="#505353"
         offset="1"
         id="stop4" />
    </linearGradient>
    <linearGradient
       id="linearGradient1018"
       x1="25.163"
       x2="35.091"
       y1="12.334"
       y2="1.7072"
       gradientTransform="translate(-21.564 1.5296)"
       gradientUnits="userSpaceOnUse">
      <stop
         stop-color="#807c76"
         offset=".057692"
         id="stop7" />
      <stop
         stop-color="#fff"
         offset=".38462"
         id="stop9" />
      <stop
         stop-color="#bdbfba"
         offset=".55769"
         id="stop11" />
      <stop
         stop-color="#acb3ac"
         offset=".63462"
         id="stop13" />
      <stop
         stop-color="#f7f8f7"
         offset=".75"
         id="stop15" />
      <stop
         stop-color="#c2c7c1"
         offset=".86274"
         id="stop17" />
      <stop
         stop-color="#7f7a75"
         offset=".94118"
         id="stop19" />
    </linearGradient>
  </defs>
  <g
     shape-rendering="auto"
     id="g34">
    <path
       d="m4.3693 0.52916c-2.1142 0-3.8402 1.7835-3.8402 3.9682v8.4675c0 2.1846 1.726 3.9682 3.8402 3.9682h8.1944c2.1142 0 3.8402-1.7835 3.8402-3.9682v-8.4675c0-2.1846-1.726-3.9682-3.8402-3.9682zm0.25704 0.52089h7.6808c1.8443 0 3.3291 1.5342 3.3291 3.44v7.9368c0 1.9058-1.4847 3.44-3.3291 3.44h-7.6808c-1.8443 0-3.3291-1.5342-3.3291-3.44v-7.9368c0-1.9058 1.4847-3.44 3.3291-3.44z"
       color="#000000"
       color-rendering="auto"
       dominant-baseline="auto"
       image-rendering="auto"
       opacity=".01"
       solid-color="#000000"
       stop-color="#000000"
       style="font-feature-settings:normal;font-variant-alternates:normal;font-variant-caps:normal;font-variant-east-asian:normal;font-variant-ligatures:normal;font-variant-numeric:normal;font-variant-position:normal;font-variation-settings:normal;inline-size:0;isolation:auto;mix-blend-mode:normal;shape-margin:0;shape-padding:0;text-decoration-color:#000000;text-decoration-line:none;text-decoration-style:solid;text-indent:0;text-orientation:mixed;text-transform:none;white-space:normal"
       id="path24" />
    <path
       d="m4.3587 0.79373c-1.9668 0-3.5639 1.6528-3.5639 3.6876v8.4996c0 2.0348 1.5971 3.6876 3.5639 3.6876h8.2162c1.9668 0 3.5644-1.6528 3.5644-3.6876v-8.4996c0-2.0348-1.5976-3.6876-3.5644-3.6876zm0.27222 0.25631h7.6718c1.8422 0 3.3251 1.5342 3.3251 3.44v7.9368c0 1.9058-1.483 3.44-3.3251 3.44h-7.6718c-1.8422 0-3.3251-1.5342-3.3251-3.44v-7.9368c0-1.9058 1.483-3.44 3.3251-3.44z"
       color="#000000"
       color-rendering="auto"
       dominant-baseline="auto"
       image-rendering="auto"
       opacity=".01"
       solid-color="#000000"
       stop-color="#000000"
       style="font-feature-settings:normal;font-variant-alternates:normal;font-variant-caps:normal;font-variant-east-asian:normal;font-variant-ligatures:normal;font-variant-numeric:normal;font-variant-position:normal;font-variation-settings:normal;inline-size:0;isolation:auto;mix-blend-mode:normal;shape-margin:0;shape-padding:0;text-decoration-color:#000000;text-decoration-line:none;text-decoration-style:solid;text-indent:0;text-orientation:mixed;text-transform:none;white-space:normal"
       id="path26" />
    <path
       d="m4.3097 1.0583c-1.8657 0-3.3751 1.5383-3.3751 3.439v8.4675c0 1.9007 1.57 3.439 3.4357 3.439h8.1996c1.8657 0 3.4274-1.5383 3.4274-3.439v-8.4675c0-1.9007-1.51-3.439-3.3756-3.439h-0.09688c1.794 0.086515 3.2138 1.5819 3.2138 3.4318v7.9368c0 1.9058-1.5059 3.44-3.3766 3.44h-7.7905c-1.8707 0-3.3766-1.5342-3.3766-3.44v-7.9368c0-1.8498 1.4199-3.3451 3.2138-3.4318z"
       color="#000000"
       color-rendering="auto"
       dominant-baseline="auto"
       image-rendering="auto"
       opacity=".03"
       solid-color="#000000"
       stop-color="#000000"
       style="font-feature-settings:normal;font-variant-alternates:normal;font-variant-caps:normal;font-variant-east-asian:normal;font-variant-ligatures:normal;font-variant-numeric:normal;font-variant-position:normal;font-variation-settings:normal;inline-size:0;isolation:auto;mix-blend-mode:normal;shape-margin:0;shape-padding:0;text-decoration-color:#000000;text-decoration-line:none;text-decoration-style:solid;text-indent:0;text-orientation:mixed;text-transform:none;white-space:normal"
       id="path28" />
    <path
       transform="scale(.26458)"
       d="m4 46.969v2.0312c0 6.6479 5.8957 12 12.544 12h30.961c6.6479 0 12.495-5.3521 12.495-12v-1.9922c-0.02117 7.1849-5.81 12.963-13 12.963h-29.998c-7.2032 0-13.002-5.7987-13.002-13.002z"
       color="#000000"
       color-rendering="auto"
       dominant-baseline="auto"
       image-rendering="auto"
       opacity=".03"
       solid-color="#000000"
       stop-color="#000000"
       style="font-feature-settings:normal;font-variant-alternates:normal;font-variant-caps:normal;font-variant-east-asian:normal;font-variant-ligatures:normal;font-variant-numeric:normal;font-variant-position:normal;font-variation-settings:normal;inline-size:0;isolation:auto;mix-blend-mode:normal;shape-margin:0;shape-padding:0;text-decoration-color:#000000;text-decoration-line:none;text-decoration-style:solid;text-indent:0;text-orientation:mixed;text-transform:none;white-space:normal"
       id="path30" />
    <path
       d="m1.0583 11.906v0.59234c0 1.9386 1.5729 3.4993 3.3318 3.4993h8.1603c1.7589 0 3.3243-1.5608 3.3243-3.4993v-0.58095c-0.0056 2.0952-1.5372 3.7801-3.4395 3.7801h-7.9368c-1.9058 0-3.44-1.691-3.44-3.7915z"
       color="#000000"
       color-rendering="auto"
       dominant-baseline="auto"
       image-rendering="auto"
       opacity=".05"
       solid-color="#000000"
       stop-color="#000000"
       style="font-feature-settings:normal;font-variant-alternates:normal;font-variant-caps:normal;font-variant-east-asian:normal;font-variant-ligatures:normal;font-variant-numeric:normal;font-variant-position:normal;font-variation-settings:normal;inline-size:0;isolation:auto;mix-blend-mode:normal;shape-margin:0;shape-padding:0;text-decoration-color:#000000;text-decoration-line:none;text-decoration-style:solid;text-indent:0;text-orientation:mixed;text-transform:none;white-space:normal"
       id="path32" />
  </g>
  <rect
     x="1.0583"
     y="1.05"
     width="14.817"
     height="14.817"
     rx="3.4401"
     ry="3.4401"
     fill="url(#linearGradient862)"
     id="rect36" />
  <path
     d="m8.4554 2.9037c-0.26337 0.022284-0.26214 0.24521-0.35656 0.7927a4.7962 4.7831 0 0 0-0.53071 0.072862c-0.23357-0.56371-0.31524-0.7598-0.53587-0.68522-0.25367 0.085752-0.19438 0.30324-0.15503 0.87383a4.7962 4.7831 0 0 0-0.49246 0.20308c-0.39394-0.47576-0.5289-0.64078-0.71881-0.50384-0.21424 0.15449-0.09914 0.34516 0.10128 0.86246a4.7962 4.7831 0 0 0-0.42787 0.33021c-0.49643-0.36697-0.66714-0.49477-0.81854-0.31625-0.17182 0.20258-0.01195 0.35904 0.31057 0.81906a4.7962 4.7831 0 0 0-0.32194 0.41754c-0.5203-0.19345-0.7119-0.3063-0.8635-0.089915-0.13408 0.19137 0.03216 0.32436 0.51107 0.71002a4.7962 4.7831 0 0 0-0.2067 0.49608c-0.5474-0.051863-0.76164-0.10976-0.85161 0.13746-0.07916 0.21754 0.11406 0.30465 0.66455 0.54776a4.7962 4.7831 0 0 0-0.06821 0.52502c-0.53968 0.1045-0.7616 0.10954-0.77823 0.37206-0.01445 0.22801 0.1932 0.25902 0.77203 0.33486a4.7962 4.7831 0 0 0 0.077 0.55809c-0.49589 0.21729-0.70911 0.27327-0.66765 0.53122 0.03692 0.22973 0.24838 0.20974 0.85471 0.15348a4.7962 4.7831 0 0 0 0.21445 0.51624c-0.42279 0.3277-0.6143 0.43465-0.51159 0.67333 0.09234 0.21456 0.29296 0.14265 0.87228-0.06201a4.7962 4.7831 0 0 0 0.31315 0.40462c-0.31887 0.46822-0.47791 0.62677-0.30282 0.82784 0.15273 0.17538 0.32185 0.04697 0.80614-0.3209a4.7962 4.7831 0 0 0 0.42891 0.33072c-0.19409 0.54031-0.31095 0.73378-0.08991 0.88572 0.19358 0.13308 0.32492-0.0357 0.71105-0.52399l-0.09457-0.05633a4.7962 4.7831 0 0 0 0.56326 0.24081c-0.03741 0.55479-0.09109 0.77141 0.15968 0.85523 0.21711 0.07257 0.30025-0.12048 0.52296-0.663a4.7962 4.7831 0 0 0 0.54311 0.07235c0.10262 0.61379 0.13575 0.82517 0.36948 0.802 0.26242-0.02601 0.25875-0.24874 0.34467-0.79477a4.7962 4.7831 0 0 0 0.54724-0.07183c0.22583 0.55021 0.30814 0.7448 0.52657 0.67178 0.25086-0.08385 0.19709-0.30002 0.15968-0.85523a4.7962 4.7831 0 0 0 0.49814-0.20257c0.37499 0.4742 0.50698 0.63988 0.69813 0.50849 0.21701-0.14918 0.10708-0.34178-0.08061-0.85988a4.7962 4.7831 0 0 0 0.44286-0.33847c0.46391 0.35227 0.6335 0.47546 0.7834 0.30334 0.17072-0.19603 0.02077-0.35586-0.28215-0.79735a4.7962 4.7831 0 0 0 0.32348-0.4134c0.56642 0.20009 0.76637 0.26932 0.85781 0.05684 0.10212-0.23727-0.08733-0.34502-0.50487-0.66816a4.7962 4.7831 0 0 0 0.2191-0.52037c0.59578 0.05526 0.8067 0.07348 0.84334-0.15451 0.04106-0.25546-0.16965-0.31346-0.65524-0.52554a4.7962 4.7831 0 0 0 0.07183-0.56481c0.5723-0.075019 0.77865-0.10694 0.76428-0.33382-0.016457-0.25964-0.23547-0.26776-0.76221-0.36896a4.7962 4.7831 0 0 0-0.07338-0.53329c0.54101-0.23896 0.73279-0.32668 0.65421-0.54259-0.089236-0.2452-0.30278-0.19-0.84024-0.13849a4.7962 4.7831 0 0 0-0.20774-0.50384c0.46944-0.37804 0.63366-0.51151 0.50074-0.70124-0.15096-0.21547-0.34301-0.10409-0.85833 0.087848a4.7962 4.7831 0 0 0-0.33072-0.42736c0.34811-0.49194 0.4691-0.66567 0.28938-0.81182-0.20193-0.16418-0.3564-0.00887-0.78857 0.30954a4.7962 4.7831 0 0 0-0.43769-0.33486c0.23038-0.56236 0.31056-0.75913 0.1018-0.86143-0.24029-0.11775-0.35211 0.078454-0.72552 0.51055a4.7962 4.7831 0 0 0-0.49557-0.20412c0.05162-0.61529 0.07073-0.82735-0.16071-0.86246-0.25955-0.03937-0.31207 0.17547-0.52761 0.6785a4.7962 4.7831 0 0 0-0.54311-0.067695c-0.091827-0.6025-0.12359-0.81284-0.35553-0.79322zm-0.19172 1.4696c0.53092-0.00889 1.1615 0.086172 1.3663 0.17518 0.89142 0.27173 1.7159 0.77129 2.4179 1.9337 0.13073 0.21648 0.22435 0.42673 0.26665 0.61855 0.04199 0.20171 0.02643 0.4361-0.10387 0.62114-0.11165 0.14714-0.24991 0.28564-0.44286 0.30333-0.60047 0.056258-1.4146 0.024518-2.0572 0.017571-0.10812-0.00116-0.21127-0.044933-0.24236-0.079064-0.19036-0.11997-0.31842-0.38066-0.53071-0.45423-0.33892-0.15702-0.47648-0.025315-0.66764-0.26044-0.35214-0.56491-0.69287-1.1454-1.0056-1.7218-0.22659-0.39444-0.076934-0.78922 0.26458-1.002 0.13362-0.10365 0.41627-0.1466 0.73483-0.15193zm-2.3662 1.2164c0.02765-8.731e-4 0.05557 2.615e-4 0.08372 0.0031 0.18299 0.025071 0.3715 0.077238 0.48161 0.23667 0.34371 0.49558 0.71548 1.2206 1.0247 1.7838 0.05204 0.094778 0.06461 0.20627 0.05013 0.25011-0.01111 0.22474-0.17547 0.46465-0.13539 0.68573 0.02952 0.37236 0.21182 0.42704 0.10077 0.70899-0.3194 0.58405-0.65842 1.166-1.0072 1.7213-0.23248 0.39101-0.64952 0.45462-1.0025 0.26148-0.41571-0.17482-0.97404-1.4868-1.0108-1.8422-0.20071-0.91004-0.17012-1.8735 0.49815-3.0556 0.12446-0.22015 0.26186-0.4054 0.40824-0.53639 0.13575-0.11863 0.31494-0.21097 0.50849-0.21704zm2.5667 2.5068a0.36973 0.36973 0 0 1 0.0021 0 0.36973 0.36973 0 0 1 0.37 0.37 0.36973 0.36973 0 0 1-0.37 0.36948 0.36973 0.36973 0 0 1-0.36948-0.36948 0.36973 0.36973 0 0 1 0.36741-0.37zm2.1838 0.80459c0.33337 0.00172 0.66552 0.00851 0.9932 0.020671 0.45486 0.00582 0.71836 0.33514 0.72759 0.73741 0.05645 0.44743-0.80043 1.5872-1.0898 1.7968-0.68776 0.62884-1.5375 1.0837-2.8954 1.096-0.25288 0.0023-0.48153-0.02399-0.66816-0.08526-0.19499-0.06657-0.3887-0.1993-0.48161-0.40565-0.06979-0.17101-0.11919-0.3608-0.03617-0.53588 0.25733-0.54545 0.69987-1.2298 1.033-1.7792 0.05606-0.092458 0.146-0.1591 0.1912-0.16846 0.20018-0.10275 0.49002-0.080062 0.66145-0.2253 0.30771-0.21174 0.2646-0.39703 0.5643-0.44182 0.33274-0.00771 0.66706-0.011028 1.0004-0.0093z"
     fill="url(#linearGradient1018)"
     stroke-width=".25432"
     id="path56" />
</svg>
