<?xml version="1.0" encoding="UTF-8"?>
<svg width="64" height="64" version="1.1" xmlns="http://www.w3.org/2000/svg" xmlns:cc="http://creativecommons.org/ns#" xmlns:dc="http://purl.org/dc/elements/1.1/" xmlns:rdf="http://www.w3.org/1999/02/22-rdf-syntax-ns#" xmlns:xlink="http://www.w3.org/1999/xlink">
 <metadata>
  <rdf:RDF>
   <cc:Work rdf:about="">
    <dc:format>image/svg+xml</dc:format>
    <dc:type rdf:resource="http://purl.org/dc/dcmitype/StillImage"/>
    <dc:title/>
   </cc:Work>
  </rdf:RDF>
 </metadata>
 <defs>
  <linearGradient id="c-3" x1="196" x2="156.08" y1="124.13" y2="62" gradientTransform="matrix(.19574 0 0 .19574 -2.1419 -2.3347)" gradientUnits="userSpaceOnUse" xlink:href="#b-6"/>
  <linearGradient id="b-6">
   <stop stop-color="#763704" offset="0"/>
   <stop stop-color="#763704" stop-opacity="0" offset="1"/>
  </linearGradient>
  <linearGradient id="d-3" x1="196" x2="156.08" y1="124.13" y2="62" gradientTransform="matrix(.13842 -.13841 .13841 .13842 -19.684 39.24)" gradientUnits="userSpaceOnUse" xlink:href="#b-6"/>
  <linearGradient id="e-5" x1="196" x2="156.08" y1="124.13" y2="62" gradientTransform="matrix(0 -.19574 .19574 0 -2.1225 80.621)" gradientUnits="userSpaceOnUse" xlink:href="#b-6"/>
  <linearGradient id="linearGradient924" x1="10.686" x2="10.686" y1="295.09" y2="281.37" gradientTransform="matrix(3.2211 0 0 3.2211 4.0363 -895.8)" gradientUnits="userSpaceOnUse">
   <stop stop-color="#f36f1a" offset="0"/>
   <stop stop-color="#faae20" offset="1"/>
  </linearGradient>
  <linearGradient id="linearGradient932" x1="10.929" x2="10.929" y1="291.68" y2="289.11" gradientTransform="matrix(3.2211 0 0 3.2211 4.0363 -895.8)" gradientUnits="userSpaceOnUse">
   <stop stop-color="#1c9af5" offset="0"/>
   <stop stop-color="#20c2fa" offset="1"/>
  </linearGradient>
  <linearGradient id="linearGradient862-3" x1="7.9373" x2="7.9373" y1="15.081" y2="1.852" gradientTransform="matrix(3.7795 0 0 3.7795 .00014314 .031541)" gradientUnits="userSpaceOnUse">
   <stop stop-color="#f1efeb" offset="0"/>
   <stop stop-color="#fdfcfc" offset="1"/>
  </linearGradient>
 </defs>
 <g transform="scale(3.7796)" shape-rendering="auto">
  <path d="m4.3693 0.52916c-2.1142 0-3.8402 1.7835-3.8402 3.9682v8.4675c0 2.1846 1.726 3.9682 3.8402 3.9682h8.1944c2.1142 0 3.8402-1.7835 3.8402-3.9682v-8.4675c0-2.1846-1.726-3.9682-3.8402-3.9682zm0.25704 0.52089h7.6808c1.8443 0 3.3291 1.5342 3.3291 3.44v7.9368c0 1.9058-1.4847 3.44-3.3291 3.44h-7.6808c-1.8443 0-3.3291-1.5342-3.3291-3.44v-7.9368c0-1.9058 1.4847-3.44 3.3291-3.44z" color="#000000" color-rendering="auto" dominant-baseline="auto" image-rendering="auto" opacity=".01" solid-color="#000000" stop-color="#000000" style="font-feature-settings:normal;font-variant-alternates:normal;font-variant-caps:normal;font-variant-east-asian:normal;font-variant-ligatures:normal;font-variant-numeric:normal;font-variant-position:normal;font-variation-settings:normal;inline-size:0;isolation:auto;mix-blend-mode:normal;shape-margin:0;shape-padding:0;text-decoration-color:#000000;text-decoration-line:none;text-decoration-style:solid;text-indent:0;text-orientation:mixed;text-transform:none;white-space:normal"/>
  <path d="m4.3587 0.79373c-1.9668 0-3.5639 1.6528-3.5639 3.6876v8.4996c0 2.0348 1.5971 3.6876 3.5639 3.6876h8.2162c1.9668 0 3.5644-1.6528 3.5644-3.6876v-8.4996c0-2.0348-1.5976-3.6876-3.5644-3.6876zm0.27222 0.25631h7.6718c1.8422 0 3.3251 1.5342 3.3251 3.44v7.9368c0 1.9058-1.483 3.44-3.3251 3.44h-7.6718c-1.8422 0-3.3251-1.5342-3.3251-3.44v-7.9368c0-1.9058 1.483-3.44 3.3251-3.44z" color="#000000" color-rendering="auto" dominant-baseline="auto" image-rendering="auto" opacity=".01" solid-color="#000000" stop-color="#000000" style="font-feature-settings:normal;font-variant-alternates:normal;font-variant-caps:normal;font-variant-east-asian:normal;font-variant-ligatures:normal;font-variant-numeric:normal;font-variant-position:normal;font-variation-settings:normal;inline-size:0;isolation:auto;mix-blend-mode:normal;shape-margin:0;shape-padding:0;text-decoration-color:#000000;text-decoration-line:none;text-decoration-style:solid;text-indent:0;text-orientation:mixed;text-transform:none;white-space:normal"/>
  <path d="m4.3097 1.0583c-1.8657 0-3.3751 1.5383-3.3751 3.439v8.4675c0 1.9007 1.57 3.439 3.4357 3.439h8.1996c1.8657 0 3.4274-1.5383 3.4274-3.439v-8.4675c0-1.9007-1.51-3.439-3.3756-3.439h-0.09688c1.794 0.086515 3.2138 1.5819 3.2138 3.4318v7.9368c0 1.9058-1.5059 3.44-3.3766 3.44h-7.7905c-1.8707 0-3.3766-1.5342-3.3766-3.44v-7.9368c0-1.8498 1.4199-3.3451 3.2138-3.4318z" color="#000000" color-rendering="auto" dominant-baseline="auto" image-rendering="auto" opacity=".03" solid-color="#000000" stop-color="#000000" style="font-feature-settings:normal;font-variant-alternates:normal;font-variant-caps:normal;font-variant-east-asian:normal;font-variant-ligatures:normal;font-variant-numeric:normal;font-variant-position:normal;font-variation-settings:normal;inline-size:0;isolation:auto;mix-blend-mode:normal;shape-margin:0;shape-padding:0;text-decoration-color:#000000;text-decoration-line:none;text-decoration-style:solid;text-indent:0;text-orientation:mixed;text-transform:none;white-space:normal"/>
  <path transform="scale(.26458)" d="m4 46.969v2.0312c0 6.6479 5.8957 12 12.544 12h30.961c6.6479 0 12.495-5.3521 12.495-12v-1.9922c-0.02117 7.1849-5.81 12.963-13 12.963h-29.998c-7.2032 0-13.002-5.7987-13.002-13.002z" color="#000000" color-rendering="auto" dominant-baseline="auto" image-rendering="auto" opacity=".03" solid-color="#000000" stop-color="#000000" style="font-feature-settings:normal;font-variant-alternates:normal;font-variant-caps:normal;font-variant-east-asian:normal;font-variant-ligatures:normal;font-variant-numeric:normal;font-variant-position:normal;font-variation-settings:normal;inline-size:0;isolation:auto;mix-blend-mode:normal;shape-margin:0;shape-padding:0;text-decoration-color:#000000;text-decoration-line:none;text-decoration-style:solid;text-indent:0;text-orientation:mixed;text-transform:none;white-space:normal"/>
  <path d="m1.0583 11.906v0.59234c0 1.9386 1.5729 3.4993 3.3318 3.4993h8.1603c1.7589 0 3.3243-1.5608 3.3243-3.4993v-0.58095c-0.0056 2.0952-1.5372 3.7801-3.4395 3.7801h-7.9368c-1.9058 0-3.44-1.691-3.44-3.7915z" color="#000000" color-rendering="auto" dominant-baseline="auto" image-rendering="auto" opacity=".05" solid-color="#000000" stop-color="#000000" style="font-feature-settings:normal;font-variant-alternates:normal;font-variant-caps:normal;font-variant-east-asian:normal;font-variant-ligatures:normal;font-variant-numeric:normal;font-variant-position:normal;font-variation-settings:normal;inline-size:0;isolation:auto;mix-blend-mode:normal;shape-margin:0;shape-padding:0;text-decoration-color:#000000;text-decoration-line:none;text-decoration-style:solid;text-indent:0;text-orientation:mixed;text-transform:none;white-space:normal"/>
 </g>
 <rect x="4" y="4" width="56" height="56" rx="13.002" ry="13.002" fill="url(#linearGradient862-3)" stroke-width="3.7795"/>
 <g stroke-width="3.2211">
  <path d="m30.027 8.0726a3.2984 3.2984 0 0 0-2.3417 0.96958 3.3016 3.3016 0 0 0 0 4.6803l9.193 9.193h-23.965a3.3016 3.3016 0 0 0-3.3081 3.3081 3.3016 3.3016 0 0 0 3.3081 3.3081c3.4466-0.0097 8.333-0.0097 13.013-0.0097l-16.956 16.953a3.3016 3.3016 0 0 0 0 4.6771 3.3016 3.3016 0 0 0 4.6771 0c2.49-2.4996 6.0556-6.0653 9.4383-9.4475a16.544 16.544 0 0 0 16.37 14.295c9.1351 0 16.544-7.4086 16.544-16.544a16.544 16.544 0 0 0-5.6692-12.453 8261.8 8261.8 0 0 1-17.964-17.961 3.2984 3.2984 0 0 0-2.3385-0.97281zm9.6211 27.447a3.8621 3.8621 0 1 1 0 7.7242 3.8621 3.8621 0 0 1 0-7.7242z" fill="url(#linearGradient924)"/>
  <path d="m39.636 26.684a12.711 12.711 0 0 0-12.711 12.711 12.711 12.711 0 0 0 12.711 12.711 12.711 12.711 0 0 0 12.707-12.711 12.711 12.711 0 0 0-12.707-12.711zm0 7.7403a4.9701 4.9701 0 0 1 4.9701 4.9701 4.9701 4.9701 0 0 1-4.9701 4.9701 4.9701 4.9701 0 0 1-4.9734-4.9701 4.9701 4.9701 0 0 1 4.9734-4.9701z" fill="#fff" fill-opacity=".099"/>
  <path d="m39.636 29.458a9.9275 9.9275 0 0 0-9.9275 9.9238 9.9275 9.9275 0 0 0 9.9275 9.9275 9.9275 9.9275 0 0 0 9.9238-9.9275 9.9275 9.9275 0 0 0-9.9238-9.9238zm0 6.0428a3.8815 3.8815 0 0 1 3.8815 3.8815 3.8815 3.8815 0 0 1-3.8815 3.8815 3.8815 3.8815 0 0 1-3.8846-3.8815 3.8815 3.8815 0 0 1 3.8846-3.8815z" fill="#fff"/>
  <circle cx="39.636" cy="39.394" r="5.0797" color="#000000" display="block" fill="url(#linearGradient932)" overflow="visible" style="isolation:auto;mix-blend-mode:normal" paint-order="fill markers stroke"/>
  <path d="m30.027 8.0726a3.2984 3.2984 0 0 0-2.3417 0.96958 3.3016 3.3016 0 0 0 0 4.6803l9.193 9.193-6.8513-14.846z" fill="url(#c-3)" opacity=".5"/>
  <path d="m10.395 23.907a3.2984 3.2984 0 0 0-0.96635 2.3417 3.3016 3.3016 0 0 0 3.3081 3.3081h13z" fill="url(#d-3)" opacity=".5"/>
  <path d="m8.2817 48.452c0 0.84393 0.32533 1.691 0.97281 2.3385a3.3016 3.3016 0 0 0 4.6803 0l9.193-9.193z" fill="url(#e-5)" opacity=".5"/>
 </g>
</svg>
