<?xml version="1.0" encoding="UTF-8" standalone="no"?>
<svg
   xmlns:dc="http://purl.org/dc/elements/1.1/"
   xmlns:cc="http://creativecommons.org/ns#"
   xmlns:rdf="http://www.w3.org/1999/02/22-rdf-syntax-ns#"
   xmlns:svg="http://www.w3.org/2000/svg"
   xmlns="http://www.w3.org/2000/svg"
   xmlns:xlink="http://www.w3.org/1999/xlink"
   xmlns:sodipodi="http://sodipodi.sourceforge.net/DTD/sodipodi-0.dtd"
   xmlns:inkscape="http://www.inkscape.org/namespaces/inkscape"
   width="64"
   height="64"
   version="1.1"
   viewBox="0 0 16.933 16.933"
   id="svg288"
   sodipodi:docname="calc.svg"
   inkscape:version="1.0.1 (3bc2e813f5, 2020-09-07)">
  <metadata
     id="metadata292">
    <rdf:RDF>
      <cc:Work
         rdf:about="">
        <dc:format>image/svg+xml</dc:format>
        <dc:type
           rdf:resource="http://purl.org/dc/dcmitype/StillImage" />
      </cc:Work>
    </rdf:RDF>
  </metadata>
  <sodipodi:namedview
     pagecolor="#ffffff"
     bordercolor="#666666"
     borderopacity="1"
     objecttolerance="10"
     gridtolerance="10"
     guidetolerance="10"
     inkscape:pageopacity="0"
     inkscape:pageshadow="2"
     inkscape:window-width="2160"
     inkscape:window-height="1312"
     id="namedview290"
     showgrid="false"
     inkscape:zoom="11.484375"
     inkscape:cx="38.398821"
     inkscape:cy="32"
     inkscape:window-x="0"
     inkscape:window-y="30"
     inkscape:window-maximized="1"
     inkscape:current-layer="svg288" />
  <defs
     id="defs72">
    <linearGradient
       id="linearGradient1129">
      <stop
         offset="0"
         id="stop2" />
      <stop
         stop-opacity="0"
         offset="1"
         id="stop4" />
    </linearGradient>
    <linearGradient
       id="linearGradient1102"
       x1="8.4665"
       x2="8.4665"
       y1="15.875"
       y2="1.0583"
       gradientTransform="matrix(.89283 0 0 .89283 44.221 .9146)"
       gradientUnits="userSpaceOnUse">
      <stop
         stop-color="#161616"
         offset="0"
         id="stop22" />
      <stop
         stop-color="#474747"
         offset="1"
         id="stop24" />
    </linearGradient>
    <linearGradient
       id="linearGradient1110"
       x1="8.4668"
       x2="8.4668"
       y1="14.808"
       y2="2.1086"
       gradientTransform="translate(43.314 .0079998)"
       gradientUnits="userSpaceOnUse">
      <stop
         stop-color="#2f5fdd"
         offset="0"
         id="stop27" />
      <stop
         stop-color="#1a7fd4"
         offset="1"
         id="stop29" />
    </linearGradient>
    <linearGradient
       id="linearGradient1131"
       x1="8.4665"
       x2="8.4665"
       y1="1.852"
       y2="2.6458"
       gradientTransform="matrix(1,0,0,2,0,-1.852)"
       gradientUnits="userSpaceOnUse"
       xlink:href="#linearGradient1129" />
    <radialGradient
       id="radialGradient1146"
       cx="16"
       cy="16"
       r="4.5"
       gradientTransform="matrix(6.7193e-8,-2,2,-1.4533e-7,-16,48)"
       gradientUnits="userSpaceOnUse">
      <stop
         stop-opacity="0"
         offset="0"
         id="stop33" />
      <stop
         stop-opacity="0"
         offset=".33333"
         id="stop35" />
      <stop
         offset="1"
         id="stop37" />
    </radialGradient>
    <radialGradient
       id="radialGradient1152"
       cx="16"
       cy="16"
       r="4.5"
       gradientTransform="matrix(1.7778e-8 .52916 .52916 3.845e-8 -4.2333 4.2332)"
       gradientUnits="userSpaceOnUse">
      <stop
         stop-opacity="0"
         offset="0"
         id="stop40" />
      <stop
         stop-opacity="0"
         offset=".33333"
         id="stop42" />
      <stop
         offset="1"
         id="stop44" />
    </radialGradient>
    <linearGradient
       id="linearGradient1156"
       x1="8.4665"
       x2="8.4665"
       y1="1.852"
       y2="2.6458"
       gradientTransform="matrix(1,0,0,2,-16.933,-1.852)"
       gradientUnits="userSpaceOnUse"
       xlink:href="#linearGradient1129" />
    <linearGradient
       id="linearGradient1160"
       x1="8.4665"
       x2="8.4665"
       y1="1.852"
       y2="2.6458"
       gradientTransform="matrix(.5 0 0 2 -10.583 -18.785)"
       gradientUnits="userSpaceOnUse"
       xlink:href="#linearGradient1129" />
    <radialGradient
       id="radialGradient1164"
       cx="16"
       cy="16"
       r="4.5"
       gradientTransform="matrix(.52916 1.7778e-8 3.845e-8 .52916 4.2332 -4.2333)"
       gradientUnits="userSpaceOnUse">
      <stop
         stop-opacity="0"
         offset="0"
         id="stop49" />
      <stop
         stop-opacity="0"
         offset=".33333"
         id="stop51" />
      <stop
         offset="1"
         id="stop53" />
    </radialGradient>
    <linearGradient
       id="linearGradient1168"
       x1="8.4665"
       x2="8.4665"
       y1="1.852"
       y2="2.6458"
       gradientTransform="matrix(.5 0 0 2 2.1166 -18.785)"
       gradientUnits="userSpaceOnUse"
       xlink:href="#linearGradient1129" />
    <linearGradient
       id="linearGradient1499"
       x1="8.4668"
       x2="8.4668"
       y1="14.808"
       y2="2.1086"
       gradientTransform="translate(43.314 .0079998)"
       gradientUnits="userSpaceOnUse"
       xlink:href="#linearGradient1110" />
  </defs>
  <g
     transform="translate(-43.314 -6e-5)"
     id="g186">
    <g
       transform="translate(43.314)"
       shape-rendering="auto"
       id="g136">
      <path
         d="m4.3693 0.52916c-2.1142 0-3.8402 1.7835-3.8402 3.9682v8.4675c0 2.1846 1.726 3.9682 3.8402 3.9682h8.1944c2.1142 0 3.8402-1.7835 3.8402-3.9682v-8.4675c0-2.1846-1.726-3.9682-3.8402-3.9682zm0.25704 0.52089h7.6808c1.8443 0 3.3291 1.5342 3.3291 3.44v7.9368c0 1.9058-1.4847 3.44-3.3291 3.44h-7.6808c-1.8443 0-3.3291-1.5342-3.3291-3.44v-7.9368c0-1.9058 1.4847-3.44 3.3291-3.44z"
         color="#000000"
         color-rendering="auto"
         dominant-baseline="auto"
         image-rendering="auto"
         opacity=".01"
         solid-color="#000000"
         stop-color="#000000"
         style="font-feature-settings:normal;font-variant-alternates:normal;font-variant-caps:normal;font-variant-east-asian:normal;font-variant-ligatures:normal;font-variant-numeric:normal;font-variant-position:normal;font-variation-settings:normal;inline-size:0;isolation:auto;mix-blend-mode:normal;shape-margin:0;shape-padding:0;text-decoration-color:#000000;text-decoration-line:none;text-decoration-style:solid;text-indent:0;text-orientation:mixed;text-transform:none;white-space:normal"
         id="path126" />
      <path
         d="m4.3587 0.79373c-1.9668 0-3.5639 1.6528-3.5639 3.6876v8.4996c0 2.0348 1.5971 3.6876 3.5639 3.6876h8.2162c1.9668 0 3.5644-1.6528 3.5644-3.6876v-8.4996c0-2.0348-1.5976-3.6876-3.5644-3.6876zm0.27222 0.25631h7.6718c1.8422 0 3.3251 1.5342 3.3251 3.44v7.9368c0 1.9058-1.483 3.44-3.3251 3.44h-7.6718c-1.8422 0-3.3251-1.5342-3.3251-3.44v-7.9368c0-1.9058 1.483-3.44 3.3251-3.44z"
         color="#000000"
         color-rendering="auto"
         dominant-baseline="auto"
         image-rendering="auto"
         opacity=".01"
         solid-color="#000000"
         stop-color="#000000"
         style="font-feature-settings:normal;font-variant-alternates:normal;font-variant-caps:normal;font-variant-east-asian:normal;font-variant-ligatures:normal;font-variant-numeric:normal;font-variant-position:normal;font-variation-settings:normal;inline-size:0;isolation:auto;mix-blend-mode:normal;shape-margin:0;shape-padding:0;text-decoration-color:#000000;text-decoration-line:none;text-decoration-style:solid;text-indent:0;text-orientation:mixed;text-transform:none;white-space:normal"
         id="path128" />
      <path
         d="m4.3097 1.0583c-1.8657 0-3.3751 1.5383-3.3751 3.439v8.4675c0 1.9007 1.57 3.439 3.4357 3.439h8.1996c1.8657 0 3.4274-1.5383 3.4274-3.439v-8.4675c0-1.9007-1.51-3.439-3.3756-3.439h-0.09688c1.794 0.086515 3.2138 1.5819 3.2138 3.4318v7.9368c0 1.9058-1.5059 3.44-3.3766 3.44h-7.7905c-1.8707 0-3.3766-1.5342-3.3766-3.44v-7.9368c0-1.8498 1.4199-3.3451 3.2138-3.4318z"
         color="#000000"
         color-rendering="auto"
         dominant-baseline="auto"
         image-rendering="auto"
         opacity=".03"
         solid-color="#000000"
         stop-color="#000000"
         style="font-feature-settings:normal;font-variant-alternates:normal;font-variant-caps:normal;font-variant-east-asian:normal;font-variant-ligatures:normal;font-variant-numeric:normal;font-variant-position:normal;font-variation-settings:normal;inline-size:0;isolation:auto;mix-blend-mode:normal;shape-margin:0;shape-padding:0;text-decoration-color:#000000;text-decoration-line:none;text-decoration-style:solid;text-indent:0;text-orientation:mixed;text-transform:none;white-space:normal"
         id="path130" />
      <path
         transform="scale(.26458)"
         d="m4 46.969v2.0312c0 6.6479 5.8957 12 12.544 12h30.961c6.6479 0 12.495-5.3521 12.495-12v-1.9922c-0.02117 7.1849-5.81 12.963-13 12.963h-29.998c-7.2032 0-13.002-5.7987-13.002-13.002z"
         color="#000000"
         color-rendering="auto"
         dominant-baseline="auto"
         image-rendering="auto"
         opacity=".03"
         solid-color="#000000"
         stop-color="#000000"
         style="font-feature-settings:normal;font-variant-alternates:normal;font-variant-caps:normal;font-variant-east-asian:normal;font-variant-ligatures:normal;font-variant-numeric:normal;font-variant-position:normal;font-variation-settings:normal;inline-size:0;isolation:auto;mix-blend-mode:normal;shape-margin:0;shape-padding:0;text-decoration-color:#000000;text-decoration-line:none;text-decoration-style:solid;text-indent:0;text-orientation:mixed;text-transform:none;white-space:normal"
         id="path132" />
      <path
         d="m1.0583 11.906v0.59234c0 1.9386 1.5729 3.4993 3.3318 3.4993h8.1603c1.7589 0 3.3243-1.5608 3.3243-3.4993v-0.58095c-0.0056 2.0952-1.5372 3.7801-3.4395 3.7801h-7.9368c-1.9058 0-3.44-1.691-3.44-3.7915z"
         color="#000000"
         color-rendering="auto"
         dominant-baseline="auto"
         image-rendering="auto"
         opacity=".05"
         solid-color="#000000"
         stop-color="#000000"
         style="font-feature-settings:normal;font-variant-alternates:normal;font-variant-caps:normal;font-variant-east-asian:normal;font-variant-ligatures:normal;font-variant-numeric:normal;font-variant-position:normal;font-variation-settings:normal;inline-size:0;isolation:auto;mix-blend-mode:normal;shape-margin:0;shape-padding:0;text-decoration-color:#000000;text-decoration-line:none;text-decoration-style:solid;text-indent:0;text-orientation:mixed;text-transform:none;white-space:normal"
         id="path134" />
    </g>
    <rect
       x="44.372"
       y="1.058"
       width="14.817"
       height="14.817"
       rx="3.1753"
       ry="3.1753"
       fill="url(#linearGradient1499)"
       id="rect138" />
    <path
       d="m47.547 1.8521c-1.3192 0-2.3812 1.062-2.3812 2.3812v8.4666c0 1.3192 1.062 2.3812 2.3812 2.3812h4.2333v-5.027c0-0.87946 0.70802-1.5875 1.5875-1.5875h5.027v-4.2333c0-1.3192-1.062-2.3812-2.3812-2.3812z"
       fill="url(#linearGradient1102)"
       stroke-width=".26458"
       id="path140" />
    <g
       transform="translate(43.314)"
       stroke-linecap="round"
       stroke-linejoin="round"
       id="g156">
      <rect
         x="4.2333"
         y="1.852"
         width="8.4665"
         height="1.5875"
         rx="0"
         ry="0"
         fill="url(#linearGradient1131)"
         opacity=".15"
         stroke-width=".57966"
         id="rect142" />
      <path
         transform="scale(.26458)"
         d="m15.99 7a9 9 0 0 0-8.9902 9h9v-9a9 9 0 0 0-0.0098 0z"
         fill="url(#radialGradient1146)"
         opacity=".15"
         stroke-width="2.5714"
         id="path144" />
      <path
         d="m4.2307 15.081a2.3812 2.3812 0 0 1-2.3786-2.3812h2.3812v2.3812a2.3812 2.3812 0 0 1-0.00258 0z"
         fill="url(#radialGradient1152)"
         opacity=".15"
         stroke-width=".68034"
         id="path146" />
      <rect
         transform="rotate(-90)"
         x="-12.7"
         y="1.852"
         width="8.4665"
         height="1.5875"
         rx="0"
         ry="0"
         fill="url(#linearGradient1156)"
         opacity=".15"
         stroke-width=".57966"
         id="rect148" />
      <rect
         transform="matrix(0,-1,-1,0,0,0)"
         x="-8.4665"
         y="-15.081"
         width="4.2333"
         height="1.5875"
         rx="0"
         ry="0"
         fill="url(#linearGradient1160)"
         opacity=".15"
         stroke-width=".40988"
         id="rect150" />
      <path
         d="m15.081 4.2307a2.3812 2.3812 0 0 0-2.3812-2.3786v2.3812h2.3812a2.3812 2.3812 0 0 0 0-0.0026z"
         fill="url(#radialGradient1164)"
         opacity=".15"
         stroke-width=".68034"
         id="path152" />
      <rect
         transform="scale(1,-1)"
         x="4.2333"
         y="-15.081"
         width="4.2332"
         height="1.5875"
         rx="0"
         ry="0"
         fill="url(#linearGradient1168)"
         opacity=".15"
         stroke-width=".40988"
         id="rect154" />
    </g>
    <g
       transform="translate(43.314)"
       id="g182">
      <path
         d="m5.1596 4.4104c-0.07329 0-0.13229 0.059001-0.13229 0.13229v0.92603h-0.92603c-0.07329 0-0.13229 0.059001-0.13229 0.13229s0.059 0.13229 0.13229 0.13229h0.92603v0.92603c0 0.073289 0.059 0.13229 0.13229 0.13229s0.13229-0.059001 0.13229-0.13229v-0.92603h0.92603c0.07329 0 0.13229-0.059001 0.13229-0.13229s-0.059-0.13229-0.13229-0.13229h-0.92603v-0.92603c0-0.073289-0.059-0.13229-0.13229-0.13229z"
         opacity=".15"
         stroke-width=".26458"
         id="path158" />
      <path
         d="m12.964 5.601c0 0.073288-0.059 0.13229-0.13229 0.13229h-2.1166c-0.07329 0-0.13229-0.059001-0.13229-0.13229 0-0.073288 0.059-0.13229 0.13229-0.13229h2.1166c0.07329 0 0.13229 0.059001 0.13229 0.13229z"
         opacity=".15"
         id="path160" />
      <path
         d="m6.0015 10.977c-0.05182-0.05182-0.13526-0.05182-0.18708 0l-0.6548 0.6548-0.6548-0.6548c-0.05182-0.05182-0.13526-0.05182-0.18708 0s-0.05182 0.13526 0 0.18708l0.6548 0.6548-0.6548 0.6548c-0.05182 0.05182-0.05182 0.13526 0 0.18708s0.13526 0.05182 0.18708 0l0.6548-0.6548 0.6548 0.6548c0.05182 0.05182 0.13526 0.05182 0.18708 0s0.05182-0.13526 0-0.18708l-0.6548-0.6548 0.6548-0.6548c0.05182-0.05182 0.05182-0.13526 0-0.18708z"
         opacity=".15"
         id="path162" />
      <g
         fill="#fff"
         id="g170">
        <path
           d="m5.1596 4.2333c-0.07329 0-0.13229 0.059001-0.13229 0.13229v0.92603h-0.92603c-0.07329 0-0.13229 0.059001-0.13229 0.13229s0.059 0.13229 0.13229 0.13229h0.92603v0.92603c0 0.073289 0.059 0.13229 0.13229 0.13229s0.13229-0.059001 0.13229-0.13229v-0.92603h0.92603c0.07329 0 0.13229-0.059001 0.13229-0.13229s-0.059-0.13229-0.13229-0.13229h-0.92603v-0.92603c0-0.073289-0.059-0.13229-0.13229-0.13229z"
           stroke-width=".26458"
           id="path164" />
        <path
           d="m12.964 5.4239c0 0.073288-0.059 0.13229-0.13229 0.13229h-2.1166c-0.07329 0-0.13229-0.059001-0.13229-0.13229 0-0.073288 0.059-0.13229 0.13229-0.13229h2.1166c0.07329 0 0.13229 0.059001 0.13229 0.13229z"
           id="path166" />
        <path
           d="m6.0015 10.8c-0.05182-0.05182-0.13526-0.05182-0.18708 0l-0.6548 0.6548-0.6548-0.6548c-0.05182-0.05182-0.13526-0.05182-0.18708 0s-0.05182 0.13526 0 0.18708l0.6548 0.6548-0.6548 0.6548c-0.05182 0.05182-0.05182 0.13526 0 0.18708s0.13526 0.05182 0.18708 0l0.6548-0.6548 0.6548 0.6548c0.05182 0.05182 0.13526 0.05182 0.18708 0s0.05182-0.13526 0-0.18708l-0.6548-0.6548 0.6548-0.6548c0.05182-0.05182 0.05182-0.13526 0-0.18708z"
           id="path168" />
      </g>
      <g
         stroke-width="1.0541"
         id="g180">
        <path
           d="m13.229 11.378c0 0.07329-0.06555 0.13229-0.14699 0.13229h-2.3518c-0.08143 0-0.14699-0.059-0.14699-0.13229s0.06555-0.13229 0.14699-0.13229h2.3518c0.08143 0 0.14699 0.059 0.14699 0.13229z"
           opacity=".15"
           id="path172" />
        <path
           d="m13.229 12.7c0 0.07329-0.06555 0.13229-0.14699 0.13229h-2.3518c-0.08143 0-0.14699-0.059-0.14699-0.13229s0.06555-0.13229 0.14699-0.13229h2.3518c0.08143 0 0.14699 0.059 0.14699 0.13229z"
           opacity=".15"
           id="path174" />
        <path
           d="m13.229 11.245c0 0.07329-0.06556 0.13229-0.14699 0.13229h-2.3518c-0.08143 0-0.14699-0.059-0.14699-0.13229s0.06556-0.13229 0.14699-0.13229h2.3518c0.08143 0 0.14699 0.059 0.14699 0.13229z"
           fill="#fff"
           id="path176" />
        <path
           d="m13.229 12.567c0 0.07329-0.06556 0.13229-0.14699 0.13229h-2.3518c-0.08143 0-0.14699-0.059-0.14699-0.13229s0.06556-0.13229 0.14699-0.13229h2.3518c0.08143 0 0.14699 0.059 0.14699 0.13229z"
           fill="#fff"
           id="path178" />
      </g>
    </g>
    <path
       d="m53.368 8.202c-1.026 0-1.8521 0.82602-1.8521 1.8521v5.027h0.26458v-5.027c0-0.87946 0.70802-1.5875 1.5875-1.5875h5.027v-0.26458z"
       opacity=".1"
       stroke-linecap="round"
       stroke-linejoin="round"
       stroke-width=".52916"
       id="path184" />
  </g>
</svg>
