<svg width="64" height="64" version="1.1" viewBox="0 0 16.933 16.933" xmlns="http://www.w3.org/2000/svg">
 <defs>
  <linearGradient id="linearGradient862" x1="7.9373" x2="7.9373" y1="15.081" y2="1.852" gradientUnits="userSpaceOnUse">
   <stop stop-color="#eae8e9" offset="0"/>
   <stop stop-color="#f9f8f9" offset="1"/>
  </linearGradient>
  <linearGradient id="u" x1="156.01" x2="153.58" y1="227.93" y2="228.01" gradientTransform="matrix(1.7465 .86387 -.33199 .6989 -100.54 -239.13)" gradientUnits="userSpaceOnUse">
   <stop stop-color="#e5a50a" offset="0"/>
   <stop stop-color="#f6d32d" offset="1"/>
  </linearGradient>
 </defs>
 <g shape-rendering="auto">
  <path d="m4.3693 0.52916c-2.1142 0-3.8402 1.7835-3.8402 3.9682v8.4675c0 2.1846 1.726 3.9682 3.8402 3.9682h8.1944c2.1142 0 3.8402-1.7835 3.8402-3.9682v-8.4675c0-2.1846-1.726-3.9682-3.8402-3.9682zm0.25704 0.52089h7.6808c1.8443 0 3.3291 1.5342 3.3291 3.44v7.9368c0 1.9058-1.4847 3.44-3.3291 3.44h-7.6808c-1.8443 0-3.3291-1.5342-3.3291-3.44v-7.9368c0-1.9058 1.4847-3.44 3.3291-3.44z" color="#000000" color-rendering="auto" dominant-baseline="auto" image-rendering="auto" opacity=".01" solid-color="#000000" stop-color="#000000" style="font-feature-settings:normal;font-variant-alternates:normal;font-variant-caps:normal;font-variant-east-asian:normal;font-variant-ligatures:normal;font-variant-numeric:normal;font-variant-position:normal;font-variation-settings:normal;inline-size:0;isolation:auto;mix-blend-mode:normal;shape-margin:0;shape-padding:0;text-decoration-color:#000000;text-decoration-line:none;text-decoration-style:solid;text-indent:0;text-orientation:mixed;text-transform:none;white-space:normal"/>
  <path d="m4.3587 0.79373c-1.9668 0-3.5639 1.6528-3.5639 3.6876v8.4996c0 2.0348 1.5971 3.6876 3.5639 3.6876h8.2162c1.9668 0 3.5644-1.6528 3.5644-3.6876v-8.4996c0-2.0348-1.5976-3.6876-3.5644-3.6876zm0.27222 0.25631h7.6718c1.8422 0 3.3251 1.5342 3.3251 3.44v7.9368c0 1.9058-1.483 3.44-3.3251 3.44h-7.6718c-1.8422 0-3.3251-1.5342-3.3251-3.44v-7.9368c0-1.9058 1.483-3.44 3.3251-3.44z" color="#000000" color-rendering="auto" dominant-baseline="auto" image-rendering="auto" opacity=".01" solid-color="#000000" stop-color="#000000" style="font-feature-settings:normal;font-variant-alternates:normal;font-variant-caps:normal;font-variant-east-asian:normal;font-variant-ligatures:normal;font-variant-numeric:normal;font-variant-position:normal;font-variation-settings:normal;inline-size:0;isolation:auto;mix-blend-mode:normal;shape-margin:0;shape-padding:0;text-decoration-color:#000000;text-decoration-line:none;text-decoration-style:solid;text-indent:0;text-orientation:mixed;text-transform:none;white-space:normal"/>
  <path d="m4.3097 1.0583c-1.8657 0-3.3751 1.5383-3.3751 3.439v8.4675c0 1.9007 1.57 3.439 3.4357 3.439h8.1996c1.8657 0 3.4274-1.5383 3.4274-3.439v-8.4675c0-1.9007-1.51-3.439-3.3756-3.439h-0.09688c1.794 0.086515 3.2138 1.5819 3.2138 3.4318v7.9368c0 1.9058-1.5059 3.44-3.3766 3.44h-7.7905c-1.8707 0-3.3766-1.5342-3.3766-3.44v-7.9368c0-1.8498 1.4199-3.3451 3.2138-3.4318z" color="#000000" color-rendering="auto" dominant-baseline="auto" image-rendering="auto" opacity=".03" solid-color="#000000" stop-color="#000000" style="font-feature-settings:normal;font-variant-alternates:normal;font-variant-caps:normal;font-variant-east-asian:normal;font-variant-ligatures:normal;font-variant-numeric:normal;font-variant-position:normal;font-variation-settings:normal;inline-size:0;isolation:auto;mix-blend-mode:normal;shape-margin:0;shape-padding:0;text-decoration-color:#000000;text-decoration-line:none;text-decoration-style:solid;text-indent:0;text-orientation:mixed;text-transform:none;white-space:normal"/>
  <path transform="scale(.26458)" d="m4 46.969v2.0312c0 6.6479 5.8957 12 12.544 12h30.961c6.6479 0 12.495-5.3521 12.495-12v-1.9922c-0.02117 7.1849-5.81 12.963-13 12.963h-29.998c-7.2032 0-13.002-5.7987-13.002-13.002z" color="#000000" color-rendering="auto" dominant-baseline="auto" image-rendering="auto" opacity=".03" solid-color="#000000" stop-color="#000000" style="font-feature-settings:normal;font-variant-alternates:normal;font-variant-caps:normal;font-variant-east-asian:normal;font-variant-ligatures:normal;font-variant-numeric:normal;font-variant-position:normal;font-variation-settings:normal;inline-size:0;isolation:auto;mix-blend-mode:normal;shape-margin:0;shape-padding:0;text-decoration-color:#000000;text-decoration-line:none;text-decoration-style:solid;text-indent:0;text-orientation:mixed;text-transform:none;white-space:normal"/>
  <path d="m1.0583 11.906v0.59234c0 1.9386 1.5729 3.4993 3.3318 3.4993h8.1603c1.7589 0 3.3243-1.5608 3.3243-3.4993v-0.58095c-0.0056 2.0952-1.5372 3.7801-3.4395 3.7801h-7.9368c-1.9058 0-3.44-1.691-3.44-3.7915z" color="#000000" color-rendering="auto" dominant-baseline="auto" image-rendering="auto" opacity=".05" solid-color="#000000" stop-color="#000000" style="font-feature-settings:normal;font-variant-alternates:normal;font-variant-caps:normal;font-variant-east-asian:normal;font-variant-ligatures:normal;font-variant-numeric:normal;font-variant-position:normal;font-variation-settings:normal;inline-size:0;isolation:auto;mix-blend-mode:normal;shape-margin:0;shape-padding:0;text-decoration-color:#000000;text-decoration-line:none;text-decoration-style:solid;text-indent:0;text-orientation:mixed;text-transform:none;white-space:normal"/>
 </g>
 <rect x="1.0583" y="1.05" width="14.817" height="14.817" rx="3.4401" ry="3.4401" fill="url(#linearGradient862)"/>
 <g transform="translate(13.069 -3.7485)" stroke-linecap="round" stroke-linejoin="round" stroke-opacity=".35" stroke-width=".074834">
  <rect x="-10.783" y="9.0822" width="12.171" height=".13229" rx="0" ry=".066145" opacity=".1875"/>
  <rect x="-10.783" y="11.199" width="12.171" height=".13229" rx="0" ry=".066145" opacity=".1875"/>
  <rect x="-10.783" y="13.315" width="12.171" height=".13229" rx="0" ry=".066145" opacity=".1875"/>
  <rect x="-10.783" y="15.167" width="12.171" height=".13229" rx="0" ry=".066145" opacity=".1875"/>
  <rect x="-10.783" y="17.284" width="12.171" height=".13229" rx="0" ry=".066145" opacity=".1875"/>
  <rect x="-10.594" y="7.0132" width="12.171" height=".13229" rx="0" ry=".066145" opacity=".1875"/>
 </g>
 <g transform="matrix(.13625 0 0 .13625 -.23802 -.9029)">
  <path d="m75.672 47.988c-3.8984 0-5.6445 1.4766-10.887 9.6797l-7.3945 11.695-3.4961-11.965c-2.1523-7.5273-5.1094-9.4102-8.6016-9.4102-3.8984 0-8.6055 3.3594-14.656 10.215-0.67188 0.53906 0.53906 1.75 1.0781 1.0781 3.6289-3.7656 6.7188-5.5117 9.0039-5.5117 1.8828 0 4.5742 0.9375 6.7227 8.0625l4.5703 15.328-9.4102 13.98c-2.1484 3.0898-4.168 4.0312-5.9141 4.0312-2.6875 0-2.957-2.6875-6.0508-2.6875-2.1484 0-3.6289 1.3438-3.8984 3.2266-0.53516 3.6289 3.2266 6.7188 6.7227 6.7188 4.0352 0 5.7812-1.6133 10.891-9.8125l8.332-13.172 4.3047 14.516c2.0156 6.9922 4.5703 8.4688 8.0625 8.4688 3.8984 0 8.6055-3.4922 14.652-10.215 0.67578-0.67188-0.40234-1.7461-1.0742-1.2109-3.6289 3.7656-6.5859 5.5117-8.8711 5.5117-2.0156 0-4.4375-0.53906-6.3203-6.8555l-5.375-18.148 8.4688-12.367c2.1523-2.957 4.168-4.0312 5.9141-4.0312 2.6875 0 2.957 2.6875 6.0508 2.6875 2.1484 0 3.6289-1.3438 3.8984-3.2266 0.53516-3.4961-3.2266-6.5859-6.7227-6.5859z" fill="#3d3846"/>
  <g fill-rule="evenodd">
   <path d="m80.324 92.418c-0.61719 1.3086-1.7969 2.0234-2.6328 1.5938-0.83984-0.42969-1.0156-1.8398-0.40234-3.1523 0.61719-1.3086 1.7969-2.0234 2.6328-1.5938 0.83984 0.42969 1.0195 1.8398 0.40234 3.1523z" fill="#77767b"/>
   <path d="m77.477 90.914c-1.6094-0.78516 0.25391-9.1094-0.08203-14.453l13.156 6.7773c-4.3203 3.0391-8.7734 9.957-10.227 9.1797" fill="url(#u)"/>
   <path d="m110.35 15.094c-1.7891-0.91797-3.7031-0.65625-4.2891 0.58594l-17.281 36.695-10.297 21.867-1.0547 2.2461-0.03906 3.6602 8.543 4.3867 4.6328-1.3047 1.0547-2.2461 10.297-21.867 17.281-36.695c0.58594-1.2422-0.38672-2.9844-2.1758-3.9023z" fill="#ffbe6f"/>
   <path d="m111.63 15.781-18.328 38.918-10.297 21.867-2.4531 5.2109 4.2539 2.1836 3.6328-1.8203 2.1211 1.0898 1.0547-2.2461 10.297-21.867 17.281-36.695c0.58594-1.2422-0.0742-2.7305-1.25-3.332z" fill="#ff7800"/>
   <path d="m86.941 78.582-2.457 5.2109 3.2891 1.6875 2.7891-2.25 1.0547-2.2461 27.578-58.562c0.75782-1.6094 0.45703-2.5508-2.2266-3.9297l-1.3633-0.69922" fill="#e66100"/>
   <path d="m110.35 15.094c-1.7891-0.91797-3.7031-0.65625-4.2891 0.58594l13.137 6.7422c1.043-1.9492-0.38672-2.9844-2.1758-3.9023z" fill="#3d3846"/>
  </g>
 </g>
</svg>
