<svg width="64" height="64" version="1.1" viewBox="0 0 16.933 16.933" xmlns="http://www.w3.org/2000/svg">
 <g transform="translate(0,-6e-5)" shape-rendering="auto">
  <path d="m4.3693 0.52916c-2.1142 0-3.8402 1.7835-3.8402 3.9682v8.4675c0 2.1846 1.726 3.9682 3.8402 3.9682h8.1944c2.1142 0 3.8402-1.7835 3.8402-3.9682v-8.4675c0-2.1846-1.726-3.9682-3.8402-3.9682zm0.25704 0.52089h7.6808c1.8443 0 3.3291 1.5342 3.3291 3.44v7.9368c0 1.9058-1.4847 3.44-3.3291 3.44h-7.6808c-1.8443 0-3.3291-1.5342-3.3291-3.44v-7.9368c0-1.9058 1.4847-3.44 3.3291-3.44z" color="#000000" color-rendering="auto" dominant-baseline="auto" image-rendering="auto" opacity=".01" solid-color="#000000" stop-color="#000000" style="font-feature-settings:normal;font-variant-alternates:normal;font-variant-caps:normal;font-variant-east-asian:normal;font-variant-ligatures:normal;font-variant-numeric:normal;font-variant-position:normal;font-variation-settings:normal;inline-size:0;isolation:auto;mix-blend-mode:normal;shape-margin:0;shape-padding:0;text-decoration-color:#000000;text-decoration-line:none;text-decoration-style:solid;text-indent:0;text-orientation:mixed;text-transform:none;white-space:normal"/>
  <path d="m4.3587 0.79373c-1.9668 0-3.5639 1.6528-3.5639 3.6876v8.4996c0 2.0348 1.5971 3.6876 3.5639 3.6876h8.2162c1.9668 0 3.5644-1.6528 3.5644-3.6876v-8.4996c0-2.0348-1.5976-3.6876-3.5644-3.6876zm0.27222 0.25631h7.6718c1.8422 0 3.3251 1.5342 3.3251 3.44v7.9368c0 1.9058-1.483 3.44-3.3251 3.44h-7.6718c-1.8422 0-3.3251-1.5342-3.3251-3.44v-7.9368c0-1.9058 1.483-3.44 3.3251-3.44z" color="#000000" color-rendering="auto" dominant-baseline="auto" image-rendering="auto" opacity=".01" solid-color="#000000" stop-color="#000000" style="font-feature-settings:normal;font-variant-alternates:normal;font-variant-caps:normal;font-variant-east-asian:normal;font-variant-ligatures:normal;font-variant-numeric:normal;font-variant-position:normal;font-variation-settings:normal;inline-size:0;isolation:auto;mix-blend-mode:normal;shape-margin:0;shape-padding:0;text-decoration-color:#000000;text-decoration-line:none;text-decoration-style:solid;text-indent:0;text-orientation:mixed;text-transform:none;white-space:normal"/>
  <path d="m4.3097 1.0583c-1.8657 0-3.3751 1.5383-3.3751 3.439v8.4675c0 1.9007 1.57 3.439 3.4357 3.439h8.1996c1.8657 0 3.4274-1.5383 3.4274-3.439v-8.4675c0-1.9007-1.51-3.439-3.3756-3.439h-0.09688c1.794 0.086515 3.2138 1.5819 3.2138 3.4318v7.9368c0 1.9058-1.5059 3.44-3.3766 3.44h-7.7905c-1.8707 0-3.3766-1.5342-3.3766-3.44v-7.9368c0-1.8498 1.4199-3.3451 3.2138-3.4318z" color="#000000" color-rendering="auto" dominant-baseline="auto" image-rendering="auto" opacity=".03" solid-color="#000000" stop-color="#000000" style="font-feature-settings:normal;font-variant-alternates:normal;font-variant-caps:normal;font-variant-east-asian:normal;font-variant-ligatures:normal;font-variant-numeric:normal;font-variant-position:normal;font-variation-settings:normal;inline-size:0;isolation:auto;mix-blend-mode:normal;shape-margin:0;shape-padding:0;text-decoration-color:#000000;text-decoration-line:none;text-decoration-style:solid;text-indent:0;text-orientation:mixed;text-transform:none;white-space:normal"/>
  <path transform="scale(.26458)" d="m4 46.969v2.0312c0 6.6479 5.8957 12 12.544 12h30.961c6.6479 0 12.495-5.3521 12.495-12v-1.9922c-0.02117 7.1849-5.81 12.963-13 12.963h-29.998c-7.2032 0-13.002-5.7987-13.002-13.002z" color="#000000" color-rendering="auto" dominant-baseline="auto" image-rendering="auto" opacity=".03" solid-color="#000000" stop-color="#000000" style="font-feature-settings:normal;font-variant-alternates:normal;font-variant-caps:normal;font-variant-east-asian:normal;font-variant-ligatures:normal;font-variant-numeric:normal;font-variant-position:normal;font-variation-settings:normal;inline-size:0;isolation:auto;mix-blend-mode:normal;shape-margin:0;shape-padding:0;text-decoration-color:#000000;text-decoration-line:none;text-decoration-style:solid;text-indent:0;text-orientation:mixed;text-transform:none;white-space:normal"/>
  <path d="m1.0583 11.906v0.59234c0 1.9386 1.5729 3.4993 3.3318 3.4993h8.1603c1.7589 0 3.3243-1.5608 3.3243-3.4993v-0.58095c-0.0056 2.0952-1.5372 3.7801-3.4395 3.7801h-7.9368c-1.9058 0-3.44-1.691-3.44-3.7915z" color="#000000" color-rendering="auto" dominant-baseline="auto" image-rendering="auto" opacity=".05" solid-color="#000000" stop-color="#000000" style="font-feature-settings:normal;font-variant-alternates:normal;font-variant-caps:normal;font-variant-east-asian:normal;font-variant-ligatures:normal;font-variant-numeric:normal;font-variant-position:normal;font-variation-settings:normal;inline-size:0;isolation:auto;mix-blend-mode:normal;shape-margin:0;shape-padding:0;text-decoration-color:#000000;text-decoration-line:none;text-decoration-style:solid;text-indent:0;text-orientation:mixed;text-transform:none;white-space:normal"/>
 </g>
 <rect x="1.058" y="1.0579" width="14.817" height="14.817" rx="3.1753" ry="3.1753" fill="#448fff"/>
 <path d="m4.233 1.852c-1.3192 0-2.3812 1.062-2.3812 2.3812v8.4666c0 1.3192 1.062 2.3812 2.3812 2.3812h4.2333v-5.027c0-0.87946 0.70802-1.5875 1.5875-1.5875h5.027v-4.2333c0-1.3192-1.062-2.3812-2.3812-2.3812z" fill="#fff" opacity=".95" stroke-width=".26458"/>
 <path d="m5.1596 4.4103c-0.07329 0-0.13229 0.059001-0.13229 0.13229v0.92603h-0.92603c-0.07329 0-0.13229 0.059001-0.13229 0.13229s0.059 0.13229 0.13229 0.13229h0.92603v0.92603c0 0.073289 0.059 0.13229 0.13229 0.13229s0.13229-0.059001 0.13229-0.13229v-0.92603h0.92603c0.07329 0 0.13229-0.059001 0.13229-0.13229s-0.059-0.13229-0.13229-0.13229h-0.92603v-0.92603c0-0.073289-0.059-0.13229-0.13229-0.13229z" opacity=".7" stroke-width=".26458"/>
 <path d="m12.964 5.6009c0 0.073288-0.059 0.13229-0.13229 0.13229h-2.1166c-0.07329 0-0.13229-0.059001-0.13229-0.13229 0-0.073288 0.059-0.13229 0.13229-0.13229h2.1166c0.07329 0 0.13229 0.059001 0.13229 0.13229z" opacity=".7"/>
 <path d="m6.0015 10.977c-0.05182-0.05182-0.13526-0.05182-0.18708 0l-0.6548 0.6548-0.6548-0.6548c-0.05182-0.05182-0.13526-0.05182-0.18708 0s-0.05182 0.13526 0 0.18708l0.6548 0.6548-0.6548 0.6548c-0.05182 0.05182-0.05182 0.13526 0 0.18708s0.13526 0.05182 0.18708 0l0.6548-0.6548 0.6548 0.6548c0.05182 0.05182 0.13526 0.05182 0.18708 0s0.05182-0.13526 0-0.18708l-0.6548-0.6548 0.6548-0.6548c0.05182-0.05182 0.05182-0.13526 0-0.18708z" opacity=".7"/>
 <path d="m13.229 11.245c0 0.07329-0.06556 0.13229-0.14699 0.13229h-2.3518c-0.08143 0-0.14699-0.059-0.14699-0.13229s0.06556-0.13229 0.14699-0.13229h2.3518c0.08143 0 0.14699 0.059 0.14699 0.13229z" fill="#fff" stroke-width="1.0541"/>
 <path d="m13.229 12.567c0 0.07329-0.06556 0.13229-0.14699 0.13229h-2.3518c-0.08143 0-0.14699-0.059-0.14699-0.13229s0.06556-0.13229 0.14699-0.13229h2.3518c0.08143 0 0.14699 0.059 0.14699 0.13229z" fill="#fff" stroke-width="1.0541"/>
</svg>
