<?xml version="1.0" encoding="UTF-8" standalone="no"?>
<svg
   xmlns:dc="http://purl.org/dc/elements/1.1/"
   xmlns:cc="http://creativecommons.org/ns#"
   xmlns:rdf="http://www.w3.org/1999/02/22-rdf-syntax-ns#"
   xmlns:svg="http://www.w3.org/2000/svg"
   xmlns="http://www.w3.org/2000/svg"
   xmlns:xlink="http://www.w3.org/1999/xlink"
   xmlns:sodipodi="http://sodipodi.sourceforge.net/DTD/sodipodi-0.dtd"
   xmlns:inkscape="http://www.inkscape.org/namespaces/inkscape"
   width="64"
   height="64"
   version="1.1"
   viewBox="0 0 16.933 16.933"
   id="svg288"
   sodipodi:docname="cutefish-calculator.svg"
   inkscape:version="1.0.1 (3bc2e813f5, 2020-09-07)">
  <metadata
     id="metadata292">
    <rdf:RDF>
      <cc:Work
         rdf:about="">
        <dc:format>image/svg+xml</dc:format>
        <dc:type
           rdf:resource="http://purl.org/dc/dcmitype/StillImage" />
      </cc:Work>
    </rdf:RDF>
  </metadata>
  <sodipodi:namedview
     pagecolor="#ffffff"
     bordercolor="#666666"
     borderopacity="1"
     objecttolerance="10"
     gridtolerance="10"
     guidetolerance="10"
     inkscape:pageopacity="0"
     inkscape:pageshadow="2"
     inkscape:window-width="2160"
     inkscape:window-height="1304"
     id="namedview290"
     showgrid="false"
     inkscape:zoom="16.241359"
     inkscape:cx="46.679264"
     inkscape:cy="28.636813"
     inkscape:window-x="0"
     inkscape:window-y="0"
     inkscape:window-maximized="1"
     inkscape:current-layer="svg288"
     inkscape:document-rotation="0" />
  <defs
     id="defs72">
    <linearGradient
       id="linearGradient1110"
       x1="8.4668"
       x2="8.4668"
       y1="14.808"
       y2="2.1086"
       gradientTransform="translate(43.314 .0079998)"
       gradientUnits="userSpaceOnUse">
      <stop
         stop-color="#2f5fdd"
         offset="0"
         id="stop27" />
      <stop
         stop-color="#1a7fd4"
         offset="1"
         id="stop29" />
    </linearGradient>
    <linearGradient
       id="linearGradient1499"
       x1="8.4668"
       x2="8.4668"
       y1="14.808"
       y2="2.1086"
       gradientTransform="translate(0,0.0079398)"
       gradientUnits="userSpaceOnUse"
       xlink:href="#linearGradient1110" />
  </defs>
  <g
     transform="translate(0,-6e-5)"
     shape-rendering="auto"
     id="g136">
    <path
       d="m 4.3693,0.52916 c -2.1142,0 -3.8402,1.7835 -3.8402,3.9682 v 8.4675 c 0,2.1846 1.726,3.9682 3.8402,3.9682 h 8.1944 c 2.1142,0 3.8402,-1.7835 3.8402,-3.9682 v -8.4675 c 0,-2.1846 -1.726,-3.9682 -3.8402,-3.9682 z m 0.25704,0.52089 h 7.6808 c 1.8443,0 3.3291,1.5342 3.3291,3.44 v 7.9368 c 0,1.9058 -1.4847,3.44 -3.3291,3.44 h -7.6808 c -1.8443,0 -3.3291,-1.5342 -3.3291,-3.44 v -7.9368 c 0,-1.9058 1.4847,-3.44 3.3291,-3.44 z"
       color="#000000"
       color-rendering="auto"
       dominant-baseline="auto"
       image-rendering="auto"
       opacity="0.01"
       solid-color="#000000"
       stop-color="#000000"
       style="font-variant-ligatures:normal;font-variant-position:normal;font-variant-caps:normal;font-variant-numeric:normal;font-variant-alternates:normal;font-variant-east-asian:normal;font-feature-settings:normal;font-variation-settings:normal;text-indent:0;text-decoration:none;text-decoration-line:none;text-decoration-style:solid;text-decoration-color:#000000;text-transform:none;text-orientation:mixed;white-space:normal;shape-padding:0;shape-margin:0;inline-size:0;isolation:auto;mix-blend-mode:normal"
       id="path126" />
    <path
       d="m 4.3587,0.79373 c -1.9668,0 -3.5639,1.6528 -3.5639,3.6876 v 8.4996 c 0,2.0348 1.5971,3.6876 3.5639,3.6876 h 8.2162 c 1.9668,0 3.5644,-1.6528 3.5644,-3.6876 v -8.4996 c 0,-2.0348 -1.5976,-3.6876 -3.5644,-3.6876 z m 0.27222,0.25631 h 7.6718 c 1.8422,0 3.3251,1.5342 3.3251,3.44 v 7.9368 c 0,1.9058 -1.483,3.44 -3.3251,3.44 h -7.6718 c -1.8422,0 -3.3251,-1.5342 -3.3251,-3.44 v -7.9368 c 0,-1.9058 1.483,-3.44 3.3251,-3.44 z"
       color="#000000"
       color-rendering="auto"
       dominant-baseline="auto"
       image-rendering="auto"
       opacity="0.01"
       solid-color="#000000"
       stop-color="#000000"
       style="font-variant-ligatures:normal;font-variant-position:normal;font-variant-caps:normal;font-variant-numeric:normal;font-variant-alternates:normal;font-variant-east-asian:normal;font-feature-settings:normal;font-variation-settings:normal;text-indent:0;text-decoration:none;text-decoration-line:none;text-decoration-style:solid;text-decoration-color:#000000;text-transform:none;text-orientation:mixed;white-space:normal;shape-padding:0;shape-margin:0;inline-size:0;isolation:auto;mix-blend-mode:normal"
       id="path128" />
    <path
       d="m 4.3097,1.0583 c -1.8657,0 -3.3751,1.5383 -3.3751,3.439 v 8.4675 c 0,1.9007 1.57,3.439 3.4357,3.439 h 8.1996 c 1.8657,0 3.4274,-1.5383 3.4274,-3.439 V 4.4973 c 0,-1.9007 -1.51,-3.439 -3.3756,-3.439 h -0.09688 c 1.794,0.086515 3.2138,1.5819 3.2138,3.4318 v 7.9368 c 0,1.9058 -1.5059,3.44 -3.3766,3.44 h -7.7905 c -1.8707,0 -3.3766,-1.5342 -3.3766,-3.44 V 4.4901 c 0,-1.8498 1.4199,-3.3451 3.2138,-3.4318 z"
       color="#000000"
       color-rendering="auto"
       dominant-baseline="auto"
       image-rendering="auto"
       opacity="0.03"
       solid-color="#000000"
       stop-color="#000000"
       style="font-variant-ligatures:normal;font-variant-position:normal;font-variant-caps:normal;font-variant-numeric:normal;font-variant-alternates:normal;font-variant-east-asian:normal;font-feature-settings:normal;font-variation-settings:normal;text-indent:0;text-decoration:none;text-decoration-line:none;text-decoration-style:solid;text-decoration-color:#000000;text-transform:none;text-orientation:mixed;white-space:normal;shape-padding:0;shape-margin:0;inline-size:0;isolation:auto;mix-blend-mode:normal"
       id="path130" />
    <path
       transform="scale(0.26458)"
       d="m 4,46.969 v 2.0312 c 0,6.6479 5.8957,12 12.544,12 h 30.961 c 6.6479,0 12.495,-5.3521 12.495,-12 V 47.008 C 59.97883,54.1929 54.19,59.971 47,59.971 H 17.002 C 9.7988,59.971 4,54.1723 4,46.969 Z"
       color="#000000"
       color-rendering="auto"
       dominant-baseline="auto"
       image-rendering="auto"
       opacity="0.03"
       solid-color="#000000"
       stop-color="#000000"
       style="font-variant-ligatures:normal;font-variant-position:normal;font-variant-caps:normal;font-variant-numeric:normal;font-variant-alternates:normal;font-variant-east-asian:normal;font-feature-settings:normal;font-variation-settings:normal;text-indent:0;text-decoration:none;text-decoration-line:none;text-decoration-style:solid;text-decoration-color:#000000;text-transform:none;text-orientation:mixed;white-space:normal;shape-padding:0;shape-margin:0;inline-size:0;isolation:auto;mix-blend-mode:normal"
       id="path132" />
    <path
       d="m 1.0583,11.906 v 0.59234 c 0,1.9386 1.5729,3.4993 3.3318,3.4993 h 8.1603 c 1.7589,0 3.3243,-1.5608 3.3243,-3.4993 v -0.58095 c -0.0056,2.0952 -1.5372,3.7801 -3.4395,3.7801 H 4.4984 c -1.9058,0 -3.44,-1.691 -3.44,-3.7915 z"
       color="#000000"
       color-rendering="auto"
       dominant-baseline="auto"
       image-rendering="auto"
       opacity="0.05"
       solid-color="#000000"
       stop-color="#000000"
       style="font-variant-ligatures:normal;font-variant-position:normal;font-variant-caps:normal;font-variant-numeric:normal;font-variant-alternates:normal;font-variant-east-asian:normal;font-feature-settings:normal;font-variation-settings:normal;text-indent:0;text-decoration:none;text-decoration-line:none;text-decoration-style:solid;text-decoration-color:#000000;text-transform:none;text-orientation:mixed;white-space:normal;shape-padding:0;shape-margin:0;inline-size:0;isolation:auto;mix-blend-mode:normal"
       id="path134" />
  </g>
  <rect
     x="1.0580016"
     y="1.05794"
     width="14.817"
     height="14.817"
     rx="3.1752999"
     ry="3.1752999"
     fill="url(#linearGradient1499)"
     id="rect138"
     style="fill:url(#linearGradient1499)" />
  <path
     d="m 4.233,1.85204 c -1.3192,0 -2.3812,1.062 -2.3812,2.3812 v 8.4666 c 0,1.3192 1.062,2.3812 2.3812,2.3812 h 4.2333 v -5.027 c 0,-0.87946 0.70802,-1.5875 1.5875,-1.5875 h 5.027 v -4.2333 c 0,-1.3192 -1.062,-2.3812 -2.3812,-2.3812 z"
     stroke-width="0.26458"
     id="path140"
     style="fill:#ffffff;fill-opacity:1;opacity:0.95" />
  <path
     d="m 5.1596,4.41034 c -0.07329,0 -0.13229,0.059001 -0.13229,0.13229 V 5.46866 H 4.10128 c -0.07329,0 -0.13229,0.059001 -0.13229,0.13229 0,0.073289 0.059,0.13229 0.13229,0.13229 h 0.92603 v 0.92603 c 0,0.073289 0.059,0.13229 0.13229,0.13229 0.07329,0 0.13229,-0.059001 0.13229,-0.13229 V 5.73324 h 0.92603 c 0.07329,0 0.13229,-0.059001 0.13229,-0.13229 0,-0.073289 -0.059,-0.13229 -0.13229,-0.13229 H 5.29189 V 4.54263 c 0,-0.073289 -0.059,-0.13229 -0.13229,-0.13229 z"
     opacity="0.7"
     stroke-width="0.26458"
     id="path158"
     style="fill-opacity:1;fill:#000000;opacity:0.7" />
  <path
     d="m 12.964,5.60094 c 0,0.073288 -0.059,0.13229 -0.13229,0.13229 h -2.1166 c -0.07329,0 -0.13229,-0.059001 -0.13229,-0.13229 0,-0.073288 0.059,-0.13229 0.13229,-0.13229 h 2.1166 c 0.07329,0 0.13229,0.059001 0.13229,0.13229 z"
     opacity="0.7"
     id="path160"
     style="fill:#000000;fill-opacity:1;opacity:0.7" />
  <path
     d="m 6.0015,10.97694 c -0.05182,-0.05182 -0.13526,-0.05182 -0.18708,0 l -0.6548,0.6548 -0.6548,-0.6548 c -0.05182,-0.05182 -0.13526,-0.05182 -0.18708,0 -0.05182,0.05182 -0.05182,0.13526 0,0.18708 l 0.6548,0.6548 -0.6548,0.6548 c -0.05182,0.05182 -0.05182,0.13526 0,0.18708 0.05182,0.05182 0.13526,0.05182 0.18708,0 l 0.6548,-0.6548 0.6548,0.6548 c 0.05182,0.05182 0.13526,0.05182 0.18708,0 0.05182,-0.05182 0.05182,-0.13526 0,-0.18708 l -0.6548,-0.6548 0.6548,-0.6548 c 0.05182,-0.05182 0.05182,-0.13526 0,-0.18708 z"
     opacity="0.7"
     id="path162"
     style="fill:#000000;fill-opacity:1;opacity:0.7" />
  <path
     d="m 13.229,11.24494 c 0,0.07329 -0.06556,0.13229 -0.14699,0.13229 h -2.3518 c -0.08143,0 -0.14699,-0.059 -0.14699,-0.13229 0,-0.07329 0.06556,-0.13229 0.14699,-0.13229 h 2.3518 c 0.08143,0 0.14699,0.059 0.14699,0.13229 z"
     fill="#ffffff"
     id="path176"
     style="stroke-width:1.0541" />
  <path
     d="m 13.229,12.56694 c 0,0.07329 -0.06556,0.13229 -0.14699,0.13229 h -2.3518 c -0.08143,0 -0.14699,-0.059 -0.14699,-0.13229 0,-0.07329 0.06556,-0.13229 0.14699,-0.13229 h 2.3518 c 0.08143,0 0.14699,0.059 0.14699,0.13229 z"
     fill="#ffffff"
     id="path178"
     style="stroke-width:1.0541" />
</svg>
