<?xml version="1.0" encoding="UTF-8" standalone="no"?>
<svg viewBox="0 0 64 64" version="1.1" id="svg229" sodipodi:docname="falkon.svg" inkscape:version="1.1 (c4e8f9ed74, 2021-05-24)" width="64" height="64" xmlns:inkscape="http://www.inkscape.org/namespaces/inkscape" xmlns:sodipodi="http://sodipodi.sourceforge.net/DTD/sodipodi-0.dtd" xmlns:xlink="http://www.w3.org/1999/xlink" xmlns="http://www.w3.org/2000/svg" xmlns:svg="http://www.w3.org/2000/svg">
  <defs id="defs233">
    <linearGradient inkscape:collect="always" xlink:href="#t" id="linearGradient1467" x1="52.387798" y1="3.1840737" x2="-7.0070724" y2="41.704468" gradientUnits="userSpaceOnUse" gradientTransform="matrix(1.1666667,0,0,1.1666667,4.0000001,4.0000001)"/>
    <linearGradient id="b" x1="429.07001" x2="429.07001" y1="14.723" y2="1034.7" gradientTransform="matrix(0.063764,0,0,0.063764,29.479173,6.7645917)" gradientUnits="userSpaceOnUse">
      <stop stop-color="#fff" offset="0" id="stop2"/>
      <stop stop-color="#d7d7d7" offset="1" id="stop4"/>
    </linearGradient>
    <linearGradient id="a" x1="540" x2="540" y1="452.35999" y2="632.35999" gradientTransform="matrix(0.064012,0,0,0.064012,-1.9057,-2.2948)" gradientUnits="userSpaceOnUse">
      <stop stop-color="#d7d7d7" offset="0" id="stop7"/>
      <stop stop-color="#fff" offset="1" id="stop9"/>
    </linearGradient>
    <linearGradient id="linearGradient862" x1="7.9373002" x2="7.9373002" y1="15.081" y2="1.852" gradientTransform="matrix(4.1089536,0,0,3.7796,-4.5186004,-4.2503809)" gradientUnits="userSpaceOnUse">
      <stop stop-color="#112b40" offset="0" id="stop12"/>
      <stop stop-color="#0074a4" offset="1" id="stop14"/>
    </linearGradient>
  </defs>
  <sodipodi:namedview id="namedview231" pagecolor="#ffffff" bordercolor="#666666" borderopacity="1.0" inkscape:pageshadow="2" inkscape:pageopacity="0.0" inkscape:pagecheckerboard="0" showgrid="false" inkscape:snap-nodes="false" inkscape:zoom="8.663757" inkscape:cx="32.203119" inkscape:cy="29.259823" inkscape:window-width="1290" inkscape:window-height="702" inkscape:window-x="76" inkscape:window-y="28" inkscape:window-maximized="1" inkscape:current-layer="svg229" width="64px"/>
  <linearGradient id="s" x1="24" x2="44" y1="24" y2="44" gradientUnits="userSpaceOnUse" gradientTransform="matrix(1.1666667,0,0,1.1666667,3.2567242,1.1513443)">
    <stop stop-color="#292c2f" offset="0" id="stop179"/>
    <stop stop-opacity="0" offset="1" id="stop181"/>
  </linearGradient>
  <linearGradient id="t" x1="189.34399" x2="-27.879999" y1="-34.772999" y2="126.119" gradientTransform="matrix(0.31711,0,0,0.3129,4.272,4.257)" gradientUnits="userSpaceOnUse">
    <stop stop-color="#d446ff" offset="0" id="stop184"/>
    <stop stop-color="#a0d8ff" offset="1" id="stop186"/>
  </linearGradient>
  <linearGradient id="l">
    <stop stop-color="#fff" offset="0" id="stop189"/>
    <stop stop-color="#dadada" offset="1" id="stop191"/>
  </linearGradient>
  <linearGradient id="r" x1="49.298" x2="95.398003" y1="81.098" y2="56.09" gradientTransform="matrix(0.37868,0,0,0.26203,4.272,4.257)" gradientUnits="userSpaceOnUse" xlink:href="#l"/>
  <linearGradient id="q" x1="61.021" x2="27.009001" y1="119.444" y2="77.337997" gradientTransform="matrix(0.35013,0,0,0.2834,4.272,4.257)" gradientUnits="userSpaceOnUse" xlink:href="#l"/>
  <linearGradient id="p" x1="87.486" x2="39.143002" y1="37.283001" y2="58.523998" gradientTransform="matrix(0.42584,0,0,0.23301,4.272,4.257)" gradientUnits="userSpaceOnUse">
    <stop stop-color="#d0d0d0" offset="0" id="stop196"/>
    <stop stop-color="#fff" offset="1" id="stop198"/>
  </linearGradient>
  <linearGradient id="k">
    <stop stop-color="#ffdc68" offset="0" id="stop201"/>
    <stop stop-color="#ce4300" offset="1" id="stop203"/>
  </linearGradient>
  <linearGradient id="o" x1="39.132" x2="-14.568" y1="94.823997" y2="160.96001" gradientTransform="matrix(0.36573,0,0,0.2713,4.272,4.257)" gradientUnits="userSpaceOnUse" xlink:href="#k"/>
  <linearGradient id="n" x1="24.438999" x2="12.066" y1="54.424" y2="58.196999" gradientTransform="matrix(0.67462,0,0,0.14709,4.272,4.257)" gradientUnits="userSpaceOnUse" xlink:href="#k"/>
  <linearGradient id="m" x1="32.174" x2="-13.135" y1="91.75" y2="161.326" gradientTransform="matrix(0.47125,0,0,0.21056,4.272,4.257)" gradientUnits="userSpaceOnUse" xlink:href="#k"/>
  <g inkscape:groupmode="layer" id="layer1" inkscape:label="Layer 1">
    <rect style="fill:url(#linearGradient1467);fill-opacity:1;fill-rule:evenodd;stroke-width:1.16666" id="rect1347" width="56" height="56" x="4" y="4" ry="12.444676" rx="12.444676"/>
  </g>
  <path d="m 49.323724,23.885011 -20.400334,-8.733667 -10.2375,0.564667 5.570834,5.553333 -9.875834,13.043334 1.839834,1.838666 2.202666,3.5 -0.544833,8.097834 c 0.304758,0.220182 0.614792,0.432966 0.929833,0.638166 l 27.6535,-1.563333 0.0047,0.0047 c 5.247667,-4.302666 -13.988518,-11.881242 5.588333,-17.549 z" fill="url(#s)" opacity="0.4" id="path211" sodipodi:nodetypes="ccccccccccccc" style="fill:url(#s);stroke-width:1.16666"/>
  <g fill-rule="evenodd" stroke-width="3.16" id="g227" transform="matrix(1.1666667,0,0,1.1666667,3.2567241,1.1513443)">
    <path d="m 11.262,43.28 c 0,0 6.247,-21.963 30.565,-19.17 0,0 -15.455,-9.218 -30.458,3.209 -4.432,10.312 -0.107,15.96 -0.107,15.96 z" fill="url(#r)" id="path213" style="fill:url(#r)"/>
    <path d="m 13.122,40.502 c 0,0 6.518,-15.79 23.918,-16.067 -13.226,3.237 0.022,14.714 0.022,14.714 0,0 -10.462,9.523 -23.94,1.353 z" fill="url(#q)" id="path215" style="fill:url(#q)"/>
    <path d="m 9.492,28.398 c 0,0 13.02,-14.388 32.463,-4.447 -0.348,-2.704 -2.648,-5.756 -6.77,-6.628 -0.912,-0.436 -7.595,-10.813 -21.96,-4.84 4.419,0.346 6.315,0.968 6.423,1.44 -7.643,-1.32 -9.908,9.606 -10.156,14.475 z" fill="url(#p)" id="path217" style="fill:url(#p)"/>
    <path d="m 28.165,16.192 c 0,0 3.331,-1.198 3.765,2.367 -3.285,0.31 -3.765,-2.367 -3.765,-2.367 z" fill="#202020" id="path219"/>
    <path d="m 11.175,43.35 c 0,0 5.694,-18.662 24.734,-19.385 0,0 -15.45,-2.832 -26.362,14.534 -0.06,2.457 1.628,4.852 1.628,4.852 z" fill="url(#o)" id="path221" style="fill:url(#o)"/>
    <path d="m 13.24,12.485 c 0,0 4.75,0.278 6.445,1.45 0.708,-0.147 1.31,-0.634 1.411,-1.297 -0.607,-0.253 -6.167,-0.707 -7.855,-0.153 z" fill="url(#n)" id="path223" style="fill:url(#n)"/>
    <path d="m 9.535,28.423 c 0,0 5.946,-7.175 17.948,-8.032 0,0 -16.34,0.742 -17.71,5.377 -0.382,1.115 -0.238,2.655 -0.238,2.655 z" fill="url(#m)" id="path225" style="fill:url(#m)"/>
  </g>
  <g inkscape:groupmode="layer" id="layer2" inkscape:label="Layer 2"/>
  <g inkscape:groupmode="layer" id="layer3" inkscape:label="Layer 3"/>
  <path d="M 17.002092,3.969 C 9.7988413,3.969 4,9.7677409 4,16.971092 V 18.0023 C 4,10.799049 9.7987413,5.000207 17.002092,5.000207 h 29.998214 c 7.203251,0 13.002092,5.798742 13.002092,13.002093 V 16.971092 C 60.002398,9.7678409 54.203657,3.969 47.000306,3.969 Z" fill="#ffffff" opacity="0.15" stroke-width="3.77963" id="path68"/>
  <path d="M 17.001831,60.001096 C 9.798665,60.001096 4,54.20243 4,46.999265 V 45.968 c 0,7.203166 5.798665,13.001831 13.001831,13.001831 h 29.997945 c 7.203165,0 13.001831,-5.798665 13.001831,-13.001831 v 1.031265 c 0,7.203165 -5.798666,13.001831 -13.001831,13.001831 z" opacity="0.15" id="path70" style="stroke-width:3.7796"/>
  <g shape-rendering="auto" id="g44" transform="matrix(3.779602,0,0,3.779602,2.125818e-4,-1.419432e-5)">
    <path d="m 4.3693,0.52916 c -2.1142,0 -3.8402,1.7835 -3.8402,3.9682 v 8.4675 c 0,2.1846 1.726,3.9682 3.8402,3.9682 h 8.1944 c 2.1142,0 3.8402,-1.7835 3.8402,-3.9682 v -8.4675 c 0,-2.1846 -1.726,-3.9682 -3.8402,-3.9682 z m 0.25704,0.52089 h 7.6808 c 1.8443,0 3.3291,1.5342 3.3291,3.44 v 7.9368 c 0,1.9058 -1.4847,3.44 -3.3291,3.44 h -7.6808 c -1.8443,0 -3.3291,-1.5342 -3.3291,-3.44 v -7.9368 c 0,-1.9058 1.4847,-3.44 3.3291,-3.44 z" color="#000000" color-rendering="auto" dominant-baseline="auto" image-rendering="auto" opacity="0.01" solid-color="#000000" stop-color="#000000" style="font-variant-ligatures:normal;font-variant-position:normal;font-variant-caps:normal;font-variant-numeric:normal;font-variant-alternates:normal;font-variant-east-asian:normal;font-feature-settings:normal;font-variation-settings:normal;text-indent:0;text-decoration-line:none;text-decoration-style:solid;text-decoration-color:#000000;text-transform:none;text-orientation:mixed;white-space:normal;shape-padding:0;shape-margin:0;inline-size:0;isolation:auto;mix-blend-mode:normal" id="path34"/>
    <path d="m 4.3587,0.79373 c -1.9668,0 -3.5639,1.6528 -3.5639,3.6876 v 8.4996 c 0,2.0348 1.5971,3.6876 3.5639,3.6876 h 8.2162 c 1.9668,0 3.5644,-1.6528 3.5644,-3.6876 v -8.4996 c 0,-2.0348 -1.5976,-3.6876 -3.5644,-3.6876 z m 0.27222,0.25631 h 7.6718 c 1.8422,0 3.3251,1.5342 3.3251,3.44 v 7.9368 c 0,1.9058 -1.483,3.44 -3.3251,3.44 h -7.6718 c -1.8422,0 -3.3251,-1.5342 -3.3251,-3.44 v -7.9368 c 0,-1.9058 1.483,-3.44 3.3251,-3.44 z" color="#000000" color-rendering="auto" dominant-baseline="auto" image-rendering="auto" opacity="0.01" solid-color="#000000" stop-color="#000000" style="font-variant-ligatures:normal;font-variant-position:normal;font-variant-caps:normal;font-variant-numeric:normal;font-variant-alternates:normal;font-variant-east-asian:normal;font-feature-settings:normal;font-variation-settings:normal;text-indent:0;text-decoration-line:none;text-decoration-style:solid;text-decoration-color:#000000;text-transform:none;text-orientation:mixed;white-space:normal;shape-padding:0;shape-margin:0;inline-size:0;isolation:auto;mix-blend-mode:normal" id="path36"/>
    <path d="m 4.3097,1.0583 c -1.8657,0 -3.3751,1.5383 -3.3751,3.439 v 8.4675 c 0,1.9007 1.57,3.439 3.4357,3.439 h 8.1996 c 1.8657,0 3.4274,-1.5383 3.4274,-3.439 V 4.4973 c 0,-1.9007 -1.51,-3.439 -3.3756,-3.439 h -0.09688 c 1.794,0.086515 3.2138,1.5819 3.2138,3.4318 v 7.9368 c 0,1.9058 -1.5059,3.44 -3.3766,3.44 h -7.7905 c -1.8707,0 -3.3766,-1.5342 -3.3766,-3.44 V 4.4901 c 0,-1.8498 1.4199,-3.3451 3.2138,-3.4318 z" color="#000000" color-rendering="auto" dominant-baseline="auto" image-rendering="auto" opacity="0.03" solid-color="#000000" stop-color="#000000" style="font-variant-ligatures:normal;font-variant-position:normal;font-variant-caps:normal;font-variant-numeric:normal;font-variant-alternates:normal;font-variant-east-asian:normal;font-feature-settings:normal;font-variation-settings:normal;text-indent:0;text-decoration-line:none;text-decoration-style:solid;text-decoration-color:#000000;text-transform:none;text-orientation:mixed;white-space:normal;shape-padding:0;shape-margin:0;inline-size:0;isolation:auto;mix-blend-mode:normal" id="path38"/>
    <path transform="scale(0.26458)" d="m 4,46.969 v 2.0312 c 0,6.6479 5.8957,12 12.544,12 h 30.961 c 6.6479,0 12.495,-5.3521 12.495,-12 V 47.008 C 59.97883,54.1929 54.19,59.971 47,59.971 H 17.002 C 9.7988,59.971 4,54.1723 4,46.969 Z" color="#000000" color-rendering="auto" dominant-baseline="auto" image-rendering="auto" opacity="0.03" solid-color="#000000" stop-color="#000000" style="font-variant-ligatures:normal;font-variant-position:normal;font-variant-caps:normal;font-variant-numeric:normal;font-variant-alternates:normal;font-variant-east-asian:normal;font-feature-settings:normal;font-variation-settings:normal;text-indent:0;text-decoration-line:none;text-decoration-style:solid;text-decoration-color:#000000;text-transform:none;text-orientation:mixed;white-space:normal;shape-padding:0;shape-margin:0;inline-size:0;isolation:auto;mix-blend-mode:normal" id="path40"/>
    <path d="m 1.0583,11.906 v 0.59234 c 0,1.9386 1.5729,3.4993 3.3318,3.4993 h 8.1603 c 1.7589,0 3.3243,-1.5608 3.3243,-3.4993 v -0.58095 c -0.0056,2.0952 -1.5372,3.7801 -3.4395,3.7801 H 4.4984 c -1.9058,0 -3.44,-1.691 -3.44,-3.7915 z" color="#000000" color-rendering="auto" dominant-baseline="auto" image-rendering="auto" opacity="0.05" solid-color="#000000" stop-color="#000000" style="font-variant-ligatures:normal;font-variant-position:normal;font-variant-caps:normal;font-variant-numeric:normal;font-variant-alternates:normal;font-variant-east-asian:normal;font-feature-settings:normal;font-variation-settings:normal;text-indent:0;text-decoration-line:none;text-decoration-style:solid;text-decoration-color:#000000;text-transform:none;text-orientation:mixed;white-space:normal;shape-padding:0;shape-margin:0;inline-size:0;isolation:auto;mix-blend-mode:normal" id="path42"/>
  </g>
</svg>