<?xml version="1.0" encoding="UTF-8" standalone="no"?>
<svg
   xmlns:dc="http://purl.org/dc/elements/1.1/"
   xmlns:cc="http://creativecommons.org/ns#"
   xmlns:rdf="http://www.w3.org/1999/02/22-rdf-syntax-ns#"
   xmlns:svg="http://www.w3.org/2000/svg"
   xmlns="http://www.w3.org/2000/svg"
   xmlns:sodipodi="http://sodipodi.sourceforge.net/DTD/sodipodi-0.dtd"
   xmlns:inkscape="http://www.inkscape.org/namespaces/inkscape"
   width="64"
   height="64"
   version="1.1"
   viewBox="0 0 16.933 16.933"
   id="svg74"
   sodipodi:docname="fonts.svg"
   inkscape:version="1.0.1 (3bc2e813f5, 2020-09-07)">
  <metadata
     id="metadata78">
    <rdf:RDF>
      <cc:Work
         rdf:about="">
        <dc:format>image/svg+xml</dc:format>
        <dc:type
           rdf:resource="http://purl.org/dc/dcmitype/StillImage" />
      </cc:Work>
    </rdf:RDF>
  </metadata>
  <sodipodi:namedview
     pagecolor="#ffffff"
     bordercolor="#666666"
     borderopacity="1"
     objecttolerance="10"
     gridtolerance="10"
     guidetolerance="10"
     inkscape:pageopacity="0"
     inkscape:pageshadow="2"
     inkscape:window-width="2160"
     inkscape:window-height="1312"
     id="namedview76"
     showgrid="false"
     inkscape:zoom="11.484375"
     inkscape:cx="32"
     inkscape:cy="32"
     inkscape:window-x="0"
     inkscape:window-y="30"
     inkscape:window-maximized="1"
     inkscape:current-layer="svg74"
     inkscape:document-rotation="0" />
  <defs
     id="defs24">
    <linearGradient
       id="linearGradient928"
       x1="7.4082"
       x2="7.4082"
       y1="2.3812"
       y2="15.048"
       gradientUnits="userSpaceOnUse">
      <stop
         stop-color="#cee3ea"
         offset="0"
         id="stop2" />
      <stop
         stop-color="#797a79"
         offset="1"
         id="stop4" />
    </linearGradient>
  </defs>
  <g
     shape-rendering="auto"
     id="g36">
    <path
       d="m4.3693 0.52916c-2.1142 0-3.8402 1.7835-3.8402 3.9682v8.4675c0 2.1846 1.726 3.9682 3.8402 3.9682h8.1944c2.1142 0 3.8402-1.7835 3.8402-3.9682v-8.4675c0-2.1846-1.726-3.9682-3.8402-3.9682zm0.25704 0.52089h7.6808c1.8443 0 3.3291 1.5342 3.3291 3.44v7.9368c0 1.9058-1.4847 3.44-3.3291 3.44h-7.6808c-1.8443 0-3.3291-1.5342-3.3291-3.44v-7.9368c0-1.9058 1.4847-3.44 3.3291-3.44z"
       color="#000000"
       color-rendering="auto"
       dominant-baseline="auto"
       image-rendering="auto"
       opacity=".01"
       solid-color="#000000"
       stop-color="#000000"
       style="font-feature-settings:normal;font-variant-alternates:normal;font-variant-caps:normal;font-variant-east-asian:normal;font-variant-ligatures:normal;font-variant-numeric:normal;font-variant-position:normal;font-variation-settings:normal;inline-size:0;isolation:auto;mix-blend-mode:normal;shape-margin:0;shape-padding:0;text-decoration-color:#000000;text-decoration-line:none;text-decoration-style:solid;text-indent:0;text-orientation:mixed;text-transform:none;white-space:normal"
       id="path26" />
    <path
       d="m4.3587 0.79373c-1.9668 0-3.5639 1.6528-3.5639 3.6876v8.4996c0 2.0348 1.5971 3.6876 3.5639 3.6876h8.2162c1.9668 0 3.5644-1.6528 3.5644-3.6876v-8.4996c0-2.0348-1.5976-3.6876-3.5644-3.6876zm0.27222 0.25631h7.6718c1.8422 0 3.3251 1.5342 3.3251 3.44v7.9368c0 1.9058-1.483 3.44-3.3251 3.44h-7.6718c-1.8422 0-3.3251-1.5342-3.3251-3.44v-7.9368c0-1.9058 1.483-3.44 3.3251-3.44z"
       color="#000000"
       color-rendering="auto"
       dominant-baseline="auto"
       image-rendering="auto"
       opacity=".01"
       solid-color="#000000"
       stop-color="#000000"
       style="font-feature-settings:normal;font-variant-alternates:normal;font-variant-caps:normal;font-variant-east-asian:normal;font-variant-ligatures:normal;font-variant-numeric:normal;font-variant-position:normal;font-variation-settings:normal;inline-size:0;isolation:auto;mix-blend-mode:normal;shape-margin:0;shape-padding:0;text-decoration-color:#000000;text-decoration-line:none;text-decoration-style:solid;text-indent:0;text-orientation:mixed;text-transform:none;white-space:normal"
       id="path28" />
    <path
       d="m4.3097 1.0583c-1.8657 0-3.3751 1.5383-3.3751 3.439v8.4675c0 1.9007 1.57 3.439 3.4357 3.439h8.1996c1.8657 0 3.4274-1.5383 3.4274-3.439v-8.4675c0-1.9007-1.51-3.439-3.3756-3.439h-0.09688c1.794 0.086515 3.2138 1.5819 3.2138 3.4318v7.9368c0 1.9058-1.5059 3.44-3.3766 3.44h-7.7905c-1.8707 0-3.3766-1.5342-3.3766-3.44v-7.9368c0-1.8498 1.4199-3.3451 3.2138-3.4318z"
       color="#000000"
       color-rendering="auto"
       dominant-baseline="auto"
       image-rendering="auto"
       opacity=".03"
       solid-color="#000000"
       stop-color="#000000"
       style="font-feature-settings:normal;font-variant-alternates:normal;font-variant-caps:normal;font-variant-east-asian:normal;font-variant-ligatures:normal;font-variant-numeric:normal;font-variant-position:normal;font-variation-settings:normal;inline-size:0;isolation:auto;mix-blend-mode:normal;shape-margin:0;shape-padding:0;text-decoration-color:#000000;text-decoration-line:none;text-decoration-style:solid;text-indent:0;text-orientation:mixed;text-transform:none;white-space:normal"
       id="path30" />
    <path
       transform="scale(.26458)"
       d="m4 46.969v2.0312c0 6.6479 5.8957 12 12.544 12h30.961c6.6479 0 12.495-5.3521 12.495-12v-1.9922c-0.02117 7.1849-5.81 12.963-13 12.963h-29.998c-7.2032 0-13.002-5.7987-13.002-13.002z"
       color="#000000"
       color-rendering="auto"
       dominant-baseline="auto"
       image-rendering="auto"
       opacity=".03"
       solid-color="#000000"
       stop-color="#000000"
       style="font-feature-settings:normal;font-variant-alternates:normal;font-variant-caps:normal;font-variant-east-asian:normal;font-variant-ligatures:normal;font-variant-numeric:normal;font-variant-position:normal;font-variation-settings:normal;inline-size:0;isolation:auto;mix-blend-mode:normal;shape-margin:0;shape-padding:0;text-decoration-color:#000000;text-decoration-line:none;text-decoration-style:solid;text-indent:0;text-orientation:mixed;text-transform:none;white-space:normal"
       id="path32" />
    <path
       d="m1.0583 11.906v0.59234c0 1.9386 1.5729 3.4993 3.3318 3.4993h8.1603c1.7589 0 3.3243-1.5608 3.3243-3.4993v-0.58095c-0.0056 2.0952-1.5372 3.7801-3.4395 3.7801h-7.9368c-1.9058 0-3.44-1.691-3.44-3.7915z"
       color="#000000"
       color-rendering="auto"
       dominant-baseline="auto"
       image-rendering="auto"
       opacity=".05"
       solid-color="#000000"
       stop-color="#000000"
       style="font-feature-settings:normal;font-variant-alternates:normal;font-variant-caps:normal;font-variant-east-asian:normal;font-variant-ligatures:normal;font-variant-numeric:normal;font-variant-position:normal;font-variation-settings:normal;inline-size:0;isolation:auto;mix-blend-mode:normal;shape-margin:0;shape-padding:0;text-decoration-color:#000000;text-decoration-line:none;text-decoration-style:solid;text-indent:0;text-orientation:mixed;text-transform:none;white-space:normal"
       id="path34" />
  </g>
  <rect
     x="1.0583"
     y="1.05"
     width="14.817"
     height="14.817"
     rx="3.4401"
     ry="3.4401"
     fill="url(#linearGradient928)"
     id="rect46" />
  <path
     d="m17.002 3.9688c-7.2032 0-13.002 5.7987-13.002 13.002v1.0312c0-7.2032 5.7987-13.002 13.002-13.002h29.998c7.2032 0 13.002 5.7987 13.002 13.002v-1.0312c0-7.2032-5.7987-13.002-13.002-13.002h-29.998z"
     fill="#fff"
     opacity=".35"
     stroke-width="3.7796"
     id="path48"
     transform="scale(.26458)" />
  <path
     d="m4.4983 15.875c-1.9058 0-3.44-1.5342-3.44-3.44v-0.27285c0 1.9058 1.5342 3.44 3.44 3.44h7.9368c1.9058 0 3.44-1.5342 3.44-3.44v0.27285c0 1.9058-1.5342 3.44-3.44 3.44z"
     opacity=".25"
     id="path50" />
  <path
     d="m 7.75569,11.51608 -0.44574,-1.465 h -2.2464 l -0.4471,1.4663 h -1.4065 l 2.1744,-6.1860002 h 1.5968 L 9.163649,11.51738 H 7.75575 M 6.99745,8.95568 C 6.58432,7.6265798 6.35194,6.8764798 6.29894,6.6997798 a 7.0830001,7.0830001 0 0 1 -0.11008,-0.41177 c -0.09241,0.36013 -0.35877,1.2489 -0.79636,2.6677001 h 1.6049 m 5.827299,2.5603001 -0.24869,-0.63872 h -0.03262 c -0.21744,0.27179 -0.44031,0.46205 -0.66997,0.56805 -0.22831,0.10464 -0.52592,0.15628 -0.8942,0.15628 -0.45118,0 -0.80859,-0.1291 -1.0695,-0.38731 -0.2582,-0.2582 -0.38731,-0.62648 -0.38731,-1.1048 0,-0.5001001 0.17395,-0.8670202 0.52185,-1.1035001 0.35061,-0.23918 0.87925,-0.3709999 1.5846,-0.3954602 l 0.81674,-0.027179 v -0.2052 c 0,-0.4769999 -0.24462,-0.7161799 -0.73384,-0.7161799 -0.37508,0 -0.8181,0.11415 -1.3264,0.3411 l -0.42535,-0.86838 a 3.8296001,3.8296001 0 0 1 1.8034,-0.42536 c 0.63192,0 1.1171,0.13726 1.454101,0.41313 0.33702,0.27587 0.50554,0.69307 0.50554,1.2557 v 3.1392002 h -0.896921 m -0.38051,-2.1825003 -0.49602,0.016309 c -0.37372,0.010872 -0.65231,0.07882 -0.83441,0.2024901 -0.18346,0.1236699 -0.27451,0.3125599 -0.27451,0.5653302 0,0.36149 0.20792,0.54359 0.62377,0.54359 0.29762,0 0.53543,-0.08697 0.7121,-0.2582 a 0.89964,0.89964 0 0 0 0.26908,-0.6822007 V 9.3348895"
     font-size="24px"
     font-weight="700"
     letter-spacing="0"
     opacity="0.6"
     stroke-width="1.0002"
     word-spacing="0"
     id="path18" />
</svg>
