<?xml version="1.0" encoding="UTF-8" standalone="no"?>
<svg
   xmlns:dc="http://purl.org/dc/elements/1.1/"
   xmlns:cc="http://creativecommons.org/ns#"
   xmlns:rdf="http://www.w3.org/1999/02/22-rdf-syntax-ns#"
   xmlns:svg="http://www.w3.org/2000/svg"
   xmlns="http://www.w3.org/2000/svg"
   xmlns:sodipodi="http://sodipodi.sourceforge.net/DTD/sodipodi-0.dtd"
   xmlns:inkscape="http://www.inkscape.org/namespaces/inkscape"
   id="App-Store"
   width="64"
   height="64"
   enable-background="new 0 0 1024 1024"
   image-rendering="optimizeSpeed"
   version="1.1"
   viewBox="0 0 64 64"
   sodipodi:docname="joplin.svg"
   inkscape:version="1.0.1 (3bc2e813f5, 2020-09-07)">
  <metadata
     id="metadata35">
    <rdf:RDF>
      <cc:Work
         rdf:about="">
        <dc:format>image/svg+xml</dc:format>
        <dc:type
           rdf:resource="http://purl.org/dc/dcmitype/StillImage" />
      </cc:Work>
    </rdf:RDF>
  </metadata>
  <sodipodi:namedview
     pagecolor="#ffffff"
     bordercolor="#666666"
     borderopacity="1"
     objecttolerance="10"
     gridtolerance="10"
     guidetolerance="10"
     inkscape:pageopacity="0"
     inkscape:pageshadow="2"
     inkscape:window-width="2160"
     inkscape:window-height="1304"
     id="namedview33"
     showgrid="false"
     inkscape:zoom="11.484375"
     inkscape:cx="32"
     inkscape:cy="32"
     inkscape:window-x="0"
     inkscape:window-y="0"
     inkscape:window-maximized="1"
     inkscape:current-layer="App-Store" />
  <defs
     id="defs10">
    <linearGradient
       id="linearGradient862"
       x1="7.9373"
       x2="7.9373"
       y1="15.081"
       y2="1.852"
       gradientTransform="scale(3.7796)"
       gradientUnits="userSpaceOnUse">
      <stop
         stop-color="#0e71de"
         offset="0"
         id="stop5" />
      <stop
         stop-color="#25c9ff"
         offset="1"
         id="stop7" />
    </linearGradient>
  </defs>
  <g
     transform="scale(3.7796)"
     shape-rendering="auto"
     id="g24">
    <path
       d="m4.3693 0.52916c-2.1142 0-3.8402 1.7835-3.8402 3.9682v8.4675c0 2.1846 1.726 3.9682 3.8402 3.9682h8.1944c2.1142 0 3.8402-1.7835 3.8402-3.9682v-8.4675c0-2.1846-1.726-3.9682-3.8402-3.9682zm0.25704 0.52089h7.6808c1.8443 0 3.3291 1.5342 3.3291 3.44v7.9368c0 1.9058-1.4847 3.44-3.3291 3.44h-7.6808c-1.8443 0-3.3291-1.5342-3.3291-3.44v-7.9368c0-1.9058 1.4847-3.44 3.3291-3.44z"
       color="#000000"
       color-rendering="auto"
       dominant-baseline="auto"
       enable-background="accumulate"
       image-rendering="auto"
       opacity=".01"
       solid-color="#000000"
       stop-color="#000000"
       style="font-feature-settings:normal;font-variant-alternates:normal;font-variant-caps:normal;font-variant-east-asian:normal;font-variant-ligatures:normal;font-variant-numeric:normal;font-variant-position:normal;font-variation-settings:normal;inline-size:0;isolation:auto;mix-blend-mode:normal;shape-margin:0;shape-padding:0;text-decoration-color:#000000;text-decoration-line:none;text-decoration-style:solid;text-indent:0;text-orientation:mixed;text-transform:none;white-space:normal"
       id="path12" />
    <path
       d="m4.3587 0.79373c-1.9668 0-3.5639 1.6528-3.5639 3.6876v8.4996c0 2.0348 1.5971 3.6876 3.5639 3.6876h8.2162c1.9668 0 3.5644-1.6528 3.5644-3.6876v-8.4996c0-2.0348-1.5976-3.6876-3.5644-3.6876zm0.27222 0.25631h7.6718c1.8422 0 3.3251 1.5342 3.3251 3.44v7.9368c0 1.9058-1.483 3.44-3.3251 3.44h-7.6718c-1.8422 0-3.3251-1.5342-3.3251-3.44v-7.9368c0-1.9058 1.483-3.44 3.3251-3.44z"
       color="#000000"
       color-rendering="auto"
       dominant-baseline="auto"
       enable-background="accumulate"
       image-rendering="auto"
       opacity=".01"
       solid-color="#000000"
       stop-color="#000000"
       style="font-feature-settings:normal;font-variant-alternates:normal;font-variant-caps:normal;font-variant-east-asian:normal;font-variant-ligatures:normal;font-variant-numeric:normal;font-variant-position:normal;font-variation-settings:normal;inline-size:0;isolation:auto;mix-blend-mode:normal;shape-margin:0;shape-padding:0;text-decoration-color:#000000;text-decoration-line:none;text-decoration-style:solid;text-indent:0;text-orientation:mixed;text-transform:none;white-space:normal"
       id="path14" />
    <g
       id="g22">
      <path
         d="m4.3097 1.0583c-1.8657 0-3.3751 1.5383-3.3751 3.439v8.4675c0 1.9007 1.5094 3.439 3.3751 3.439h8.312c1.8657 0 3.3756-1.5383 3.3756-3.439v-8.4675c0-1.9007-1.51-3.439-3.3756-3.439h-0.09688c1.794 0.086515 3.2138 1.5819 3.2138 3.4318v7.9368c0 1.9058-1.5059 3.44-3.3766 3.44h-7.7905c-1.8707 0-3.3766-1.5342-3.3766-3.44v-7.9368c0-1.8498 1.4199-3.3451 3.2138-3.4318z"
         color="#000000"
         color-rendering="auto"
         dominant-baseline="auto"
         enable-background="accumulate"
         image-rendering="auto"
         opacity=".03"
         solid-color="#000000"
         stop-color="#000000"
         style="font-feature-settings:normal;font-variant-alternates:normal;font-variant-caps:normal;font-variant-east-asian:normal;font-variant-ligatures:normal;font-variant-numeric:normal;font-variant-position:normal;font-variation-settings:normal;inline-size:0;isolation:auto;mix-blend-mode:normal;shape-margin:0;shape-padding:0;text-decoration-color:#000000;text-decoration-line:none;text-decoration-style:solid;text-indent:0;text-orientation:mixed;text-transform:none;white-space:normal"
         id="path16" />
      <path
         transform="scale(.26458)"
         d="m4 46.969v2.0312c0 6.6479 5.3522 12 12 12h32c6.6479 0 12-5.3521 12-12v-1.9922c-0.021173 7.1849-5.81 12.963-13 12.963h-29.998c-7.2032 0-13.002-5.7987-13.002-13.002z"
         color="#000000"
         color-rendering="auto"
         dominant-baseline="auto"
         enable-background="accumulate"
         image-rendering="auto"
         opacity=".03"
         solid-color="#000000"
         stop-color="#000000"
         style="font-feature-settings:normal;font-variant-alternates:normal;font-variant-caps:normal;font-variant-east-asian:normal;font-variant-ligatures:normal;font-variant-numeric:normal;font-variant-position:normal;font-variation-settings:normal;inline-size:0;isolation:auto;mix-blend-mode:normal;shape-margin:0;shape-padding:0;text-decoration-color:#000000;text-decoration-line:none;text-decoration-style:solid;text-indent:0;text-orientation:mixed;text-transform:none;white-space:normal"
         id="path18" />
      <path
         d="m1.0583 11.906v0.59234c0 1.9386 1.4161 3.4993 3.1749 3.4993h8.4665c1.7589 0 3.1749-1.5608 3.1749-3.4993v-0.58095c-0.0056 2.0952-1.5372 3.7801-3.4395 3.7801h-7.9368c-1.9058 0-3.44-1.691-3.44-3.7915z"
         color="#000000"
         color-rendering="auto"
         dominant-baseline="auto"
         enable-background="accumulate"
         image-rendering="auto"
         opacity=".05"
         solid-color="#000000"
         stop-color="#000000"
         style="font-feature-settings:normal;font-variant-alternates:normal;font-variant-caps:normal;font-variant-east-asian:normal;font-variant-ligatures:normal;font-variant-numeric:normal;font-variant-position:normal;font-variation-settings:normal;inline-size:0;isolation:auto;mix-blend-mode:normal;shape-margin:0;shape-padding:0;text-decoration-color:#000000;text-decoration-line:none;text-decoration-style:solid;text-indent:0;text-orientation:mixed;text-transform:none;white-space:normal"
         id="path20" />
    </g>
  </g>
  <rect
     x="4"
     y="3.9686"
     width="56.002"
     height="56.002"
     rx="13.002"
     ry="13.002"
     fill="url(#linearGradient862)"
     stroke-width="3.7796"
     id="rect26" />
  <path
     class="ColorScheme-Text"
     d="m27.75 46.94c-3.1284-0.28754-5.5534-1.2964-7.3739-3.0678-1.5466-1.5049-2.372-4.6738-2.3759-6.492-3e-3 -1.2745 0.36383-2.2927 1.1027-3.0633 0.84-0.87611 1.8003-1.2768 3.0792-1.2847 1.6021-0.01 2.8991 0.5494 3.4915 1.79 0.24997 0.52348 0.26457 0.613 0.31676 1.9418 0.0592 1.5077 0.13386 3.6994 0.49824 4.415 0.52297 1.0271 1.4555 1.8182 3.4835 1.8198 2.028 0.0015 3.337-1.0374 3.8753-3.135 0.13746-0.53579 0.1494-1.586 0.1494-8.5387 0-7.4373-3e-3 -7.3603-0.1712-7.6512-0.29672-0.51214-0.66314-0.64108-2.0742-0.67381h-1.7519v-4h16.001v4h-1.6936c-1.3392 0.05302-1.5771 0.11354-1.8729 0.43269-0.40812 0.4404-0.29784 0.0542-0.35529 8.1456-0.057 8.0259-0.0608 8.1047-0.44265 9.1663-0.95507 2.6552-3.3348 4.8745-6.614 5.7265-1.6762 0.4355-5.4108 0.63997-7.2719 0.4689z"
     color="#444444"
     fill="#fff"
     stroke-width="2"
     id="path30" />
</svg>
