<?xml version="1.0" encoding="UTF-8" standalone="no"?>
<svg
   xmlns:dc="http://purl.org/dc/elements/1.1/"
   xmlns:cc="http://creativecommons.org/ns#"
   xmlns:rdf="http://www.w3.org/1999/02/22-rdf-syntax-ns#"
   xmlns:svg="http://www.w3.org/2000/svg"
   xmlns="http://www.w3.org/2000/svg"
   xmlns:sodipodi="http://sodipodi.sourceforge.net/DTD/sodipodi-0.dtd"
   xmlns:inkscape="http://www.inkscape.org/namespaces/inkscape"
   width="32"
   height="32"
   version="1.1"
   id="svg32"
   sodipodi:docname="online-account.svg"
   inkscape:version="1.0.1 (3bc2e813f5, 2020-09-07)">
  <metadata
     id="metadata36">
    <rdf:RDF>
      <cc:Work
         rdf:about="">
        <dc:format>image/svg+xml</dc:format>
        <dc:type
           rdf:resource="http://purl.org/dc/dcmitype/StillImage" />
      </cc:Work>
    </rdf:RDF>
  </metadata>
  <sodipodi:namedview
     pagecolor="#ffffff"
     bordercolor="#666666"
     borderopacity="1"
     objecttolerance="10"
     gridtolerance="10"
     guidetolerance="10"
     inkscape:pageopacity="0"
     inkscape:pageshadow="2"
     inkscape:window-width="2160"
     inkscape:window-height="1307"
     id="namedview34"
     showgrid="false"
     inkscape:zoom="22.96875"
     inkscape:cx="16"
     inkscape:cy="16"
     inkscape:window-x="0"
     inkscape:window-y="0"
     inkscape:window-maximized="1"
     inkscape:current-layer="svg32" />
  <defs
     id="defs20">
    <radialGradient
       id="radialGradient5521-1"
       cx="10.255"
       cy="9.9089"
       r="12.672"
       fx="9.7252"
       gradientTransform="matrix(0,2.5253,-4.9716,0,66.264,-25.898)"
       gradientUnits="userSpaceOnUse">
      <stop
         stop-color="#90dbec"
         offset="0"
         id="stop2" />
      <stop
         stop-color="#42baea"
         offset=".26238"
         id="stop4" />
      <stop
         stop-color="#3689e6"
         offset=".70495"
         id="stop6" />
      <stop
         stop-color="#2b63a0"
         offset="1"
         id="stop8" />
    </radialGradient>
    <filter
       id="filter975"
       x="-.048"
       y="-.048"
       width="1.096"
       height="1.096"
       color-interpolation-filters="sRGB">
      <feGaussianBlur
         stdDeviation="0.56"
         id="feGaussianBlur11" />
    </filter>
    <filter
       id="filter862"
       x="-.097593"
       y="-.12089"
       width="1.1952"
       height="1.2418"
       color-interpolation-filters="sRGB">
      <feGaussianBlur
         stdDeviation="0.7574652"
         id="feGaussianBlur14" />
    </filter>
    <filter
       id="filter866"
       x="-.1055"
       y="-.13327"
       width="1.211"
       height="1.2665"
       color-interpolation-filters="sRGB">
      <feGaussianBlur
         stdDeviation="0.7574652"
         id="feGaussianBlur17" />
    </filter>
  </defs>
  <rect
     x="2"
     y="3"
     width="28"
     height="28"
     rx="5"
     ry="5"
     color="#000000"
     filter="url(#filter975)"
     opacity=".15"
     id="rect22" />
  <rect
     x="2"
     y="2"
     width="28"
     height="28"
     rx="5"
     ry="5"
     color="#000000"
     fill="url(#radialGradient5521-1)"
     id="rect24" />
  <path
     d="m17.466 10.256c-1.6322 0-3.0457 0.93996-3.7463 2.3042-0.45411-0.29018-0.99168-0.46084-1.5696-0.46084-1.6198 0-2.9329 1.3205-2.9329 2.9494 0 0.25898 0.040729 0.50953 0.1031 0.74886-1.1699 0.79349-1.9362 2.1434-1.9362 3.6752 0 2.451 1.9621 4.4241 4.3993 4.4241h8.4321c2.4372 0 4.3993-1.9732 4.3993-4.4241 0-1.9572-1.2564-3.6073-3.0016-4.1937 0.04736-0.25437 0.06874-0.51522 0.06874-0.78341 0-2.3416-1.8876-4.2398-4.216-4.2398z"
     color="#000000"
     color-rendering="auto"
     filter="url(#filter866)"
     image-rendering="auto"
     opacity=".15"
     shape-rendering="auto"
     solid-color="#000000"
     style="isolation:auto;mix-blend-mode:normal"
     id="path28" />
  <path
     d="m17.466 9.5385c-1.6322 0-3.0457 0.93996-3.7463 2.3042-0.45411-0.29018-0.99168-0.46084-1.5696-0.46084-1.6198 0-2.9329 1.3205-2.9329 2.9494 0 0.25898 0.040729 0.50953 0.1031 0.74886-1.1699 0.79349-1.9362 2.1434-1.9362 3.6752 0 2.451 1.9621 4.4241 4.3993 4.4241h8.4321c2.4372 0 4.3993-1.9732 4.3993-4.4241 0-1.9572-1.2564-3.6073-3.0016-4.1937 0.04736-0.25437 0.06874-0.51522 0.06874-0.78341 0-2.3416-1.8876-4.2398-4.216-4.2398z"
     color="#000000"
     fill="#fff"
     id="path30" />
</svg>
