<svg width="64" height="64" version="1.1" viewBox="0 0 16.933 16.933" xmlns="http://www.w3.org/2000/svg">
 <defs>
  <filter id="filter956" x="-.032777" y="-.039926" width="1.0656" height="1.0799" color-interpolation-filters="sRGB">
   <feGaussianBlur stdDeviation="0.20235586"/>
  </filter>
 </defs>
 <path d="m2.2099 2.5197c-0.63806 0-1.1513 0.51331-1.1513 1.1513v2.082c-8e-6 2e-3 -5.17e-4 3e-3 -5.17e-4 5e-3v7.7968c0 0.62536 0.5138 1.1286 1.1518 1.1286h12.513c0.63804 0 1.1518-0.50324 1.1518-1.1286v-8.6996c0-0.63797-0.51384-1.1568-1.1518-1.1518l-6.4124 0.0527c-0.91581 0-1.0823-0.0168-1.8639-0.60718-0.75908-0.60112-0.79125-0.62941-1.542-0.62941z" filter="url(#filter956)" opacity=".25"/>
 <g transform="matrix(.99996 0 0 .99996 3.8468e-5 .0048782)">
  <path d="m2.21 2.38h2.695c0.75074 0 0.78302 0.0285 1.5421 0.62962 0.78159 0.5904 0.94779 0.607 1.8636 0.607l6.4126-0.0524c0.638-5e-3 1.1517 0.51363 1.1517 1.1516v6.77c0 0.63802-0.51364 1.1517-1.1517 1.1517h-12.513c-0.63802 0-1.1517-0.51364-1.1517-1.1517v-7.9542c0-0.63802 0.51364-1.1517 1.1517-1.1517z" fill="#57b0ff"/>
  <rect x="1.0583" y="5.0198" width="14.817" height="9.5242" rx="1.1517" ry="1.0693" fill="#80c3ff" stroke-width=".9733"/>
  <path d="m2.2101 5.027c-0.63801 0-1.1518 0.50323-1.1518 1.1286v0.23512c0-0.6089 0.51384-1.0991 1.1518-1.0991h12.513c0.63801 0 1.1518 0.49024 1.1518 1.0991v-0.23512c0-0.62536-0.51384-1.1286-1.1518-1.1286z" fill="#fff" opacity=".1" stroke-width=".26458"/>
 </g>
 <path d="m5.5562 5.8207c-0.29308 0-0.52916 0.23609-0.52916 0.52916v0.79427h6.8791v-0.79427c0-0.29308-0.23609-0.52916-0.52916-0.52916zm0.26511 0.52813a0.265 0.265 0 0 1 0.26458 0.26511 0.265 0.265 0 0 1-0.26458 0.26511 0.265 0.265 0 0 1-0.26511-0.26511 0.265 0.265 0 0 1 0.26511-0.26511zm-0.79427 1.0588v1.3234h6.8791v-1.3234zm0.79427 0.52916a0.265 0.265 0 0 1 0.26458 0.26511 0.265 0.265 0 0 1-0.26458 0.26511 0.265 0.265 0 0 1-0.26511-0.26511 0.265 0.265 0 0 1 0.26511-0.26511zm-0.79427 1.0588v1.3234h6.8791v-1.3234zm0.79427 0.52813a0.265 0.265 0 0 1 0.26458 0.26511 0.265 0.265 0 0 1-0.26458 0.26511 0.265 0.265 0 0 1-0.26511-0.26511 0.265 0.265 0 0 1 0.26511-0.26511zm-0.79427 1.0588v1.3234h6.8791v-1.3234zm0.79427 0.52916a0.265 0.265 0 0 1 0.26458 0.26511 0.265 0.265 0 0 1-0.26458 0.26511 0.265 0.265 0 0 1-0.26511-0.26511 0.265 0.265 0 0 1 0.26511-0.26511zm-0.79427 1.0594v1.0588c0 0.29308 0.23609 0.52916 0.52916 0.52916h5.8208c0.29308 0 0.52916-0.23609 0.52916-0.52916v-1.0588zm0.79427 0.5276a0.265 0.265 0 0 1 0.26458 0.26511 0.265 0.265 0 0 1-0.26458 0.26511 0.265 0.265 0 0 1-0.26511-0.26511 0.265 0.265 0 0 1 0.26511-0.26511z" opacity=".1" stroke-width=".26458" style="paint-order:markers stroke fill"/>
</svg>
