<?xml version="1.0" encoding="UTF-8" standalone="no"?>
<svg
   xmlns:dc="http://purl.org/dc/elements/1.1/"
   xmlns:cc="http://creativecommons.org/ns#"
   xmlns:rdf="http://www.w3.org/1999/02/22-rdf-syntax-ns#"
   xmlns:svg="http://www.w3.org/2000/svg"
   xmlns="http://www.w3.org/2000/svg"
   xmlns:xlink="http://www.w3.org/1999/xlink"
   xmlns:sodipodi="http://sodipodi.sourceforge.net/DTD/sodipodi-0.dtd"
   xmlns:inkscape="http://www.inkscape.org/namespaces/inkscape"
   id="Apps-Visual-Studio-Code"
   width="64"
   height="64"
   enable-background="new 0 0 1024 1024"
   image-rendering="optimizeSpeed"
   version="1.1"
   viewBox="0 0 64 64"
   sodipodi:docname="preferences-system.svg"
   inkscape:version="1.0.1 (3bc2e813f5, 2020-09-07)">
  <metadata
     id="metadata303">
    <rdf:RDF>
      <cc:Work
         rdf:about="">
        <dc:format>image/svg+xml</dc:format>
        <dc:type
           rdf:resource="http://purl.org/dc/dcmitype/StillImage" />
      </cc:Work>
    </rdf:RDF>
  </metadata>
  <sodipodi:namedview
     pagecolor="#ffffff"
     bordercolor="#666666"
     borderopacity="1"
     objecttolerance="10"
     gridtolerance="10"
     guidetolerance="10"
     inkscape:pageopacity="0"
     inkscape:pageshadow="2"
     inkscape:window-width="2160"
     inkscape:window-height="1307"
     id="namedview301"
     showgrid="false"
     inkscape:zoom="11.484375"
     inkscape:cx="32"
     inkscape:cy="32"
     inkscape:window-x="0"
     inkscape:window-y="0"
     inkscape:window-maximized="1"
     inkscape:current-layer="Apps-Visual-Studio-Code"
     inkscape:document-rotation="0" />
  <defs
     id="defs86">
    <mask
       id="mask-3-7"
       fill="#ffffff">
      <rect
         width="31.749"
         height="31.749"
         rx="7.4082"
         stroke-width=".26458"
         id="rect31" />
    </mask>
    <linearGradient
       id="linearGradient1070"
       x1="59.678"
       x2="59.678"
       y1="31.293"
       y2="85.689"
       gradientTransform="scale(.99554 1.0045)"
       gradientUnits="userSpaceOnUse">
      <stop
         stop-color="#879192"
         offset="0"
         id="stop34" />
      <stop
         stop-color="#8e908f"
         offset="1"
         id="stop36" />
    </linearGradient>
    <linearGradient
       inkscape:collect="always"
       xlink:href="#linearGradient1024-6"
       id="linearGradient1053"
       x1="-127"
       y1="60"
       x2="-72"
       y2="5"
       gradientUnits="userSpaceOnUse"
       gradientTransform="matrix(1.0182183,0,0,1.0182183,133.31272,-1.1022745)" />
    <linearGradient
       id="linearGradient1024-6"
       x1="1.3315001"
       x2="15.65"
       y1="15.576"
       y2="1.17"
       gradientUnits="userSpaceOnUse">
      <stop
         stop-color="#dddfe1"
         offset="0"
         id="stop5-6" />
      <stop
         stop-color="#f3f4f6"
         stop-opacity=".99608"
         offset="1"
         id="stop7-7" />
    </linearGradient>
  </defs>
  <circle
     cx="32.081"
     cy="32.772"
     r="23.904"
     fill="#fff"
     fill-opacity=".01"
     stroke-width="3.7796"
     id="circle102" />
  <g
     transform="matrix(1.0934 0 0 1.0934 13.425 13.31)"
     stroke-linecap="round"
     stroke-linejoin="round"
     id="g120">
    <path
       d="m16.465 4.2452-0.31729 0.010852-0.17518 1.4779c-0.22331 0.017462-0.34367 0.042184-0.56327 0.072347l-0.40204-1.4004-0.31368 0.049609 0.0067 1.4702c-0.22172 0.044979-0.44088 0.096064-0.65784 0.15348l-0.56276-1.3245-0.30489 0.087333 0.18294 1.4413c-0.21615 0.072232-0.42964 0.15098-0.64025 0.23565l-0.71158-1.2325-0.29197 0.12454 0.35398 1.3932a11.336 11.336 0 0 0-0.43615 0.21963l-0.82889-1.141-0.27802 0.154 0.49403 1.3374c-0.19712 0.12091-0.39064 0.24805-0.57929 0.38034l-0.95343-1.0216-0.25632 0.18655 0.64647 1.2563a11.438 11.438 0 0 0-0.53175 0.45114l-1.0609-0.88987-0.23203 0.21652 0.78755 1.1576a11.446 11.446 0 0 0-0.47594 0.51573l-1.1508-0.74672-0.20412 0.2434 0.91467 1.0428c-0.10239 0.13414-0.20185 0.27064-0.29869 0.40928l-1.2139-0.61805-0.17725 0.26355 1.0118 0.93483a11.361 11.361 0 0 0-0.3514 0.61857l-1.2697-0.46199-0.14418 0.28319 1.11 0.79892c-0.097895 0.21669-0.18922 0.43685-0.27388 0.66042l-1.3079-0.30179-0.10852 0.29869 1.1927 0.65422a11.29 11.29 0 0 0-0.19069 0.69143l-1.3291-0.13901-0.071313 0.30902 1.2599 0.50281c-0.030163 0.16933-0.056828 0.34014-0.079582 0.51211l-1.3343 5.17e-4 -0.038757 0.31471 1.3043 0.36794a11.533 11.533 0 0 0-0.028422 0.7183l-1.3229 0.1633v0.31729l1.3379 0.20567c0.012435 0.24104 0.032176 0.48047 0.059428 0.71727l-1.2919 0.32298 0.03824 0.31471 1.3524 0.04134a11.319 11.319 0 0 0 0.1018 0.50953l-1.2516 0.45527 0.07183 0.30954 1.3498-0.10025a11.287 11.287 0 0 0 0.22169 0.68471l-1.1886 0.60565 0.10852 0.29869 1.3317-0.2651c0.09525 0.22172 0.19745 0.43991 0.30592 0.65422l-1.1147 0.73794 0.14211 0.28422 1.3033-0.41754a11.38 11.38 0 0 0 0.27027 0.4377l-1.0346 0.8537 0.17053 0.26768 1.2573-0.55294a11.428 11.428 0 0 0 0.44132 0.55966l-0.92759 0.97772 0.20205 0.24495 1.1865-0.7059a11.449 11.449 0 0 0 0.3359 0.33951l-0.88832 1.2681 0.23616 0.21239 1.201-0.98133a11.432 11.432 0 0 0 0.50901 0.40876l-0.73122 1.3761 0.26045 0.18242 1.0795-1.1281a11.383 11.383 0 0 0 0.45837 0.2868l-0.6165 1.3854 0.27234 0.16381 0.99219-1.1932a11.324 11.324 0 0 0 0.59583 0.28215l-0.44442 1.4557 0.29042 0.12867 0.84284-1.3105a11.289 11.289 0 0 0 0.43305 0.14676l-0.29094 1.5007 0.30179 0.09819 0.70487-1.3989a11.31 11.31 0 0 0 0.63872 0.13694l-0.10697 1.5348 0.31161 0.06046 0.5333-1.4841a11.426 11.426 0 0 0 0.44752 0.04341l0.05478 1.5472 0.31626 0.02791 0.37672-1.5415a11.597 11.597 0 0 0 0.41289-0.0026l0.38034 1.5544 0.31626-0.02739 0.05529-1.5689c0.14684-0.01323 0.29271-0.02902 0.4377-0.04754l0.54208 1.51 0.31161-0.06098-0.10904-1.5699c0.20929-0.04101 0.41662-0.08817 0.62167-0.14056l0.7245 1.4376 0.30179-0.09818-0.30076-1.5508a11.29 11.29 0 0 0 0.41186-0.14418l0.87385 1.3586 0.2899-0.12919-0.46302-1.5167c0.19262-0.08678 0.38241-0.17885 0.56947-0.27595l1.0371 1.248 0.27285-0.1633-0.64854-1.4568c0.14658-0.0889 0.29072-0.1807 0.43253-0.27595l1.1374 1.188 0.26045-0.18242-0.7736-1.4557c0.16272-0.12568 0.32166-0.25524 0.47697-0.38912l1.2754 1.0418 0.23564-0.21239-0.94568-1.3519c0.10266-0.10134 0.20362-0.20476 0.30231-0.31006l1.278 0.76016 0.20205-0.24495-1.003-1.0573a11.427 11.427 0 0 0 0.41083-0.5271l1.3632 0.59996 0.17053-0.26768-1.1255-0.92862a11.377 11.377 0 0 0 0.24443-0.40049l1.4201 0.45475 0.14159-0.28422-1.2175-0.80667a11.321 11.321 0 0 0 0.28267-0.6103l1.4583 0.2899 0.10801-0.29817-1.3033-0.66508a11.287 11.287 0 0 0 0.20412-0.63562l1.4826 0.11059 0.07131-0.30954-1.3756-0.50126a11.32 11.32 0 0 0 0.09147-0.4594l1.4867-0.04547 0.03876-0.31523-1.4221-0.35502a11.449 11.449 0 0 0 0.05581-0.66404l1.4717-0.22686v-0.31729l-1.4557-0.17932c-0.0018-0.22357-0.01026-0.44546-0.02481-0.66559l1.433-0.40463-0.03876-0.31471-1.465-5.16e-4c-0.02037-0.15531-0.04382-0.30956-0.07028-0.46302l1.3818-0.55139-0.07131-0.30954-1.4557 0.15245c-0.05212-0.21722-0.11038-0.43169-0.17467-0.64389l1.3033-0.7152-0.10852-0.29817-1.4263 0.32866c-0.07832-0.20902-0.16222-0.41511-0.25218-0.61805l1.2066-0.86868-0.14418-0.28267-1.3761 0.50023c-0.10319-0.19764-0.21178-0.39138-0.32608-0.58188l1.093-1.0103-0.17777-0.26303-1.3059 0.66508c-0.08864-0.12859-0.17971-0.25546-0.27337-0.38034l0.98185-1.1193-0.20412-0.24288-1.2299 0.79788a11.445 11.445 0 0 0-0.44803-0.49351l0.83871-1.2314-0.23254-0.21652-1.1234 0.94258a11.441 11.441 0 0 0-0.50384-0.43615l0.68161-1.324-0.25683-0.18655-0.99994 1.0718c-0.18071-0.12912-0.36559-0.25302-0.55397-0.37155l0.51573-1.3963-0.27802-0.154-0.86093 1.1844c-0.13705-0.074612-0.27602-0.14618-0.41651-0.21497l0.36587-1.4413-0.29197-0.12402-0.73226 1.2671c-0.20532-0.085196-0.41312-0.16442-0.62425-0.23771l0.1881-1.4743-0.30541-0.08785-0.57206 1.3477c-0.21378-0.059002-0.43026-0.11233-0.64854-0.15916l0.0067-1.4872-0.31368-0.049609-0.40411 1.4082c-0.21881-0.03228-0.43971-0.058704-0.66249-0.078548l-0.17467-1.4785-0.31729-0.010852-0.22996 1.4485c-0.09895-0.00238-0.19766-0.00413-0.29714-0.00413-0.05477 0-0.21007-7.937e-4 -0.26458 0zm0.49609 3.1755c4.2127 0 7.8123 2.6257 9.2516 6.3298 0.25426 0.70908 0.38137 1.1877 0.38137 1.4351 0 0.66146-0.39688 1.4552-2.5135 1.4552h-5.2762c-0.81148 0-1.1187-0.08033-1.3322-0.21394-0.15875-0.09922-0.43291-0.43311-0.59325-0.71727l-0.15244-0.29714c-0.0055-0.01164-0.01122-0.02349-0.01602-0.03566l-2.7254-4.5356c-1.0901-1.8142-0.61428-2.5634-0.04754-2.9042 0.09552-0.05715 0.24434-0.1169 0.44648-0.17828a9.9351 9.9351 0 0 1 2.5771-0.33796zm-6.0306 2.5058c0.5188-0.00918 1.1709 0.34847 1.9203 1.5958l2.62 4.3599c0.28813 0.52943 0.43202 0.97169 0.43202 1.3281 0 0.44106-0.17648 1.0141-0.52917 1.7198l0.02636-0.03152-2.5492 4.2432c-1.0901 1.8142-1.9744 1.7461-2.5414 1.4056-0.22675-0.13652-0.75522-0.61451-1.2857-1.2728l0.2434 0.33331c-1.3928-1.7084-2.2278-3.8893-2.2278-6.2653a9.8782 9.8782 0 0 1 1.9947-5.9655c0.5269-0.65147 1.0501-1.1245 1.2754-1.2599 0.17719-0.1065 0.38533-0.18652 0.62115-0.19069zm6.0157 6.8115a0.62228 0.62228 0 0 1 0.62218 0.62218 0.62228 0.62228 0 0 1-0.62218 0.6227 0.62228 0.62228 0 0 1-0.6227-0.6227 0.62228 0.62228 0 0 1 0.6227-0.62218zm1.8645 1.2258h5.2694c2.1167 0 2.5135 0.79375 2.5135 1.4552 0 0.14817-0.04313 0.4331-0.13229 0.79478-1.2311 4.0799-5.0187 7.0507-9.5002 7.0507a9.988 9.988 0 0 1-1.6707-0.13952c-0.69691-0.14182-1.1478-0.27436-1.3529-0.39739-0.56054-0.33706-1.0295-1.0754 0.01499-2.8469l2.744-4.5537c0.42519-0.7366 0.55589-0.90964 0.79375-1.0583 0.23786-0.1487 0.54246-0.30489 1.3203-0.30489z"
       color="#000000"
       fill="none"
       stroke-width=".2"
       id="path116" />
    <path
       transform="scale(.26458)"
       d="m61.939 15.805-1.0645 0.03711a0.37799 0.37799 0 0 0-0.15039 0.13672l-0.64648 5.4531c-0.844 0.066-1.2989 0.15944-2.1289 0.27344l-1.5195-5.293-1.0488 0.16602a0.37799 0.37799 0 0 0-0.13672 0.1582l0.02539 5.4199c-0.838 0.17-1.6663 0.36308-2.4863 0.58008l-2.127-5.0059-1.0234 0.29297a0.37799 0.37799 0 0 0-0.11133 0.17383l0.67383 5.3105c-0.817 0.273-1.6239 0.57062-2.4199 0.89063l-2.6895-4.6582-0.99609 0.42383a0.37799 0.37799 0 0 0-0.07813 0.16406l1.3086 5.1484a42.844 42.844 0 0 0-1.6484 0.83008l-3.1328-4.3125-0.95898 0.53125a0.37799 0.37799 0 0 0-0.05469 0.15234l1.8301 4.9531c-0.745 0.457-1.4765 0.9375-2.1895 1.4375l-3.6035-3.8613-0.91016 0.66211a0.37799 0.37799 0 0 0-0.02539 0.10742l2.4102 4.6836a43.232 43.232 0 0 0-2.0098 1.7051l-4.0098-3.3633-0.84766 0.79102a0.37799 0.37799 0 0 0-0.0078 0.06055l2.9551 4.3418a43.26 43.26 0 0 0-1.7988 1.9492l-4.3496-2.8223-0.76953 0.91797a0.37799 0.37799 0 0 0 0 0.0039l3.4551 3.9395c-0.387 0.507-0.76291 1.0229-1.1289 1.5469l-4.5566-2.3203a0.37799 0.37799 0 0 0-0.05078 0.01367l-0.65039 0.9668 3.8242 3.5332a42.94 42.94 0 0 0-1.3281 2.3379l-4.7305-1.7207a0.37799 0.37799 0 0 0-0.10156 0.04102l-0.51172 1.0039 4.1953 3.0195c-0.37 0.819-0.71516 1.6511-1.0352 2.4961l-4.8477-1.1191a0.37799 0.37799 0 0 0-0.12891 0.07031l-0.37695 1.0371 4.5078 2.4727a42.67 42.67 0 0 0-0.7207 2.6133l-4.9043-0.51367a0.37799 0.37799 0 0 0-0.14648 0.10742l-0.24219 1.0488 4.7617 1.9004c-0.114 0.64-0.21478 1.2855-0.30078 1.9355l-4.9141 2e-3a0.37799 0.37799 0 0 0-0.14453 0.13086l-0.13086 1.0586 4.9297 1.3906a43.59 43.59 0 0 0-0.10742 2.7148l-4.8633 0.59961a0.37799 0.37799 0 0 0-0.13672 0.15234v1.0645l5.0566 0.77734c0.047 0.911 0.12161 1.8159 0.22461 2.7109l-4.75 1.1875a0.37799 0.37799 0 0 0-0.11523 0.17188l0.12695 1.0508 5.1113 0.15625a42.779 42.779 0 0 0 0.38477 1.9258l-4.6113 1.6777a0.37799 0.37799 0 0 0-0.08984 0.16992l0.24219 1.043 5.1016-0.37891a42.661 42.661 0 0 0 0.83789 2.5879l-4.3945 2.2402a0.37799 0.37799 0 0 0-0.06055 0.15234l0.37305 1.0254 5.0332-1.002c0.36 0.838 0.74625 1.6627 1.1562 2.4727l-4.1387 2.7402a0.37799 0.37799 0 0 0-0.03516 0.12891l0.49805 0.99414 4.9258-1.5781a43.01 43.01 0 0 0 1.0215 1.6543l-3.8633 3.1875a0.37799 0.37799 0 0 0-0.01563 0.08984l0.61328 0.96094 4.752-2.0898a43.194 43.194 0 0 0 1.668 2.1152l-0.21094 0.22266-3.2773 3.4551a0.37799 0.37799 0 0 0-2e-3 0.03711l0.74805 0.90625 4.4844-2.668a43.27 43.27 0 0 0 1.2695 1.2832l-3.3574 4.793 0.89258 0.80272 4.5391-3.709a43.206 43.206 0 0 0 1.9238 1.5449l-2.7637 5.2012 0.98438 0.68946 3.2207-3.3652-2.9766 3.1074-0.45117-0.31054 2.6055-4.9023a0.37799 0.37799 0 0 0-0.10352-0.47852c-0.65013-0.49223-1.2833-1.0066-1.9043-1.5352a0.37799 0.37799 0 0 0-0.48633 0l-4.2891 3.498-0.39844-0.36133 3.166-4.5176a0.37799 0.37799 0 0 0-0.05078-0.48828c-0.42828-0.4152-0.84527-0.83683-1.2559-1.2695a0.37799 0.37799 0 0 0-0.46484-0.06641l-4.207 2.502-0.34766-0.41992 3.2773-3.4473a0.37799 0.37799 0 0 0 0.01563-0.50976c-0.57274-0.68159-1.1251-1.3798-1.6542-2.0957a0.37799 0.37799 0 0 0-0.45703-0.11914l-4.4512 1.957-0.29492-0.45703 3.6523-3.0117a0.37799 0.37799 0 0 0 0.07422-0.49609c-0.34983-0.53888-0.68662-1.0845-1.0117-1.6387a0.37799 0.37799 0 0 0-0.44141-0.16992l-4.6152 1.4766-0.24219-0.47852 3.9336-2.6074a0.37799 0.37799 0 0 0 0.12695-0.48633c-0.40652-0.80312-0.78774-1.6206-1.1445-2.4512a0.37799 0.37799 0 0 0-0.42188-0.2207l-4.7168 0.9375-0.18359-0.50977 4.1914-2.1406a0.37799 0.37799 0 0 0 0.18555-0.46484c-0.30402-0.84594-0.57668-1.6989-0.82617-2.5625a0.37799 0.37799 0 0 0-0.39258-0.27344l-4.7754 0.35547-0.125-0.52344 4.4141-1.6094a0.37799 0.37799 0 0 0 0.24414-0.43555c-0.14171-0.63324-0.27227-1.273-0.38477-1.9121a0.37799 0.37799 0 0 0-0.36133-0.31055l-4.7832-0.14844-0.06641-0.53711 4.5547-1.1387a0.37799 0.37799 0 0 0 0.28711-0.4043c-0.10206-0.88685-0.1741-1.7842-0.2207-2.6875a0.37799 0.37799 0 0 0-0.32617-0.35547l-4.7305-0.73047v-0.53906l4.6641-0.57422a0.37799 0.37799 0 0 0 0.33203-0.37695c0.0075-0.89799 0.04006-1.7917 0.10352-2.6875a0.37799 0.37799 0 0 0-0.27344-0.39062l-4.6133-1.3066 0.06641-0.53125 4.7109-0.0078a0.37799 0.37799 0 0 0 0.36914-0.32617c0.08523-0.64419 0.18968-1.2833 0.30273-1.918a0.37799 0.37799 0 0 0-0.23633-0.42188l-4.459-1.7793 0.125-0.52344 4.6875 0.48828a0.37799 0.37799 0 0 0 0.40625-0.28125c0.21061-0.87055 0.45132-1.7362 0.7168-2.5918a0.37799 0.37799 0 0 0-0.17774-0.44141l-4.2305-2.3184 0.19141-0.50977 4.6152 1.0625a0.37799 0.37799 0 0 0 0.43555-0.23633c0.31722-0.83768 0.65862-1.6608 1.0254-2.4727a0.37799 0.37799 0 0 0-0.11719-0.46484l-3.9355-2.8262 0.24414-0.48047 4.4883 1.6309a0.37799 0.37799 0 0 0 0.46484-0.18359c0.41451-0.78599 0.85156-1.552 1.3145-2.3105a0.37799 0.37799 0 0 0-0.06641-0.48047l-3.5879-3.3145 0.30274-0.45117 4.2891 2.1855a0.37799 0.37799 0 0 0 0.47852-0.11719c0.36311-0.51987 0.73945-1.0326 1.123-1.5352a0.37799 0.37799 0 0 0-0.01563-0.48047l-3.2402-3.6992 0.34766-0.41211 4.0664 2.6426a0.37799 0.37799 0 0 0 0.48828-0.07422c0.57448-0.66214 1.1712-1.3001 1.7852-1.9258a0.37799 0.37799 0 0 0 0.04492-0.48047l-2.7988-4.1055 0.40039-0.36914 3.75 3.1465a0.37799 0.37799 0 0 0 0.50195-0.0078c0.64673-0.58352 1.3033-1.1484 1.9844-1.6914a0.37799 0.37799 0 0 0 0.10352-0.46484l-2.2949-4.4648 0.43555-0.31836 3.373 3.6172a0.37799 0.37799 0 0 0 0.49414 0.05078c0.70671-0.49559 1.4316-0.97092 2.1699-1.4238a0.37799 0.37799 0 0 0 0.16406-0.45117l-1.7578-4.7539 0.47266-0.25781 2.9375 4.0391a0.37799 0.37799 0 0 0 0.48047 0.10938c0.53866-0.28595 1.0882-0.55587 1.6387-0.81836a0.37799 0.37799 0 0 0 0.19922-0.43555l-1.2559-4.9531 0.49609-0.20703 2.5234 4.3633a0.37799 0.37799 0 0 0 0.46484 0.16211c0.78923-0.31728 1.5908-0.60836 2.4004-0.87891a0.37799 0.37799 0 0 0 0.25781-0.40625l-0.65039-5.1309 0.51758-0.14648 1.9922 4.7012a0.37799 0.37799 0 0 0 0.45117 0.21484c0.81275-0.21508 1.6339-0.40761 2.4648-0.57617a0.37799 0.37799 0 0 0 0.30273-0.36914l-0.0293-5.2344 0.53906-0.08789 1.4258 4.9746a0.37799 0.37799 0 0 0 0.41211 0.27344c0.83914-0.11526 1.2844-0.20878 2.1113-0.27344a0.37799 0.37799 0 0 0 0.34766-0.33203l0.61914-5.2617 0.53906-0.01563 0.82617 5.168a0.37799 0.37799 0 0 0 0.37695 0.31641c0.19189-0.0028 0.78544 1e-6 0.99609 0 0.37156 1e-6 0.74284 0.0067 1.1152 0.01563a0.37799 0.37799 0 0 0 0.38477-0.31836l0.81055-5.1445 0.54688 0.02148 0.62109 5.2637a0.37799 0.37799 0 0 0 0.33789 0.33203c0.83446 0.07433 1.6603 0.17393 2.4805 0.29492a0.37799 0.37799 0 0 0 0.42188-0.27344l1.4395-4.9961 0.53125 0.08008-0.02343 5.3008a0.37799 0.37799 0 0 0 0.29688 0.36914c0.81758 0.1754 1.6265 0.37653 2.4277 0.59766a0.37799 0.37799 0 0 0 0.45117-0.21289l2.0293-4.791 0.52344 0.1543-0.67188 5.248a0.37799 0.37799 0 0 0 0.25195 0.40625c0.79086 0.27452 1.5706 0.56753 2.3398 0.88672a0.37799 0.37799 0 0 0 0.47266-0.15625l2.5977-4.502 0.50195 0.21289-1.3066 5.1309a0.37799 0.37799 0 0 0 0.19922 0.43555c0.52642 0.25776 1.0457 0.52546 1.5586 0.80469a0.37799 0.37799 0 0 0 0.48633-0.11133l3.0645-4.207 0.47266 0.26562-1.8379 4.9688a0.37799 0.37799 0 0 0 0.1543 0.44922c0.70586 0.44413 1.3974 0.91288 2.0742 1.3965a0.37799 0.37799 0 0 0 0.49414-0.05273l3.5508-3.8008 0.43555 0.31641-2.4199 4.7109a0.37799 0.37799 0 0 0 0.0957 0.4707c0.64495 0.52623 1.2696 1.0699 1.8828 1.6328a0.37799 0.37799 0 0 0 0.50195 0.0078l3.9922-3.3457 0.39258 0.36914-2.9824 4.3848a0.37799 0.37799 0 0 0 0.03711 0.48047c0.57734 0.59988 1.1343 1.2132 1.6758 1.8457a0.37799 0.37799 0 0 0 0.49414 0.07422l4.3691-2.8359 0.34766 0.41406 0.20898-0.23633-0.77148-0.91797-4.6484 3.0156a43.256 43.256 0 0 0-1.6934-1.8652l3.1699-4.6543-0.87891-0.81836-4.2461 3.5625a43.24 43.24 0 0 0-1.9043-1.6484l2.5762-5.0039-0.9707-0.70508-3.7793 4.0508c-0.683-0.488-1.3818-0.9563-2.0938-1.4043l1.9492-5.2773-1.0352-0.57422a0.37799 0.37799 0 0 0-0.02539 0.0059l-3.2441 4.4629c-0.518-0.282-1.0432-0.5525-1.5742-0.8125l1.3828-5.4473-1.0488-0.44531a0.37799 0.37799 0 0 0-0.08398 0.02734l-2.7383 4.7383c-0.776-0.322-1.5614-0.62143-2.3594-0.89843l0.71094-5.5723-1.0723-0.30859a0.37799 0.37799 0 0 0-0.11523 0.05469l-2.1289 5.0156c-0.808-0.223-1.6262-0.42456-2.4512-0.60156l0.02539-5.6211-1.0684-0.16992a0.37799 0.37799 0 0 0-0.15039 0.0957l-1.4941 5.209c-0.827-0.122-1.6619-0.22188-2.5039-0.29688l-0.66016-5.5879-1.0703-0.03711a0.37799 0.37799 0 0 0-0.14844 0.12109l-0.84961 5.3496c-0.374-9e-3 -0.74706-0.01563-1.123-0.01563-0.207 0-0.79398-3e-3 -1 0zm39.783 18.713-3.5 3.9863a0.37799 0.37799 0 0 0 0 0.0059zm-37.619-6.8496c-3.3218-0.0026-6.6311 0.43198-9.8398 1.291a0.37799 0.37799 0 0 0-0.0078 0c-0.7799 0.23683-1.3616 0.47158-1.7715 0.7168a0.37799 0.37799 0 0 0-0.0078 0c-0.42592 0.25611-0.84268 0.57601-1.2109 0.97461 0.33799-0.36076 0.72394-0.65377 1.1211-0.89258 0.361-0.216 0.9235-0.44183 1.6875-0.67383a37.55 37.55 0 0 1 9.7402-1.2773c15.922 0 29.527 9.9238 34.967 23.924 0.961 2.68 1.4414 4.4888 1.4414 5.4238 0 0.79127-0.15227 1.6316-0.61134 2.4121-0.08266 0.14493-0.1776 0.2877-0.28516 0.42774-0.10638 0.13851-0.2241 0.27569-0.35742 0.4082-2e-3 2e-3 -0.0039 0.0038-0.0059 0.0059-1.2707 1.2862-3.7152 2.2461-8.2402 2.2461h-19.941c-3.067 0-4.2282-0.30359-5.0352-0.80859-0.6-0.375-1.6362-1.6369-2.2422-2.7109l-0.57617-1.123c-0.02098-0.04399-0.04241-0.08877-0.06055-0.13477l-10.301-17.143c-3.0844-5.1334-2.8512-8.0093-1.6406-9.6719-0.4454 0.60499-0.77547 1.3567-0.88476 2.2891-0.21683 1.8496 0.40395 4.3474 2.4883 7.8164l10.305 17.141c0.01625 0.03666 0.032 0.076 0.04492 0.10352a0.37799 0.37799 0 0 0 0 0.01563l0.57617 1.1211a0.37799 0.37799 0 0 0 0.0078 0.01563c0.31718 0.56212 0.74251 1.1547 1.166 1.668 0.42351 0.51322 0.82447 0.93716 1.2031 1.1738 0.88745 0.55533 2.1483 0.86328 5.2402 0.86328h19.939c4.0472 0 6.5069-0.75004 7.9805-1.8887 1.4735-1.1386 1.8965-2.6607 1.8965-3.9863 0-1.0645-0.49521-2.8576-1.4609-5.5508a0.37799 0.37799 0 0 0-0.0078-0.0078c-5.4952-14.142-19.237-24.168-35.316-24.168zm-22.803 9.4707c-0.97281 0.0172-1.8212 0.34863-2.5312 0.77539-0.96301 0.5787-2.9117 2.3618-4.9238 4.8496a0.37799 0.37799 0 0 0-0.0078 0.0078c-4.9523 6.559-7.6204 14.555-7.6094 22.773 0 8.4242 2.9641 16.068 7.6172 22.359a0.37799 0.37799 0 0 0-0.04492 0.28711l0.0078 0.01563c0.0061 0.0076 0.0095 0.0061 0.01563 0.01367l0.89258 1.2266c0.0056 0.0068 0.01003 0.0143 0.01563 0.02148a0.37799 0.37799 0 0 0 0.42773 0.07422c1.3985 1.5181 2.9048 3.1344 3.6094 3.5586 1.1363 0.68243 2.6581 1.1049 4.3926 0.42774 1.7345-0.67715 3.6442-2.4002 5.7285-5.8691l9.6035-15.988 0.03711-0.05273a0.37799 0.37799 0 0 0 0.0078-0.2207c1.2236-2.5227 1.9414-4.6659 1.9414-6.3496 0-1.4487-0.56979-3.1709-1.6758-5.2031a0.37799 0.37799 0 0 0-0.0078-0.01563l-9.9063-16.477c-2.8659-4.7698-5.4478-6.2527-7.5879-6.2148zm-0.2793 0.13867c1.9608-0.03468 4.4253 1.3171 7.2578 6.0312l9.9023 16.479c1.089 2.001 1.6328 3.6725 1.6328 5.0195 0 1.667-0.667 3.833-2 6.5l0.09961-0.11914-9.6348 16.037c-0.51745 0.86121-1.0235 1.609-1.5156 2.2578-0.24023 0.3167-0.47647 0.60884-0.70898 0.87695-3.1025 3.5882-5.638 3.2244-7.3809 2.1777-0.857-0.516-2.8544-2.3225-4.8594-4.8105l0.91992 1.2598c-5.264-6.457-8.4199-14.7-8.4199-23.68a37.335 37.335 0 0 1 7.5391-22.547c1.9914-2.4622 3.969-4.2502 4.8203-4.7617 0.66969-0.4025 1.4564-0.70494 2.3477-0.7207zm63.168 0.1582-4.9355 2.5137c-0.33449-0.48525-0.67783-0.96425-1.0312-1.4355a0.37799 0.37799 0 0 0-0.01367 0.46289c0.35082 0.46778 0.6931 0.94178 1.0254 1.4238a0.37799 0.37799 0 0 0 0.48047 0.12695l4.6348-2.3633 0.30273 0.45117-3.8887 3.5938a0.37799 0.37799 0 0 0-2e-3 0.0098l4.0996-3.7891zm-3.4375 4.8516a0.37799 0.37799 0 0 0-0.0547 0.39453c0.42817 0.71362 0.83025 1.4373 1.2168 2.1777a0.37799 0.37799 0 0 0 0.46485 0.18555l4.8867-1.7793 0.25196 0.47852-4.3047 3.0938a0.37799 0.37799 0 0 0-8e-3 0.0293l4.5039-3.2422-0.54492-1.0684-5.2012 1.8906c-0.3831-0.73379-0.78733-1.4525-1.2109-2.1602zm2.4258 4.6914a0.37799 0.37799 0 0 0-0.082 0.32422c0.33687 0.75993 0.65178 1.5272 0.94532 2.3105a0.37799 0.37799 0 0 0 0.43554 0.23633l5.0625-1.166 0.18555 0.50976-4.6426 2.5469a0.37799 0.37799 0 0 0-0.0176 0.04297l4.8379-2.6543-0.41015-1.127-5.3906 1.2422c-0.28706-0.76615-0.59543-1.5211-0.92383-2.2656zm1.8262 4.9551a0.37799 0.37799 0 0 0-0.0996 0.24805c0.24087 0.795 0.461 1.6003 0.65625 2.4141a0.37799 0.37799 0 0 0 0.40625 0.28906l5.168-0.54688 0.125 0.53125-4.9238 1.9648a0.37799 0.37799 0 0 0-0.0371 0.06445l5.1094-2.0391-0.26953-1.1699-5.502 0.57617c-0.18878-0.78675-0.40178-1.5628-0.63281-2.332zm1.1992 5.1309a0.37799 0.37799 0 0 0-0.10351 0.18164c0.0991 0.57506 0.18932 1.1525 0.26562 1.7344a0.37799 0.37799 0 0 0 0.37696 0.33203h5.2051l0.0664 0.53906-5.1094 1.4395a0.37799 0.37799 0 0 0-0.0625 0.08789l5.293-1.4941-0.14649-1.1895-5.5371-2e-3c-0.0717-0.54642-0.15642-1.0886-0.24805-1.6289zm0.52149 4.4805a0.37799 0.37799 0 0 0-0.0937 0.13086c0.0545 0.82495 0.089 1.6567 0.0957 2.4941a0.37799 0.37799 0 0 0 0.32617 0.37695l5.1738 0.63477v0.53906l-5.2402 0.8125a0.37799 0.37799 0 0 0-0.10156 0.11133l5.4297-0.83789v-1.1992l-5.502-0.67773c-7e-3 -0.80103-0.0381-1.5954-0.0879-2.3848zm-42.68 1.3418c-0.98348-6.68e-4 -1.8412 0.52654-2.3223 1.3086a2.3519 2.3519 0 0 1 2.0352-1.1738 2.3519 2.3519 0 0 1 2.3516 2.3516 2.3519 2.3519 0 0 1-0.38867 1.2812c-0.02992 0.04794-0.0619 0.09361-0.0957 0.13867a2.3519 2.3519 0 0 1-0.13281 0.16016c-0.0333 0.03585-0.06765 0.07022-0.10352 0.10352a2.3519 2.3519 0 0 1-1.6309 0.66992 2.3519 2.3519 0 0 1-2.3535-2.3535 2.3519 2.3519 0 0 1 0.31445-1.1719c-0.25222 0.41241-0.40422 0.89044-0.4043 1.4082-1e-3 1.5046 1.2259 2.7334 2.7305 2.7324 1.5037-2.23e-4 2.7334-1.2287 2.7324-2.7324-2.27e-4 -1.5029-1.2295-2.7224-2.7324-2.7227zm42.695 3.9121a0.37799 0.37799 0 0 0-0.0801 0.08789c-0.0456 0.83113-0.11124 1.6612-0.20508 2.4883a0.37799 0.37799 0 0 0 0.28711 0.40625l5.0488 1.2617-0.0664 0.53906-5.3008 0.16211a0.37799 0.37799 0 0 0-0.14842 0.13086l5.4941-0.16797 0.14649-1.1914-5.375-1.3418a43.27 43.27 0 0 0 0.19921-2.375zm-35.645 0.7168c-2.9906 0-4.2684 0.63317-5.1895 1.209-0.24948 0.15597-0.47918 0.33295-0.70508 0.54688 0.19541-0.18061 0.39135-0.3261 0.61328-0.46484 0.899-0.562 2.0502-1.1523 4.9902-1.1523h19.916c8 0 9.5 3 9.5 5.5 0 0.56-0.16301 1.6369-0.5 3.0039-4.653 15.42-18.968 26.648-35.906 26.648a37.75 37.75 0 0 1-6.3145-0.52734c-2.634-0.536-4.3383-1.037-5.1133-1.502-2.1186-1.2739-3.891-4.0645 0.05664-10.76l10.371-17.211c0.70607-1.2232 1.1789-1.9908 1.584-2.5645-0.42282 0.59488-0.90739 1.3774-1.623 2.6172l-10.363 17.207a0.37799 0.37799 0 0 0-0.0078 0c-1.998 3.3887-2.5776 5.8379-2.3477 7.6543 0.22998 1.8164 1.298 2.9414 2.4219 3.6172a0.37799 0.37799 0 0 0 0.0059 0c0.88193 0.52916 2.5787 1.012 5.2266 1.5508a0.37799 0.37799 0 0 0 0.01562 0c2.1072 0.35596 4.2399 0.54057 6.377 0.53906 17.105 0 31.567-11.345 36.268-26.922a0.37799 0.37799 0 0 0 8e-3 -0.01563c0.34125-1.3843 0.50976-2.4585 0.50976-3.0918 0-1.3256-0.42295-2.8555-1.8965-3.9941-1.4735-1.1386-3.9332-1.8887-7.9805-1.8887zm35.029 4.4902a0.37799 0.37799 0 0 0-0.0547 0.04883c-0.10235 0.57596-0.22157 1.1495-0.34765 1.7207a0.37799 0.37799 0 0 0 0.24414 0.43555l4.8789 1.7773-0.11718 0.5332-5.2774-0.40039a0.37799 0.37799 0 0 0-0.21289 0.14844l5.4961 0.41016 0.26953-1.1699-5.1992-1.8945a42.783 42.783 0 0 0 0.32031-1.6094zm-1.0273 4.3613a0.37799 0.37799 0 0 0-0.0391 0.02734c-0.23134 0.80105-0.48927 1.5988-0.76757 2.3848a0.37799 0.37799 0 0 0 0.18554 0.46484l4.627 2.3555-0.1836 0.50977-5.1894-1.0332a0.37799 0.37799 0 0 0-0.27735 0.15039l5.4238 1.0781 0.40821-1.127-4.9258-2.5137a42.66 42.66 0 0 0 0.73828-2.2969zm-1.7734 4.9277a0.37799 0.37799 0 0 0-0.0156 0.0098c-0.33025 0.77241-0.68696 1.5298-1.0625 2.2812a0.37799 0.37799 0 0 0 0.13282 0.48633l4.3184 2.8652-0.23633 0.48633-5.0625-1.625a0.37799 0.37799 0 0 0-0.35156 0.13672l5.3164 1.7031 0.53516-1.0742-4.6016-3.0488a42.787 42.787 0 0 0 1.0273-2.2207zm-2.3574 4.6719a0.37799 0.37799 0 0 0-4e-3 2e-3c-0.29488 0.50636-0.6005 1.0062-0.91601 1.5a0.37799 0.37799 0 0 0 0.0742 0.49414l3.9922 3.2988-0.28711 0.45898-4.8574-2.1406a0.37799 0.37799 0 0 0-0.42188 0.11523l5.1348 2.2598 0.64453-1.0117-4.2539-3.5098a43 43 0 0 0 0.89453-1.4668zm-2.4492 3.7363a0.37799 0.37799 0 0 0-0.0059 2e-3c-0.49369 0.67312-1.003 1.3276-1.5352 1.9707a0.37799 0.37799 0 0 0 0 0.0039 43.187 43.187 0 0 0 1.541-1.9766zm-1.541 1.9766a0.37799 0.37799 0 0 0 0.01367 0.49805l3.5645 3.7559 0.21289-0.25781zm-1.3223 1.9668a0.37799 0.37799 0 0 0-0.46484 0.06641c-5e-3 0.0054-0.01059 0.01026-0.01563 0.01563l4.8301 2.873 0.40234-0.48828-0.19728 0.23438zm-0.52344 0.12695c-0.35157 0.37288-0.71342 0.73766-1.0781 1.0977a0.37799 0.37799 0 0 0 0 0.0078c0.36584-0.36162 0.7256-0.73048 1.0781-1.1055zm-1.082 1.1504a0.37799 0.37799 0 0 0-0.04102 0.43555l3.3887 4.8359-0.40625 0.36133-4.5684-3.7363a0.37799 0.37799 0 0 0-0.48828 0.0078c-0.58176 0.50148-1.1754 0.98997-1.7852 1.4609a0.37799 0.37799 0 0 0-2e-3 0.01367c0.59579-0.46166 1.1786-0.93686 1.748-1.4277l4.8203 3.9375 0.89062-0.80273zm-3.9258 3.4805a0.37799 0.37799 0 0 0-0.07813 0.35742l2.7676 5.2051-0.44336 0.3164-4.0742-4.2578a0.37799 0.37799 0 0 0-0.48828-0.05273c-0.53092 0.35656-1.0659 0.70006-1.6152 1.0332a0.37799 0.37799 0 0 0-0.0098 0.0293c0.52446-0.31972 1.0425-0.6469 1.5508-0.98828l4.2988 4.4902 0.98438-0.68945zm-49.449 1.7539a0.37799 0.37799 0 0 0-0.47852 0.0586l-0.01758 0.0176a43.022 43.022 0 0 0 1.7324 1.084l-2.3301 5.2363 1.0293 0.61914 0.20508-0.2461-0.46484-0.28125 2.1914-4.9316a0.37799 0.37799 0 0 0-0.14648-0.47851c-0.58078-0.34465-1.1569-0.70643-1.7207-1.0781zm45.463 1.0215a0.37799 0.37799 0 0 0-0.09375 0.30664l2.3105 5.1973-0.46484 0.2793-3.7129-4.4648a0.37799 0.37799 0 0 0-0.46484-0.0957c-0.70092 0.36386-1.4113 0.70815-2.1328 1.0332a0.37799 0.37799 0 0 0-0.02344 0.0508c0.69002-0.31327 1.3719-0.64187 2.043-0.99024l3.9199 4.7168 1.0312-0.61719zm-41.314 1.3848a0.37799 0.37799 0 0 0-0.46484 0.0957l-3.2637 3.9316 3.2656-3.9277a42.799 42.799 0 0 0 2.252 1.0664l-1.6797 5.502 1.0977 0.48633 3.1641-4.9199a0.37799 0.37799 0 0 0-0.0078 2e-3l-3.0117 4.6797-0.49414-0.2207 1.5801-5.1758a0.37799 0.37799 0 0 0-0.20703-0.45703c-0.75412-0.33059-1.4969-0.68858-2.2305-1.0625zm36.658 1.0879a0.37799 0.37799 0 0 0-0.10938 0.24024l1.6523 5.4121-0.49414 0.2207-3.123-4.8652a0.37799 0.37799 0 0 0-0.44922-0.14649c-0.51076 0.18996-1.0253 0.36899-1.543 0.53906a0.37799 0.37799 0 0 0-0.04297 0.0723 42.67 42.67 0 0 0 1.4258-0.5l3.3027 5.1348 1.0957-0.48829zm-31.844 1a0.37799 0.37799 0 0 0-0.38281 0.12696 42.667 42.667 0 0 0 1.5977 0.54101l-1.0996 5.6719 1.1406 0.37109 2.6328-5.2246a0.37799 0.37799 0 0 0-0.01367 6e-3l-2.5254 4.998-0.50977-0.16406 1.0352-5.3438a0.37799 0.37799 0 0 0-0.25977-0.43555c-0.5444-0.17227-1.0783-0.35268-1.6152-0.54688zm27.629 0.64649a0.37799 0.37799 0 0 0-0.10938 0.18164l1.0762 5.5352-0.51562 0.16993-2.5918-5.1445a0.37799 0.37799 0 0 0-0.42773-0.19922c-0.7685 0.19634-1.5485 0.37771-2.332 0.53125a0.37799 0.37799 0 0 0-0.07227 0.0937c0.74145-0.14814 1.4778-0.31223 2.2051-0.49805l2.7383 5.4336 1.1406-0.37109zm-23.326 0.65429a0.37799 0.37799 0 0 0-0.31055 0.13868 42.748 42.748 0 0 0 2.3418 0.50195l-0.4043 5.8008 1.1777 0.22852 1.9824-5.5176a0.37799 0.37799 0 0 0-0.0332 0.0215l-1.9043 5.3066-0.53125-0.10351 0.37695-5.4688a0.37799 0.37799 0 0 0-0.30274-0.40039c-0.80234-0.14793-1.6001-0.31383-2.3926-0.50782zm18.219 0.6875a0.37799 0.37799 0 0 0-0.0957 0.12305l0.39062 5.6035-0.53125 0.10351-1.9414-5.4043a0.37799 0.37799 0 0 0-0.40625-0.24219c-0.54318 0.0694-1.0882 0.12619-1.6387 0.17578a0.37799 0.37799 0 0 0-0.11719 0.12109c0.50789-0.0473 1.0136-0.0999 1.5156-0.16406l2.0488 5.707 1.1777-0.23047zm-13.066 0.23438a0.37799 0.37799 0 0 0-0.23438 0.14844 43.186 43.186 0 0 0 1.5938 0.15429l0.20703 5.8477 1.1953 0.10547 1.3965-5.7129a0.37799 0.37799 0 0 0-0.05273 0.041l-1.3438 5.5059-0.53906-0.0449-0.19922-5.5137a0.37799 0.37799 0 0 0-0.34766-0.36133c-0.55988-0.0432-1.118-0.10472-1.6758-0.16992zm6.0234 0.28125c-0.5156 0.0125-1.0273 0.0197-1.543 0.0137a0.37799 0.37799 0 0 0-0.17383 0.13477 43.83 43.83 0 0 0 1.4395-0.01l1.4375 5.875 1.1953-0.10351 0.20508-5.7949a0.37799 0.37799 0 0 0-0.08789 0.0918l-0.19141 5.5938-0.53906 0.0527-1.3652-5.5664a0.37799 0.37799 0 0 0-0.37695-0.28711z"
       color="#000000"
       fill="#fff"
       fill-opacity=".41788"
       fill-rule="evenodd"
       stroke-width=".75591"
       id="path118" />
  </g>
  <path
     transform="matrix(.44947 0 0 .44947 4.8549 4.8984)"
     d="m65.392 27.824 0.798 0.126-0.017 3.786c0.556 0.12 1.107 0.255 1.65 0.405l1.457-3.43 0.777 0.223-0.477 3.754c0.537 0.186 1.066 0.388 1.588 0.604l1.864-3.226 0.744 0.316-0.932 3.669c0.358 0.176 0.711 0.359 1.06 0.549l2.192-3.016 0.707 0.392-1.311 3.554c0.48 0.302 0.95 0.618 1.41 0.946l2.545-2.728 0.654 0.475-1.736 3.37c0.439 0.358 0.867 0.728 1.283 1.11l2.861-2.399 0.591 0.551-2.134 3.135c0.392 0.408 0.772 0.827 1.14 1.257l3.13-2.033 0.52 0.62-2.499 2.85c0.238 0.317 0.47 0.64 0.696 0.967l3.325-1.693 0.452 0.67-2.782 2.571c0.29 0.485 0.567 0.98 0.83 1.482l3.503-1.274 0.367 0.72-3.072 2.212c0.23 0.516 0.443 1.041 0.642 1.573l3.631-0.837 0.276 0.76-3.318 1.82c0.164 0.54 0.312 1.087 0.444 1.64l3.707-0.388 0.182 0.787-3.518 1.403c0.067 0.39 0.127 0.784 0.179 1.18h3.73l0.099 0.803-3.65 1.029c0.038 0.56 0.06 1.126 0.064 1.695l3.706 0.457v0.808l-3.747 0.576c-0.031 0.569-0.078 1.133-0.141 1.692l3.62 0.903-0.099 0.803-3.785 0.115c-0.07 0.393-0.148 0.783-0.233 1.17l3.502 1.276-0.182 0.788-3.774-0.281a28.735 28.735 0 0 1-0.52 1.618l3.32 1.693-0.277 0.76-3.712-0.74a28.82 28.82 0 0 1-0.72 1.555l3.1 2.054-0.36 0.723-3.616-1.158c-0.2 0.345-0.408 0.685-0.622 1.02l2.866 2.363-0.435 0.682-3.47-1.528a29.09 29.09 0 0 1-1.045 1.343l2.552 2.691-0.514 0.624-3.253-1.936c-0.252 0.269-0.509 0.532-0.77 0.79l2.408 3.442-0.6 0.54-3.248-2.652c-0.395 0.34-0.8 0.672-1.214 0.992l1.97 3.706-0.663 0.463-2.895-3.025a28.99 28.99 0 0 1-1.101 0.703l1.65 3.709-0.693 0.416-2.642-3.177c-0.476 0.247-0.96 0.48-1.45 0.702l1.18 3.861-0.739 0.329-2.224-3.459c-0.347 0.13-0.696 0.252-1.05 0.367l0.767 3.948-0.769 0.25-1.844-3.659a28.78 28.78 0 0 1-1.583 0.358l0.278 3.997-0.793 0.154-1.38-3.844c-0.37 0.047-0.741 0.088-1.115 0.12l-0.14 3.995-0.806 0.07-0.968-3.957a29.522 29.522 0 0 1-1.05 6e-3l-0.96 3.924-0.805-0.07-0.139-3.939c-0.382-0.03-0.762-0.067-1.14-0.11l-1.357 3.778-0.793-0.154 0.272-3.907a28.794 28.794 0 0 1-1.627-0.35l-1.794 3.561-0.77-0.25 0.742-3.82c-0.37-0.117-0.738-0.241-1.102-0.373l-2.146 3.337-0.739-0.329 1.132-3.706a28.828 28.828 0 0 1-1.518-0.717l-2.526 3.037-0.692-0.416 1.569-3.528a28.978 28.978 0 0 1-1.168-0.73l-2.748 2.871-0.663-0.463 1.862-3.504a29.102 29.102 0 0 1-1.295-1.04l-3.058 2.499-0.6-0.541 2.26-3.23c-0.291-0.282-0.576-0.57-0.855-0.863l-3.02 1.797-0.515-0.624 2.361-2.489a29.095 29.095 0 0 1-1.123-1.426l-3.201 1.409-0.435-0.682 2.635-2.173a28.97 28.97 0 0 1-0.688-1.114l-3.319 1.062-0.36-0.723 2.837-1.88c-0.276-0.545-0.536-1.1-0.778-1.665l-3.391 0.675-0.277-0.76 3.026-1.542a28.735 28.735 0 0 1-0.564-1.743l-3.436 0.256-0.182-0.788 3.185-1.16c-0.096-0.429-0.183-0.86-0.26-1.296l-3.441-0.105-0.099-0.803 3.29-0.82c-0.07-0.604-0.12-1.213-0.152-1.827l-3.406-0.524v-0.808l3.369-0.415c5e-3 -0.615 0.029-1.225 0.072-1.83l-3.32-0.936 0.098-0.802 3.397-1e-3c0.058-0.438 0.125-0.872 0.202-1.303l-3.208-1.28 0.182-0.787 3.384 0.354c0.144-0.594 0.306-1.181 0.485-1.76l-3.036-1.666 0.276-0.76 3.33 0.768c0.215-0.57 0.448-1.13 0.697-1.681l-2.826-2.035 0.367-0.72 3.232 1.175c0.283-0.535 0.581-1.06 0.895-1.574l-2.576-2.38 0.452-0.67 3.09 1.572c0.246-0.353 0.5-0.7 0.761-1.041l-2.33-2.656 0.52-0.62 2.93 1.902c0.391-0.45 0.796-0.889 1.213-1.314l-2.006-2.946 0.59-0.55 2.702 2.264c0.44-0.396 0.891-0.78 1.354-1.148l-1.646-3.198 0.654-0.475 2.427 2.601c0.48-0.337 0.972-0.66 1.473-0.967l-1.256-3.406 0.707-0.392 2.111 2.905c0.366-0.194 0.736-0.38 1.11-0.56l-0.901-3.547 0.744-0.316 1.812 3.137a28.75 28.75 0 0 1 1.63-0.599l-0.467-3.67 0.777-0.223 1.432 3.372c0.552-0.146 1.11-0.276 1.675-0.39l-0.017-3.743 0.798-0.126 1.024 3.565c0.559-0.076 0.866-0.14 1.435-0.183l0.445-3.764 0.808-0.028 0.588 3.708c0.139-2e-3 0.534 0 0.674 0 0.253 0 0.505 3e-3 0.757 0.01l0.585-3.688 0.807 0.028 0.446 3.764c0.567 0.05 1.129 0.117 1.686 0.2l1.029-3.585zm-5.392 55.176c12.703 0 23-10.297 23-23s-10.297-23-23-23-23 10.297-23 23 10.297 23 23 23z"
     fill="url(#linearGradient1070)"
     fill-rule="evenodd"
     mask="url(#mask-3-7)"
     id="path122" />
  <g
     transform="matrix(.44947 0 0 .44947 4.8564 5.0499)"
     mask="url(#mask-3-7)"
     stroke-linecap="round"
     stroke-linejoin="round"
     stroke-width=".56693"
     id="g128">
    <path
       transform="translate(-3.8169,-4.6464)"
       d="m62.627 31.75-0.80664 0.02734-0.4375 3.7109c-0.09831 0.0074-0.16273 0.02261-0.24805 0.03125l-0.0059 0.05273c-0.34183 0.03399-0.64617 0.07705-0.97266 0.125l-0.01563-0.05273c-0.06744 0.0098-0.11802 0.01515-0.19336 0.02539l-0.99414-3.459a0.28349 0.28349 0 0 0-0.07227-0.04688l-0.75586 0.11914 0.01758 3.6914c-0.09551 0.01927-0.18808 0.04622-0.2832 0.06641v0.04687c-0.41099 0.08636-0.81849 0.17996-1.2227 0.2832l-0.01758-0.04102c-0.05026 0.013-0.10219 0.02189-0.15234 0.03516l-1.377-3.2461a0.28349 0.28349 0 0 0-0.13086-0.06055l-0.69531 0.19922 0.46094 3.627a28.75 28.75 0 0 0-0.31245 0.11525l0.0039 0.03711c-0.40031 0.13718-0.79748 0.28296-1.1914 0.4375l-0.01758-0.03125a28.75 28.75 0 0 0-0.11133 0.04102l-1.7324-2.998a0.28349 0.28349 0 0 0-0.18945-0.0625l-0.62891 0.26758 0.89453 3.5195c-0.11257 0.05418-0.22214 0.11265-0.33398 0.16797l0.0059 0.01953c-0.23156 0.11333-0.46263 0.22882-0.69141 0.34766l-0.01172-0.01563c-0.02578 0.01356-0.05239 0.02542-0.07813 0.03906l-2.0078-2.7617a0.28349 0.28349 0 0 0-0.23828-0.05273l-0.56836 0.31445 1.252 3.3945c-0.11631 0.07127-0.22649 0.15164-0.3418 0.22461-0.36577 0.23149-0.72993 0.46535-1.084 0.71289-0.01508 0.01055-0.03182 0.01873-0.04687 0.0293l-2.3008-2.4648a0.28349 0.28349 0 0 0-0.2793-0.02539l-0.5 0.36328 1.6445 3.1992c-0.463 0.368-0.91352 0.75048-1.3535 1.1465l-2.5547-2.1406a0.28349 0.28349 0 0 0-0.28516 0.0059l-0.45117 0.42188 2.0059 2.9453c-0.417 0.425-0.82189 0.86445-1.2129 1.3145l-2.7774-1.8028a0.28349 0.28349 0 0 0-0.27344 0.04297l-0.40039 0.47852 2.3301 2.6543c-0.261 0.341-0.51377 0.68802-0.75977 1.041l-0.07422-0.03711c-0.0032 0.0046-0.0065 0.0091-0.0098 0.01367l-2.877-1.4629a0.28349 0.28349 0 0 0-0.22852 0.06055l-0.35352 0.52539 2.5762 2.3789c-0.314 0.514-0.61153 1.0392-0.89453 1.5742l-0.10742-0.03906c-0.0054 0.01004-0.01216 0.01925-0.01758 0.0293l-3.0078-1.0938a0.28349 0.28349 0 0 0-0.17187 0.06836l-0.29492 0.58008 2.8262 2.0352c-0.249 0.551-0.48227 1.1116-0.69727 1.6816l-0.15039-0.03516c-0.0054 0.01389-0.01219 0.02712-0.01758 0.04102l-3.0957-0.71289a0.28349 0.28349 0 0 0-0.10938 0.06055l-0.23242 0.63867 0.35547 0.19531 0.10352-0.28516 3.0859 0.71094a0.28349 0.28349 0 0 0 0.32816-0.17579c0.21277-0.56409 0.44281-1.1183 0.68945-1.6641a0.28349 0.28349 0 0 0-0.0918-0.34766l-2.6289-1.8926 0.14258-0.2793 2.9961 1.0898a0.28349 0.28349 0 0 0 0.34766-0.13477c0.28038-0.53005 0.57589-1.0498 0.88672-1.5586a0.28349 0.28349 0 0 0-0.04883-0.35547l-2.3984-2.2148 0.17578-0.26172 2.8672 1.459a0.28349 0.28349 0 0 0 0.36133-0.08984c0.24349-0.3494 0.49537-0.69347 0.75391-1.0312a0.28349 0.28349 0 0 0-0.01367-0.35938l-2.168-2.4727 0.20117-0.24219 2.7207 1.7656a0.28349 0.28349 0 0 0 0.36719-0.05273c0.3873-0.44574 0.78826-0.87994 1.2012-1.3008a0.28349 0.28349 0 0 0 0.0332-0.35742l-1.8691-2.7461 0.22852-0.21289 2.5098 2.1035a0.28349 0.28349 0 0 0 0.37109-0.0078c0.43614-0.39252 0.8838-0.77269 1.3418-1.1367a0.28349 0.28349 0 0 0 0.07617-0.35156l-1.5352-2.9805 0.25391-0.18555 2.2559 2.418a0.28349 0.28349 0 0 0 0.37109 0.03906c0.47516-0.3336 0.96106-0.65311 1.457-0.95703a0.28349 0.28349 0 0 0 0.11914-0.33984l-1.1719-3.1797 0.27344-0.15234 1.9648 2.7031a0.28349 0.28349 0 0 0 0.36133 0.08398c0.3624-0.19209 0.72854-0.3761 1.0996-0.55469a0.28349 0.28349 0 0 0 0.15234-0.32617l-0.83984-3.3105 0.28906-0.12305 1.6855 2.9199a0.28349 0.28349 0 0 0 0.35156 0.12109c0.53188-0.21391 1.0695-0.41235 1.6133-0.59375a0.28349 0.28349 0 0 0 0.19141-0.3047l-0.43555-3.4277 0.30273-0.08789 1.334 3.1406a0.28349 0.28349 0 0 0 0.33203 0.16406c0.54656-0.14456 1.1006-0.27382 1.6602-0.38672a0.28349 0.28349 0 0 0 0.22656-0.2793l-0.01563-3.498 0.31055-0.05078 0.95508 3.3242a0.28349 0.28349 0 0 0 0.31055 0.20312c0.56632-0.077 0.8624-0.13966 1.418-0.18164a0.28349 0.28349 0 0 0 0.25977-0.24805l0.41602-3.5234 0.31445-0.0098 0.54883 3.459a0.28349 0.28349 0 0 0 0.2832 0.24024c0.12856-0.0018 0.52722 0 0.66992 0 0.25076 0 0.501 0.0028 0.75 0.0098a0.28349 0.28349 0 0 0 0.28711-0.24023l0.54688-3.4395 0.3125 0.01172 0.41797 3.5215a0.28349 0.28349 0 0 0 0.25586 0.25c0.56125 0.04949 1.1184 0.11508 1.6699 0.19727a0.28349 0.28349 0 0 0 0.31445-0.20313l0.96094-3.3438 0.30859 0.04883-0.01758 3.543a0.28349 0.28349 0 0 0 0.22461 0.2793c0.55089 0.1189 1.0971 0.25187 1.6348 0.40039a0.28349 0.28349 0 0 0 0.33594-0.16211l1.3594-3.1992 0.30273 0.08594-0.44727 3.5137a0.28349 0.28349 0 0 0 0.1875 0.30273c0.53143 0.18407 1.057 0.38561 1.5742 0.59961a0.28349 0.28349 0 0 0 0.35352-0.12109l1.7383-3.0078 0.28906 0.12305-0.87305 3.4316a0.28349 0.28349 0 0 0 0.15039 0.32422c0.35439 0.17423 0.7032 0.35676 1.0488 0.54492a0.28349 0.28349 0 0 0 0.36524-0.08203l2.0449-2.8145 0.27539 0.15234-1.2266 3.3262a0.28349 0.28349 0 0 0 0.11523 0.33789c0.47516 0.29895 0.94073 0.61252 1.3965 0.9375a0.28349 0.28349 0 0 0 0.37109-0.03711l2.373-2.5449 0.25586 0.18359-1.625 3.1543a0.28349 0.28349 0 0 0 0.07227 0.34961c0.4348 0.35457 0.85966 0.72145 1.2715 1.0996a0.28349 0.28349 0 0 0 0.37305 0.0078l2.6699-2.2383 0.22852 0.21484-1.9961 2.9336a0.28349 0.28349 0 0 0 0.0293 0.35547c0.38823 0.40408 0.76444 0.82022 1.1289 1.2461a0.28349 0.28349 0 0 0 0.36914 0.05273l2.9199-1.8965 0.20312 0.24219-2.3398 2.668a0.28349 0.28349 0 0 0-0.01172 0.35548c0.2356 0.3138 0.4654 0.6348 0.68945 0.95898a0.28349 0.28349 0 0 0 0.36133 0.0918l3.1016-1.5801 0.17578 0.25977-2.6035 2.4062a0.28349 0.28349 0 0 0-0.05078 0.35352c0.2872 0.48032 0.56169 0.97137 0.82227 1.4688a0.28349 0.28349 0 0 0 0.34766 0.13477l3.2676-1.1875 0.14258 0.2793-2.875 2.0703a0.28349 0.28349 0 0 0-0.09375 0.3457c0.22739 0.51014 0.43953 1.0295 0.63672 1.5566a0.28349 0.28349 0 0 0 0.32812 0.17578l3.3867-0.7793 0.10156 0.28125 0.35352-0.19336-0.23438-0.64062a0.28349 0.28349 0 0 0-0.10352-0.05664l-3.3945 0.7832c-0.0058-0.01502-0.01179-0.02991-0.01758-0.04492l-0.1582 0.03711c-0.199-0.532-0.41062-1.0582-0.64062-1.5742l3.0723-2.2109-0.29688-0.58398a0.28349 0.28349 0 0 0-0.16602-0.06446l-3.2754 1.1914c-0.0056-0.01055-0.01193-0.02071-0.01758-0.03125l-0.11523 0.04297c-0.263-0.502-0.54008-0.99742-0.83008-1.4824l2.7832-2.5723-0.35547-0.52734a0.28349 0.28349 0 0 0-0.22461-0.05664l-3.1074 1.584c-0.0037-0.0053-8e-3 -0.0103-0.01172-0.01563l-0.07813 0.03906c-0.226-0.327-0.45927-0.6498-0.69727-0.9668l2.5-2.8496-0.40039-0.48047a0.28349 0.28349 0 0 0-0.27148-0.03906l-2.9277 1.9004c-6.03e-4 -6.94e-4 -0.0013-0.0013-2e-3 -2e-3l-0.04883 0.0332c-0.368-0.43-0.74862-0.84786-1.1406-1.2559l2.1348-3.1348-0.45508-0.42383a0.28349 0.28349 0 0 0-0.2793-0.0078l-2.7168 2.2793c-0.416-0.382-0.8442-0.75138-1.2832-1.1094l1.7344-3.3711-0.5-0.36328a0.28349 0.28349 0 0 0-0.28125 0.02539l-2.416 2.5918c-0.46-0.328-0.93016-0.64526-1.4102-0.94726l1.3066-3.543-0.5625-0.3125a0.28349 0.28349 0 0 0-0.24609 0.05469l-2.0859 2.8711c-0.02502-0.01362-0.05111-0.02551-0.07617-0.03906l-0.0098 0.01367c-0.21238-0.11331-0.42668-0.22371-0.64249-0.332l0.0039-0.01758c-0.11242-0.05715-0.22253-0.11808-0.33593-0.17383l0.92578-3.6426-0.625-0.26562a0.28349 0.28349 0 0 0-0.19531 0.06445l-1.7812 3.084c-0.03477-0.01439-0.07063-0.02675-0.10547-0.04102l-0.01758 0.0293c-0.38048-0.15383-0.76566-0.30119-1.1543-0.43945l0.0039-0.0332c-0.10568-0.03806-0.20815-0.08232-0.31445-0.11914l0.4707-3.7129-0.69141-0.19726a0.28349 0.28349 0 0 0-0.13477 0.06445l-1.4023 3.2988c-0.04814-0.0133-0.09822-0.02209-0.14648-0.03516l-0.01758 0.04102c-0.3964-0.10588-0.79623-0.20479-1.1992-0.29492v-0.04492c-0.09641-0.02178-0.19039-0.04944-0.28711-0.07031l0.01758-3.7363-0.75195-0.11719v0.0098a0.28349 0.28349 0 0 0-0.04297-0.01367 0.28349 0.28349 0 0 0-0.02344 0.02148l-1.0078 3.5078c-0.06193-0.0092-0.12544-0.01265-0.1875-0.02148l-0.01563 0.05078c-0.40553-0.05691-0.81374-0.10688-1.2246-0.14652l-0.0059-0.05273c-0.08451-0.0082-0.16722-0.02182-0.25195-0.0293l-0.43945-3.709-0.80078-0.0293a0.28349 0.28349 0 0 0-0.02539 0.02148l-0.57226 3.6133c-0.07664-0.0021-0.1538-0.0025-0.23047-0.0039l-0.0078 0.05469c-0.17229-0.0031-0.34503-0.0059-0.51758-0.0059-0.08705 0-0.2648 7.6e-5 -0.42969 0l-0.0078-0.05469c-0.09058-2.8e-5 -0.18913-7.07e-4 -0.23828 0l-0.57616-3.6386a0.28349 0.28349 0 0 0-0.01953-0.01563zm14.061 13.496c6.1102 4.1344 10.127 11.129 10.127 19.062 0 7.9764-4.0623 15.001-10.229 19.127-3.6389 2.4772-8.0338 3.9277-12.77 3.9277-4.7192 0-9.101-1.439-12.732-3.9004-6.1893-4.1218-10.27-11.16-10.27-19.154 0-7.9102 3.994-14.886 10.074-19.025-6.2422 4.177-10.355 11.291-10.355 19.363 0 12.856 10.427 23.283 23.283 23.283s23.283-10.427 23.283-23.283c0-8.0973-4.1376-15.229-10.412-19.4zm-40.465 10.547c-0.17784 0.57594-0.3392 1.1592-0.48242 1.75l-0.19336-0.01953c-0.0042 0.01643-0.0095 0.03239-0.01367 0.04883l-3.1445-0.32812a0.28349 0.28349 0 0 0-0.05469 0.03906l-0.16016 0.69141 0.3418 0.13672 0.0625-0.27734 3.1348 0.32812a0.28349 0.28349 0 0 0 0.30469-0.21484c0.1426-0.58825 0.30318-1.1687 0.48047-1.7422a0.28349 0.28349 0 0 0-0.13477-0.33398zm55.402 0.18359-0.13867 0.07617a0.28349 0.28349 0 0 0-0.13477 0.33203c0.16231 0.53444 0.30876 1.0755 0.43945 1.623a0.28349 0.28349 0 0 0 0.30664 0.21484l3.457-0.36133 0.0625 0.27539 0.33594-0.13477-0.16016-0.69531a0.28349 0.28349 0 0 0-0.04883-0.03516l-3.4648 0.36328c-0.0044-0.01767-0.0093-0.03508-0.01367-0.05273l-0.20117 0.02148c-0.1309-0.54837-0.27709-1.0914-0.43945-1.6269zm-56.246 3.3086c-0.07484 0.42147-0.14252 0.84525-0.19922 1.2734h-0.23242c-0.0026 0.01826-0.0052 0.03641-0.0078 0.05469h-3.1543a0.28349 0.28349 0 0 0-0.0098 0.0078l-0.08984 0.74023 0.31836 0.08984 0.0332-0.26953 3.1445-2e-3a0.28349 0.28349 0 0 0 0.28125-0.24609c0.05747-0.43399 0.12496-0.86442 0.20117-1.291a0.28349 0.28349 0 0 0-0.17383-0.3125zm57.061 0.15234-0.10547 0.04297a0.28349 0.28349 0 0 0-0.17578 0.31055c0.06639 0.38643 0.12624 0.77777 0.17774 1.1699a0.28349 0.28349 0 0 0 0.28125 0.24609h3.4805l0.03125 0.26953 0.31445-0.08789-0.08984-0.74414a0.28349 0.28349 0 0 0-0.0059-0.0039h-3.4863c-0.0026-0.01829-0.0052-0.03641-0.0078-0.05469h-0.23826c-0.05063-0.38556-0.11091-0.76853-0.17578-1.1484zm-57.436 2.9023c-0.04112 0.59102-0.06543 1.1866-0.07031 1.7871l-0.26953 0.0332c-3.19e-4 0.01767-0.0017 0.03505-2e-3 0.05273l-3.0977 0.38281v0.75391l0.28516 0.04492v-0.26367l3.1211-0.38476a0.28349 0.28349 0 0 0 0.24809-0.27733c5e-3 -0.60915 0.02969-1.2135 0.07227-1.8125a0.28349 0.28349 0 0 0-0.20703-0.29297zm57.793 0.12109-0.07813 0.02148a0.28349 0.28349 0 0 0-0.20508 0.29297c0.03763 0.5545 0.05854 1.1147 0.0625 1.6777a0.28349 0.28349 0 0 0 0.25 0.2793l3.457 0.42578v0.26172l0.28125-0.04297v-0.75391l-3.4297-0.42383c-2.87e-4 -0.01767-0.0016-0.03507-2e-3 -0.05273l-0.27539-0.0332c-0.0039-0.55457-0.0243-1.1062-0.06055-1.6523zm-57.822 3.4648c0.03209 0.59666 0.07843 1.1882 0.14648 1.7754l-0.30274 0.07617c0.0016 0.01489 0.0023 0.03003 0.0039 0.04492l-2.9844 0.74414 0.09375 0.75781 0.24609 0.0078-0.03125-0.25781 3.0469-0.75977a0.28349 0.28349 0 0 0 0.21289-0.30664c-0.06927-0.59769-0.11868-1.2021-0.15039-1.8105a0.28349 0.28349 0 0 0-0.24023-0.26562zm57.838 0.08008-0.03711 0.0059a0.28349 0.28349 0 0 0-0.23828 0.26367c-0.03071 0.56362-0.07824 1.1223-0.14062 1.6758a0.28349 0.28349 0 0 0 0.21289 0.30664l3.377 0.84375-0.03125 0.25781 0.24219-0.0078 0.09375-0.75976-3.3105-0.82422c0.0016-0.01552 0.0023-0.03134 0.0039-0.04687l-0.30859-0.07617c0.06104-0.54158 0.10572-1.0877 0.13672-1.6387zm-57.43 3.4785c0.07455 0.41714 0.15806 0.8294 0.25 1.2402l-0.33203 0.12109c0.0025 0.01171 0.0053 0.02345 0.0078 0.03516l-2.8535 1.0391 0.17383 0.75391 0.21289-0.01563-0.06055-0.25391 2.9492-1.0742a0.28349 0.28349 0 0 0 0.17969-0.32812c-0.09513-0.42513-0.17966-0.85171-0.25586-1.2832a0.28349 0.28349 0 0 0-0.27148-0.23438zm57.018 0.04297a0.28349 0.28349 0 0 0-0.26562 0.22656c-0.0693 0.38908-0.14624 0.77664-0.23047 1.1602a0.28349 0.28349 0 0 0 0.17969 0.32617l3.2676 1.1914-0.06055 0.25391 0.20703 0.01563 0.17578-0.75586-3.166-1.1543c0.0023-0.01096 0.0036-0.02223 0.0059-0.0332l-0.33398-0.12109c0.08061-0.36699 0.15354-0.73699 0.2207-1.1094zm-56.309 2.9766a28.735 28.735 0 0 0 0.53711 1.6562l-0.34766 0.17774c2e-3 0.0058 0.0038 0.01175 0.0059 0.01758l-2.6777 1.3633 0.27148 0.74414 0.16797-0.0332-0.0918-0.25 2.8027-1.4277a0.28349 0.28349 0 0 0 0.13867-0.34961c-0.20444-0.56919-0.39084-1.1436-0.55859-1.7246a0.28349 0.28349 0 0 0-0.24805-0.17383zm55.604 0.0078a0.28349 0.28349 0 0 0-0.24023 0.16797c-0.15579 0.53897-0.32824 1.0727-0.51562 1.6016a0.28349 0.28349 0 0 0 0.13867 0.34766l3.0977 1.5781-0.0918 0.25 0.16406 0.0332 0.27148-0.74414-2.9688-1.5137c0.0018-0.0053 0.0041-0.01037 0.0059-0.01563l-0.35156-0.17969a28.735 28.735 0 0 0 0.49023-1.5254zm-1.2168 3.3594a0.28349 0.28349 0 0 0-0.20117 0.10547c-0.22232 0.52019-0.46004 1.035-0.71289 1.541a0.28349 0.28349 0 0 0 0.09766 0.36133l2.8906 1.916-0.12109 0.24609 0.125 0.04102 0.35938-0.72266-3.0996-2.0547a28.82 28.82 0 0 0 0.66211-1.4336zm-53.152 0.0332c0.22732 0.52395 0.46607 1.0422 0.72266 1.5488l-0.35742 0.23633-2.4785 1.6426 0.35938 0.72266 0.12891-0.04102-0.12109-0.24609 2.627-1.7402a0.28349 0.28349 0 0 0 0.09766-0.36524c-0.27338-0.53982-0.53196-1.0892-0.77148-1.6484a0.28349 0.28349 0 0 0-0.20703-0.10938zm51.531 3.1543a0.28349 0.28349 0 0 0-0.16016 0.0625c-0.19776 0.34113-0.40322 0.67787-0.61524 1.0098a0.28349 0.28349 0 0 0 0.05859 0.37109l2.6719 2.2031-0.15625 0.24414 0.0918 0.04102 0.43555-0.68359-2.8652-2.3613c0.18576-0.29079 0.36365-0.58839 0.53906-0.88672zm-49.887 0.06445a28.97 28.97 0 0 0 0.60742 0.98438l-2.6348 2.1738 0.43555 0.68164 0.0957-0.04297-0.1543-0.24219 2.4414-2.0137a0.28349 0.28349 0 0 0 0.05664-0.37305c-0.23537-0.36252-0.46094-0.73073-0.67969-1.1035a0.28349 0.28349 0 0 0-0.16797-0.06445zm48.199 2.4785a0.28349 0.28349 0 0 0-0.11719 0.03125c-0.3319 0.4533-0.67732 0.89696-1.0352 1.3301a0.28349 0.28349 0 0 0 0.01367 0.375l2.3789 2.5098-0.19531 0.23828 0.05664 0.0332 0.51367-0.62305-2.5508-2.6914a29.09 29.09 0 0 0 0.93555-1.2031zm-46.48 0.08984a29.095 29.095 0 0 0 1.0137 1.2871l-2.3613 2.4902 0.51562 0.62305 0.06055-0.03711-0.19531-0.23438 2.1875-2.3086a0.28349 0.28349 0 0 0 0.01172-0.37695c-0.38528-0.45903-0.75542-0.92996-1.1113-1.4121a0.28349 0.28349 0 0 0-0.12109-0.03125zm44.199 2.627a0.28349 0.28349 0 0 0-0.07422 0.0098c-0.24928 0.2661-0.50305 0.52556-0.76172 0.78125a0.28349 0.28349 0 0 0-0.0332 0.36523l2.2637 3.2363-0.23242 0.20898-3.0605-2.498a0.28349 0.28349 0 0 0-0.03516 0l3.1016 2.5332 0.59961-0.53906-2.4082-3.4434c0.21657-0.21408 0.43013-0.43276 0.64062-0.6543zm-41.881 0.10938c0.23776 0.24673 0.47825 0.49173 0.72461 0.73047l-2.2598 3.2305 0.59961 0.54102 2.9121-2.3809a0.28349 0.28349 0 0 0-0.03125 0l-2.8691 2.3457-0.23438-0.21094 2.1172-3.0254a0.28349 0.28349 0 0 0-0.03516-0.36523c-0.28815-0.27923-0.57116-0.56509-0.84765-0.85545a0.28349 0.28349 0 0 0-0.07617-0.0098zm39.619 1.998c-0.39154 0.33702-0.79341 0.66769-1.2031 0.98438a0.28349 0.28349 0 0 0-0.07617 0.35547l1.8516 3.4844-0.25781 0.18164-2.7266-2.8496a0.28349 0.28349 0 0 0-0.07813-0.0078l2.7656 2.8906 0.66211-0.46289-1.9688-3.707c0.36266-0.28032 0.71432-0.57309 1.0625-0.86914a0.28349 0.28349 0 0 0-0.03125 0zm-37.344 0.12695a29.102 29.102 0 0 0 1.1426 0.91797l-1.8633 3.5039 0.66406 0.46289 2.6191-2.7363a0.28349 0.28349 0 0 0-0.07422 0.0078l-2.5801 2.6953-0.25781-0.17969 1.7441-3.2832a0.28349 0.28349 0 0 0-0.08008-0.35938c-0.43717-0.33102-0.86367-0.67388-1.2812-1.0293a0.28349 0.28349 0 0 0-0.0332 0zm33.625 2.5918c-0.04939 0.03038-0.0969 0.06364-0.14648 0.09375a0.28349 0.28349 0 0 0-0.11328 0.35742l1.5449 3.4727 0.36328-0.2168zm-29.766 0.15432-1.5703 3.5254 0.36523 0.21875 1.4668-3.293a0.28349 0.28349 0 0 0-0.11524-0.35938c-0.0496-0.02938-0.09708-0.06212-0.14648-0.0918zm28.191 0.92773 2.5293 3.041 0.05859-0.03516-2.4805-2.9844a0.28349 0.28349 0 0 0-0.10742-0.02148zm-26.656 0.11133a0.28349 0.28349 0 0 0-0.10156 0.02148l-2.3672 2.8477 0.05664 0.0332zm25.1 0.47656c-0.04086 0.0187-0.08015 0.04004-0.12109 0.05859a0.28349 0.28349 0 0 0-0.1543 0.33984l1.0996 3.5957 0.34961-0.1543zm-23.475 0.125-1.125 3.6875 0.35352 0.15625 1.0508-3.4414a0.28349 0.28349 0 0 0-0.15625-0.34375c-0.04162-0.0182-0.0815-0.04021-0.12305-0.05859zm21.771 0.71875 2.1387 3.3242 0.0957-0.04297-2.0801-3.2305a0.28349 0.28349 0 0 0-0.1543-0.05078zm-20.098 0.09375a0.28349 0.28349 0 0 0-0.15039 0.05078l-2 3.1113 0.08984 0.04102zm18.969 0.17578c-0.0308 0.01015-0.06091 0.02122-0.0918 0.03125a0.28349 0.28349 0 0 0-0.19141 0.32422l0.71094 3.6621 0.33203-0.10742zm-17.787 0.09961-0.73633 3.7832 0.33594 0.10938 0.6875-3.5371a0.28349 0.28349 0 0 0-0.19336-0.32422c-0.03144-0.0099-0.06234-0.02121-0.09375-0.03125zm15.994 0.52344 1.7832 3.5371 0.12891-0.04102-1.7168-3.4062a0.28349 0.28349 0 0 0-0.19531-0.08984zm-14.229 0.07227a0.28349 0.28349 0 0 0-0.18945 0.08789l-1.666 3.3086 0.12305 0.04102zm12.59 0.21094c-0.01906 0.0038-0.03757 0.0099-0.05664 0.01367a0.28349 0.28349 0 0 0-0.22852 0.29688l0.25586 3.6992 0.30273-0.05859zm-10.904 0.06445-0.26758 3.8594 0.30664 0.05859 0.25-3.6074a0.28349 0.28349 0 0 0-0.23242-0.29883c-0.01898-0.0035-0.03768-0.0082-0.05664-0.01172zm9.0391 0.29492 1.3457 3.7441 0.16992-0.0332-1.2812-3.5684a0.28349 0.28349 0 0 0-0.23437-0.14258zm-7.1953 0.04102a0.28349 0.28349 0 0 0-0.22656 0.14062l-1.2598 3.5039 0.16797 0.0332zm6.043 0.0332c-0.0065 5.65e-4 -0.013 0.0014-0.01953 2e-3a0.28349 0.28349 0 0 0-0.25781 0.27344l-0.13086 3.6895 0.27148-0.02344zm-4.8633 0.0293 0.13672 3.8848 0.27539 0.02344-0.12891-3.6328a0.28349 0.28349 0 0 0-0.25977-0.27344c-0.0078-6.15e-4 -0.0156-0.0013-0.02344-2e-3zm2.9707 0.09766 0.94922 3.8848 0.20703-0.01758-0.89648-3.668a0.28349 0.28349 0 0 0-0.25976-0.19922zm-1.0859 0.0059a0.28349 0.28349 0 0 0-0.25586 0.19922l-0.88867 3.6348 0.20117 0.01758z"
       color="#000000"
       fill="#fff"
       fill-opacity=".29272"
       fill-rule="evenodd"
       id="path124" />
    <path
       d="m65.392 27.824 0.798 0.126-0.017 3.786c0.556 0.12 1.107 0.255 1.65 0.405l1.457-3.43 0.777 0.223-0.477 3.754c0.537 0.186 1.066 0.388 1.588 0.604l1.864-3.226 0.744 0.316-0.932 3.669c0.358 0.176 0.711 0.359 1.06 0.549l2.192-3.016 0.707 0.392-1.311 3.554c0.48 0.302 0.95 0.618 1.41 0.946l2.545-2.728 0.654 0.475-1.736 3.37c0.439 0.358 0.867 0.728 1.283 1.11l2.861-2.399 0.591 0.551-2.134 3.135c0.392 0.408 0.772 0.827 1.14 1.257l3.13-2.033 0.52 0.62-2.499 2.85c0.238 0.317 0.47 0.64 0.696 0.967l3.325-1.693 0.452 0.67-2.782 2.571c0.29 0.485 0.567 0.98 0.83 1.482l3.503-1.274 0.367 0.72-3.072 2.212c0.23 0.516 0.443 1.041 0.642 1.573l3.631-0.837 0.276 0.76-3.318 1.82c0.164 0.54 0.312 1.087 0.444 1.64l3.707-0.388 0.182 0.787-3.518 1.403c0.067 0.39 0.127 0.784 0.179 1.18h3.73l0.099 0.803-3.65 1.029c0.038 0.56 0.06 1.126 0.064 1.695l3.706 0.457v0.808l-3.747 0.576c-0.031 0.569-0.078 1.133-0.141 1.692l3.62 0.903-0.099 0.803-3.785 0.115c-0.07 0.393-0.148 0.783-0.233 1.17l3.502 1.276-0.182 0.788-3.774-0.281a28.735 28.735 0 0 1-0.52 1.618l3.32 1.693-0.277 0.76-3.712-0.74a28.82 28.82 0 0 1-0.72 1.555l3.1 2.054-0.36 0.723-3.616-1.158c-0.2 0.345-0.408 0.685-0.622 1.02l2.866 2.363-0.435 0.682-3.47-1.528a29.09 29.09 0 0 1-1.045 1.343l2.552 2.691-0.514 0.624-3.253-1.936c-0.252 0.269-0.509 0.532-0.77 0.79l2.408 3.442-0.6 0.54-3.248-2.652c-0.395 0.34-0.8 0.672-1.214 0.992l1.97 3.706-0.663 0.463-2.895-3.025a28.99 28.99 0 0 1-1.101 0.703l1.65 3.709-0.693 0.416-2.642-3.177c-0.476 0.247-0.96 0.48-1.45 0.702l1.18 3.861-0.739 0.329-2.224-3.459c-0.347 0.13-0.696 0.252-1.05 0.367l0.767 3.948-0.769 0.25-1.844-3.659a28.78 28.78 0 0 1-1.583 0.358l0.278 3.997-0.793 0.154-1.38-3.844c-0.37 0.047-0.741 0.088-1.115 0.12l-0.14 3.995-0.806 0.07-0.968-3.957a29.522 29.522 0 0 1-1.05 6e-3l-0.96 3.924-0.805-0.07-0.139-3.939c-0.382-0.03-0.762-0.067-1.14-0.11l-1.357 3.778-0.793-0.154 0.272-3.907a28.794 28.794 0 0 1-1.627-0.35l-1.794 3.561-0.77-0.25 0.742-3.82c-0.37-0.117-0.738-0.241-1.102-0.373l-2.146 3.337-0.739-0.329 1.132-3.706a28.828 28.828 0 0 1-1.518-0.717l-2.526 3.037-0.692-0.416 1.569-3.528a28.978 28.978 0 0 1-1.168-0.73l-2.748 2.871-0.663-0.463 1.862-3.504a29.102 29.102 0 0 1-1.295-1.04l-3.058 2.499-0.6-0.541 2.26-3.23c-0.291-0.282-0.576-0.57-0.855-0.863l-3.02 1.797-0.515-0.624 2.361-2.489a29.095 29.095 0 0 1-1.123-1.426l-3.201 1.409-0.435-0.682 2.635-2.173a28.97 28.97 0 0 1-0.688-1.114l-3.319 1.062-0.36-0.723 2.837-1.88c-0.276-0.545-0.536-1.1-0.778-1.665l-3.391 0.675-0.277-0.76 3.026-1.542a28.735 28.735 0 0 1-0.564-1.743l-3.436 0.256-0.182-0.788 3.185-1.16c-0.096-0.429-0.183-0.86-0.26-1.296l-3.441-0.105-0.099-0.803 3.29-0.82c-0.07-0.604-0.12-1.213-0.152-1.827l-3.406-0.524v-0.808l3.369-0.415c5e-3 -0.615 0.029-1.225 0.072-1.83l-3.32-0.936 0.098-0.802 3.397-1e-3c0.058-0.438 0.125-0.872 0.202-1.303l-3.208-1.28 0.182-0.787 3.384 0.354c0.144-0.594 0.306-1.181 0.485-1.76l-3.036-1.666 0.276-0.76 3.33 0.768c0.215-0.57 0.448-1.13 0.697-1.681l-2.826-2.035 0.367-0.72 3.232 1.175c0.283-0.535 0.581-1.06 0.895-1.574l-2.576-2.38 0.452-0.67 3.09 1.572c0.246-0.353 0.5-0.7 0.761-1.041l-2.33-2.656 0.52-0.62 2.93 1.902c0.391-0.45 0.796-0.889 1.213-1.314l-2.006-2.946 0.59-0.55 2.702 2.264c0.44-0.396 0.891-0.78 1.354-1.148l-1.646-3.198 0.654-0.475 2.427 2.601c0.48-0.337 0.972-0.66 1.473-0.967l-1.256-3.406 0.707-0.392 2.111 2.905c0.366-0.194 0.736-0.38 1.11-0.56l-0.901-3.547 0.744-0.316 1.812 3.137a28.75 28.75 0 0 1 1.63-0.599l-0.467-3.67 0.777-0.223 1.432 3.372c0.552-0.146 1.11-0.276 1.675-0.39l-0.017-3.743 0.798-0.126 1.024 3.565c0.559-0.076 0.866-0.14 1.435-0.183l0.445-3.764 0.808-0.028 0.588 3.708c0.139-2e-3 0.534 0 0.674 0 0.253 0 0.505 3e-3 0.757 0.01l0.585-3.688 0.807 0.028 0.446 3.764c0.567 0.05 1.129 0.117 1.686 0.2l1.029-3.585zm-5.392 55.176c12.703 0 23-10.297 23-23s-10.297-23-23-23-23 10.297-23 23 10.297 23 23 23z"
       color="#000000"
       fill="none"
       id="path126" />
  </g>
  <path
     d="m55.972 32.221a23.904 23.904 0 0 1-1e-3 0.0019 23.904 23.904 0 0 1 0 1e-3 23.904 23.904 0 0 1-0.22084 2.9827 23.904 23.904 0 0 1 0 1e-3 23.904 23.904 0 0 1-0.10946 0.59892 23.904 23.904 0 0 1-0.0021 0.01096 23.904 23.904 0 0 1-1e-3 4e-3 23.904 23.904 0 0 1-1e-3 0.0031 23.904 23.904 0 0 1-0.4825 2.33 23.904 23.904 0 0 1-0.24874 0.79791 23.904 23.904 0 0 1-0.71234 2.0525 23.904 23.904 0 0 1-1e-3 0.0031 23.904 23.904 0 0 1-0.38998 0.86655 23.904 23.904 0 0 1-0.0042 0.0079 23.904 23.904 0 0 1-0.91629 1.8286 23.904 23.904 0 0 1-0.53527 0.88643 23.904 23.904 0 0 1-0.0031 0.0049 23.904 23.904 0 0 1-0.0031 0.0049 23.904 23.904 0 0 1-0.0042 0.0049 23.904 23.904 0 0 1-1.0924 1.6157 23.904 23.904 0 0 1-0.0021 0.0031 23.904 23.904 0 0 1-0.0031 0.0042 23.904 23.904 0 0 1-0.4686 0.59793 23.904 23.904 0 0 1-0.13334 0.17012 23.904 23.904 0 0 1-0.04279 0.05473 23.904 23.904 0 0 1-0.02079 0.0257 23.904 23.904 0 0 1-1.2824 1.4486 23.904 23.904 0 0 1-0.78298 0.78298 23.904 23.904 0 0 1-1.4396 1.2526 23.904 23.904 0 0 1-1e-3 1e-3 23.904 23.904 0 0 1-0.88545 0.69344 23.904 23.904 0 0 1-1.558 1.0357 23.904 23.904 0 0 1-0.0049 0.0031 23.904 23.904 0 0 1-0.01096 0.0068 23.904 23.904 0 0 1-0.0042 0.0021 23.904 23.904 0 0 1-0.53326 0.32236 23.904 23.904 0 0 1-0.18804 0.11343 23.904 23.904 0 0 1-0.04278 0.0257 23.904 23.904 0 0 1-0.20595 0.12435 23.904 23.904 0 0 1-1.7212 0.84368 23.904 23.904 0 0 1-1.0008 0.45068 23.904 23.904 0 0 1-1.8515 0.62579 23.904 23.904 0 0 1-0.01587 6e-3 23.904 23.904 0 0 1-1.0028 0.31238 23.904 23.904 0 0 1-0.0031 1e-3 23.904 23.904 0 0 1-0.0042 1e-3 23.904 23.904 0 0 1-0.0019 0 23.904 23.904 0 0 1-2.0783 0.41088 23.904 23.904 0 0 1-0.87052 0.15916 23.904 23.904 0 0 1-3.0036 0.19798 23.904 23.904 0 0 1-3.0066-0.19798 23.904 23.904 0 0 1-0.7233-0.13232 23.904 23.904 0 0 1-0.0031-1e-3 23.904 23.904 0 0 1-1e-3 0 23.904 23.904 0 0 1-9e-3 -0.0021 23.904 23.904 0 0 1-2.2256-0.43976 23.904 23.904 0 0 1-0.83571-0.25966 23.904 23.904 0 0 1-0.0031-1e-3 23.904 23.904 0 0 1-0.0019-1e-3 23.904 23.904 0 0 1-6e-3 -0.0021 23.904 23.904 0 0 1-2.0196-0.67852 23.904 23.904 0 0 1-3e-3 -1e-3 23.904 23.904 0 0 1-0.83968-0.37807 23.904 23.904 0 0 1-6e-3 -0.0031 23.904 23.904 0 0 1-2e-3 -1e-3 23.904 23.904 0 0 1-1.8853-0.92026 23.904 23.904 0 0 1-1e-3 0 23.904 23.904 0 0 1-0.12337-0.07461 23.904 23.904 0 0 1-0.06467-0.03882 23.904 23.904 0 0 1-0.23977-0.14525 23.904 23.904 0 0 1-0.36114-0.21888 23.904 23.904 0 0 1-1.756-1.157 23.904 23.904 0 0 1-3e-3 -0.0021 23.904 23.904 0 0 1-1e-3 -1e-3 23.904 23.904 0 0 1-0.10546-0.08259 23.904 23.904 0 0 1-0.01689-0.01285 23.904 23.904 0 0 1-0.09253-0.07363 23.904 23.904 0 0 1-0.50443-0.39497 23.904 23.904 0 0 1-1.6107-1.3909 23.904 23.904 0 0 1-0.6228-0.6228 23.904 23.904 0 0 1-1.4525-1.6276 23.904 23.904 0 0 1-0.50442-0.6437 23.904 23.904 0 0 1-1.2715-1.8604 23.904 23.904 0 0 1-0.39198-0.64767 23.904 23.904 0 0 1-1e-3 -1e-3 23.904 23.904 0 0 1 0-1e-3 23.904 23.904 0 0 1-1.0596-2.0863 23.904 23.904 0 0 1-1e-3 -0.0031 23.904 23.904 0 0 1-0.27061-0.60092 23.904 23.904 0 0 1-0.82475-2.326 23.904 23.904 0 0 1-0.00198-0.0049 23.904 23.904 0 0 1-0.15918-0.51138 23.904 23.904 0 0 1 0-1e-3 23.904 23.904 0 0 1-0.55715-2.5976 23.904 23.904 0 0 1-0.00102-0.0019 23.904 23.904 0 0 1-0.063671-0.34622 23.904 23.904 0 0 1 0-0.0019 23.904 23.904 0 0 1 0-1e-3 23.904 23.904 0 0 1-0.24574-2.9956 23.904 23.904 0 0 0-0.02487 0.41088 23.904 23.904 0 0 0 23.904 23.904 23.904 23.904 0 0 0 23.904-23.904 23.904 23.904 0 0 0-0.01285-0.60092z"
     fill="#fff"
     fill-opacity=".01"
     stroke-width="3.7796"
     id="path296" />
  <rect
     style="fill:url(#linearGradient1053);fill-opacity:1;stroke-width:2.74436;stroke-linecap:round"
     id="rect1045"
     width="56.002003"
     height="56.002003"
     x="3.9989986"
     y="3.9989986"
     ry="15.273273" />
  <g
     id="g1173"
     transform="translate(-54.813606,-3.0040817)">
    <circle
       style="fill:#000000;fill-opacity:0.419959;stroke-width:1.34177"
       id="path861"
       cx="86.813606"
       cy="35.004082"
       r="22.443001" />
    <circle
       cx="86.817123"
       cy="34.472733"
       r="9.9792023"
       id="circle18"
       style="fill:#ffffff;fill-opacity:0.25;stroke-width:0;stroke-miterlimit:4;stroke-dasharray:none" />
    <path
       d="m 106.79139,34.370555 c -0.0958,-0.943953 -0.89495,-0.928814 -2.86422,-1.234376 a 17.181272,17.228793 30 0 0 -0.25801,-1.923032 c 2.03319,-0.885238 2.73733,-1.187141 2.45392,-1.978726 -0.3216,-0.898363 -1.09704,-0.681986 -3.10732,-0.504899 a 17.181272,17.228793 30 0 0 -0.72022,-1.752341 c 1.53632,-1.271156 2.23115,-1.66424 1.83028,-2.524444 -0.35453,-0.760812 -1.06787,-0.483477 -3.12776,0.313707 a 17.181272,17.228793 30 0 0 -1.171268,-1.533275 c 1.144468,-1.609783 1.708248,-2.171847 1.100748,-2.895765 -0.53456,-0.636974 -1.15074,-0.191808 -2.895764,1.084023 a 17.181272,17.228793 30 0 0 -1.510937,-1.156443 c 0.644214,-1.866579 1.026237,-2.565501 0.239438,-3.088789 -0.683352,-0.45447 -1.15245,0.136107 -2.427979,1.800527 A 17.181272,17.228793 30 0 0 92.457463,18.2138 c 0.214668,-1.932917 0.425864,-2.696941 -0.451068,-3.03129 -0.780979,-0.29775 -1.099989,0.396134 -2.013985,2.383404 a 17.181272,17.228793 30 0 0 -1.991747,-0.261729 c -0.260067,-1.903835 -0.248017,-2.690098 -1.174975,-2.799204 -0.833327,-0.0981 -0.969785,0.653578 -1.373609,2.823344 a 17.181272,17.228793 30 0 0 -1.822861,0.248739 c -0.883878,-1.832937 -1.09077,-2.613402 -2.030713,-2.429786 -0.819888,0.160133 -0.723793,0.917789 -0.449214,3.085083 a 17.181272,17.228793 30 0 0 -1.798721,0.740645 c -1.332264,-1.574238 -1.725351,-2.283994 -2.59506,-1.869241 -0.761684,0.363193 -0.470938,1.073663 0.354527,3.151896 l 0.343415,-0.193043 a 17.181272,17.228793 30 0 0 -1.759753,1.319816 c -1.658633,-1.11282 -2.236568,-1.669087 -2.947753,-1.039544 -0.615694,0.545052 -0.164678,1.15055 1.122991,2.817736 a 17.181272,17.228793 30 0 0 -1.201006,1.55922 c -2.093726,-0.783184 -2.809752,-1.060168 -3.157502,-0.29143 -0.390407,0.863074 0.308226,1.252337 1.852511,2.500399 a 17.181272,17.228793 30 0 0 -0.759205,1.832079 c -2.117197,-0.285681 -2.869818,-0.380025 -3.034997,0.430644 -0.189699,0.93098 0.579772,1.151786 2.374092,2.032614 a 17.181272,17.228793 30 0 0 -0.265441,1.913814 c -2.148659,0.314848 -2.901752,0.427897 -2.836365,1.258515 0.07431,0.943041 0.872654,0.947147 2.821537,1.293775 a 17.181272,17.228793 30 0 0 0.258034,1.986139 c -1.929022,0.810451 -2.618153,1.116051 -2.351854,1.89148 0.3032,0.883166 1.071098,0.704406 2.988524,0.555013 a 17.181272,17.228793 30 0 0 0.703512,1.74854 c -1.639814,1.402693 -2.213758,1.899272 -1.716986,2.565314 0.554717,0.743826 1.229622,0.349122 2.984816,-0.369381 a 17.181272,17.228793 30 0 0 1.225154,1.616816 c -1.241977,1.754147 -1.677353,2.37599 -1.033936,2.899469 0.720951,0.586548 1.280279,0.03666 2.812224,-1.093337 a 17.181272,17.228793 30 0 0 1.627935,1.236277 c -0.79451,1.915144 -1.065776,2.616441 -0.334116,2.979302 0.837253,0.415155 1.256139,-0.252742 2.517029,-1.709571 a 17.181272,17.228793 30 0 0 1.789408,0.729505 c -0.228314,2.112162 -0.298622,2.865637 0.514184,3.008956 0.923054,0.16275 1.134679,-0.598492 1.93976,-2.362973 a 17.181272,17.228793 30 0 0 1.939759,0.256144 c 0.332859,2.139349 0.453703,2.890541 1.282629,2.817742 0.941435,-0.08262 0.939392,-0.879222 1.26783,-2.827052 A 17.181272,17.228793 30 0 0 90.0014,51.356902 c 0.905139,1.966467 1.227343,2.655885 2.004767,2.359265 0.873426,-0.333285 0.667351,-1.094474 0.452921,-3.010853 a 17.181272,17.228793 30 0 0 1.828373,-0.761053 c 1.335688,1.726775 1.803475,2.331228 2.496691,1.865532 0.797889,-0.536012 0.389511,-1.234566 -0.283999,-3.172326 a 17.181272,17.228793 30 0 0 1.523962,-1.176877 c 1.821341,1.265641 2.446985,1.705677 2.971885,1.04876 0.58865,-0.736728 0.0155,-1.284649 -1.162045,-2.8586 a 17.181272,17.228793 30 0 0 1.186095,-1.568535 c 2.03784,0.795897 2.74969,1.074042 3.10552,0.319263 v -0.0019 c 0.40192,-0.858095 -0.29217,-1.255759 -1.82467,-2.531953 a 17.181272,17.228793 30 0 0 0.72394,-1.783789 c 2.17308,0.285859 2.93197,0.385936 3.0962,-0.43436 0.18887,-0.943154 -0.59523,-1.150645 -2.44101,-2.053047 a 17.181272,17.228793 30 0 0 0.25245,-1.895186 c 2.18762,-0.370987 2.94356,-0.494187 2.8586,-1.330936 z m -6.04577,4.235918 c 0.0824,0.601848 -0.29273,1.55732 -0.8483,2.557901 -0.925874,1.667564 -2.353086,3.457825 -2.997837,3.935212 -2.446321,2.285038 -5.480936,3.952413 -10.357422,4.048498 -0.908247,0.01814 -1.731148,-0.06732 -2.403839,-0.280296 -0.702894,-0.231651 -1.405066,-0.700953 -1.746734,-1.438614 -0.257198,-0.611608 -0.440015,-1.291018 -0.148501,-1.923032 0.903458,-1.969029 2.46438,-4.445382 3.640116,-6.431903 0.19793,-0.334178 0.519202,-0.577166 0.681244,-0.612559 0.715117,-0.376718 1.758425,-0.305201 2.368579,-0.83345 1.097233,-0.772321 0.93367,-1.437 2.008474,-1.609402 2.389772,-0.08082 4.806631,-0.09756 7.161429,-0.03526 1.634016,0.0035 2.594771,1.178302 2.643241,2.622905 z m -0.0817,-8.470031 c 0.0276,0.500479 -0.0541,1.023387 -0.3007,1.483094 -0.0469,0.08758 -0.10024,0.17187 -0.15965,0.254307 -0.406656,0.524239 -0.908179,1.016734 -1.601894,1.072903 -2.159015,0.179104 -5.082246,0.03473 -7.389714,-0.01485 -0.388311,-0.0083 -0.758377,-0.169466 -0.868717,-0.293283 -0.679173,-0.4382 -1.128026,-1.381497 -1.887774,-1.653881 -1.211375,-0.576948 -1.709478,-0.107813 -2.387111,-0.959711 -1.243309,-2.042592 -2.44423,-4.141638 -3.545455,-6.223958 -0.798847,-1.4255 -0.247331,-2.83874 0.987557,-3.589934 1.290544,-0.979193 6.373931,-0.358926 7.545675,0.165207 3.191528,1.010081 6.134145,2.835034 8.611069,7.037023 0.461324,0.782566 0.789104,1.542399 0.933694,2.233052 0.0314,0.158841 0.0539,0.32322 0.0631,0.490043 z m -12.024414,4.338086 a 1.8219106,1.8219106 0 0 1 -1.82096,1.82096 1.8219106,1.8219106 0 0 1 -1.822861,-1.82096 1.8219106,1.8219106 0 0 1 1.822861,-1.822861 1.8219106,1.8219106 0 0 1 1.82096,1.822861 z m -5.214161,2.208912 c 0.0068,0.181822 -0.0265,0.383495 -0.126224,0.63669 -0.573679,1.048953 -1.164997,2.095625 -1.768974,3.129656 -0.604043,1.034032 -1.220594,2.054188 -1.846999,3.051629 -0.835001,1.404595 -2.33503,1.633068 -3.602955,0.939261 -1.493264,-0.628003 -3.498789,-5.339046 -3.630799,-6.615619 -0.720982,-3.268985 -0.611124,-6.72976 1.789407,-10.976133 0.447048,-0.790825 0.940615,-1.456197 1.46646,-1.926739 0.557306,-0.487021 1.318393,-0.851936 2.127273,-0.770344 0.657314,0.09005 1.334547,0.27932 1.730007,0.852012 1.234662,1.780188 2.570064,4.384655 3.680888,6.407765 0.186936,0.340459 0.232106,0.740996 0.180053,0.898419 -0.03991,0.807277 -0.630265,1.669087 -0.486337,2.463239 0.07953,1.003144 0.467614,1.364579 0.48819,1.910107 z"
       fill="#ffffff"
       image-rendering="optimizeSpeed"
       stroke-width="0.913568"
       id="path20" />
  </g>
</svg>
