<svg width="64" height="64" version="1.1" viewBox="0 0 16.933 16.933" xmlns="http://www.w3.org/2000/svg">
 <defs>
  <filter id="d" x="-.06" y="-.06" width="1.12" height="1.12" color-interpolation-filters="sRGB">
   <feGaussianBlur stdDeviation="0.64998245"/>
  </filter>
  <linearGradient id="e" x1="8.8187" x2="8.8187" y1="9.8764" y2="16.755" gradientTransform="translate(4.4102 -1.1454)" gradientUnits="userSpaceOnUse">
   <stop stop-color="#9f9f9f" offset="0"/>
   <stop stop-color="#545454" offset="1"/>
  </linearGradient>
  <filter id="f" x="-.062143" y="-.058" width="1.1243" height="1.116" color-interpolation-filters="sRGB">
   <feGaussianBlur stdDeviation="0.3625"/>
  </filter>
  <filter id="filter956" x="-.032777" y="-.039926" width="1.0656" height="1.0799" color-interpolation-filters="sRGB">
   <feGaussianBlur stdDeviation="0.20235586"/>
  </filter>
 </defs>
 <path d="m2.2099 2.5197c-0.63806 0-1.1513 0.51331-1.1513 1.1513v2.082c-8e-6 2e-3 -5.17e-4 3e-3 -5.17e-4 5e-3v7.7968c0 0.62536 0.5138 1.1286 1.1518 1.1286h12.513c0.63804 0 1.1518-0.50324 1.1518-1.1286v-8.6996c0-0.63797-0.51384-1.1568-1.1518-1.1518l-6.4124 0.0527c-0.91581 0-1.0823-0.0168-1.8639-0.60718-0.75908-0.60112-0.79125-0.62941-1.542-0.62941z" filter="url(#filter956)" opacity=".25"/>
 <g transform="matrix(.99996 0 0 .99996 5.718e-5 .0048969)">
  <path d="m2.21 2.38h2.695c0.75074 0 0.78302 0.0285 1.5421 0.62962 0.78159 0.5904 0.94779 0.607 1.8636 0.607l6.4126-0.0524c0.638-5e-3 1.1517 0.51363 1.1517 1.1516v6.77c0 0.63802-0.51364 1.1517-1.1517 1.1517h-12.513c-0.63802 0-1.1517-0.51364-1.1517-1.1517v-7.9542c0-0.63802 0.51364-1.1517 1.1517-1.1517z" fill="#57b0ff"/>
  <rect x="1.0583" y="5.0198" width="14.817" height="9.5242" rx="1.1517" ry="1.0693" fill="#80c3ff" stroke-width=".9733"/>
  <path d="m2.2101 5.027c-0.63801 0-1.1518 0.50323-1.1518 1.1286v0.23512c0-0.6089 0.51384-1.0991 1.1518-1.0991h12.513c0.63801 0 1.1518 0.49024 1.1518 1.0991v-0.23512c0-0.62536-0.51384-1.1286-1.1518-1.1286z" fill="#fff" opacity=".1" stroke-width=".26458"/>
 </g>
 <circle transform="matrix(.26458 0 0 .26458 9.3766 8.3182)" cx="14.56" cy="14.56" r="13" filter="url(#d)" opacity=".25" stroke-width="3.7796" style="paint-order:stroke markers fill"/>
 <circle cx="13.229" cy="12.171" r="3.4395" fill="url(#e)" style="paint-order:stroke fill markers"/>
 <g transform="matrix(.26458 0 0 .26458 5.8208 5.4238)">
  <path transform="translate(-22,-24.5)" d="m50 42.5a5 5 0 0 0-5 5h-0.83203c-0.64652 0-1.168 0.52145-1.168 1.168v7.666c0 0.64652 0.52145 1.166 1.168 1.166h11.666c0.64652 0 1.166-0.5195 1.166-1.166v-7.666c0-0.64652-0.5195-1.168-1.166-1.168h-0.83398a5 5 0 0 0-5-5zm0 1a3.5 3.5 0 0 1 3.5 3.5 3.5 3.5 0 0 1-0.04102 0.5h-6.9199a3.5 3.5 0 0 1-0.03906-0.5 3.5 3.5 0 0 1 3.5-3.5z" filter="url(#f)" opacity=".15"/>
  <path transform="translate(-22,-24.5)" d="m50 42.5a5 5 0 0 0-5 5h-0.83203c-0.64652 0-1.168 0.52145-1.168 1.168v7.666c0 0.64652 0.52145 1.166 1.168 1.166h11.666c0.64652 0 1.166-0.5195 1.166-1.166v-7.666c0-0.64652-0.5195-1.168-1.166-1.168h-0.83398a5 5 0 0 0-5-5zm0 1a3.5 3.5 0 0 1 3.5 3.5 3.5 3.5 0 0 1-0.04102 0.5h-6.9199a3.5 3.5 0 0 1-0.03906-0.5 3.5 3.5 0 0 1 3.5-3.5z" fill="#e6e6e6"/>
  <circle cx="28" cy="28" r="4" fill="#808080"/>
  <rect x="27" y="28" width="2" height="3" fill="#333"/>
  <circle cx="28" cy="27" r="2" fill="#333"/>
 </g>
</svg>
