<?xml version="1.0" encoding="UTF-8" standalone="no"?>
<svg
   xmlns:dc="http://purl.org/dc/elements/1.1/"
   xmlns:cc="http://creativecommons.org/ns#"
   xmlns:rdf="http://www.w3.org/1999/02/22-rdf-syntax-ns#"
   xmlns:svg="http://www.w3.org/2000/svg"
   xmlns="http://www.w3.org/2000/svg"
   xmlns:sodipodi="http://sodipodi.sourceforge.net/DTD/sodipodi-0.dtd"
   xmlns:inkscape="http://www.inkscape.org/namespaces/inkscape"
   width="64"
   height="64"
   version="1.1"
   id="svg27"
   sodipodi:docname="spotify-client.svg"
   inkscape:version="1.0.2 (e86c870879, 2021-01-15)">
  <metadata
     id="metadata31">
    <rdf:RDF>
      <cc:Work
         rdf:about="">
        <dc:format>image/svg+xml</dc:format>
        <dc:type
           rdf:resource="http://purl.org/dc/dcmitype/StillImage" />
      </cc:Work>
    </rdf:RDF>
  </metadata>
  <sodipodi:namedview
     pagecolor="#ffffff"
     bordercolor="#666666"
     borderopacity="1"
     objecttolerance="10"
     gridtolerance="10"
     guidetolerance="10"
     inkscape:pageopacity="0"
     inkscape:pageshadow="2"
     inkscape:window-width="2160"
     inkscape:window-height="1307"
     id="namedview29"
     showgrid="false"
     inkscape:zoom="11.484375"
     inkscape:cx="32"
     inkscape:cy="32"
     inkscape:window-x="0"
     inkscape:window-y="0"
     inkscape:window-maximized="1"
     inkscape:current-layer="svg27" />
  <defs
     id="defs7">
    <linearGradient
       id="linearGradient862-3"
       x1="7.9373"
       x2="7.9373"
       y1="15.081"
       y2="1.852"
       gradientTransform="matrix(3.7795 0 0 3.7795 .00014308 .031541)"
       gradientUnits="userSpaceOnUse">
      <stop
         stop-color="#00c853"
         offset="0"
         id="stop2" />
      <stop
         stop-color="#00e676"
         offset="1"
         id="stop4" />
    </linearGradient>
  </defs>
  <g
     transform="scale(3.7796)"
     shape-rendering="auto"
     id="g19">
    <path
       d="m4.3693 0.52916c-2.1142 0-3.8402 1.7835-3.8402 3.9682v8.4675c0 2.1846 1.726 3.9682 3.8402 3.9682h8.1944c2.1142 0 3.8402-1.7835 3.8402-3.9682v-8.4675c0-2.1846-1.726-3.9682-3.8402-3.9682zm0.25704 0.52089h7.6808c1.8443 0 3.3291 1.5342 3.3291 3.44v7.9368c0 1.9058-1.4847 3.44-3.3291 3.44h-7.6808c-1.8443 0-3.3291-1.5342-3.3291-3.44v-7.9368c0-1.9058 1.4847-3.44 3.3291-3.44z"
       color="#000000"
       color-rendering="auto"
       dominant-baseline="auto"
       image-rendering="auto"
       opacity=".01"
       solid-color="#000000"
       stop-color="#000000"
       style="font-feature-settings:normal;font-variant-alternates:normal;font-variant-caps:normal;font-variant-east-asian:normal;font-variant-ligatures:normal;font-variant-numeric:normal;font-variant-position:normal;font-variation-settings:normal;inline-size:0;isolation:auto;mix-blend-mode:normal;shape-margin:0;shape-padding:0;text-decoration-color:#000000;text-decoration-line:none;text-decoration-style:solid;text-indent:0;text-orientation:mixed;text-transform:none;white-space:normal"
       id="path9" />
    <path
       d="m4.3587 0.79373c-1.9668 0-3.5639 1.6528-3.5639 3.6876v8.4996c0 2.0348 1.5971 3.6876 3.5639 3.6876h8.2162c1.9668 0 3.5644-1.6528 3.5644-3.6876v-8.4996c0-2.0348-1.5976-3.6876-3.5644-3.6876zm0.27222 0.25631h7.6718c1.8422 0 3.3251 1.5342 3.3251 3.44v7.9368c0 1.9058-1.483 3.44-3.3251 3.44h-7.6718c-1.8422 0-3.3251-1.5342-3.3251-3.44v-7.9368c0-1.9058 1.483-3.44 3.3251-3.44z"
       color="#000000"
       color-rendering="auto"
       dominant-baseline="auto"
       image-rendering="auto"
       opacity=".01"
       solid-color="#000000"
       stop-color="#000000"
       style="font-feature-settings:normal;font-variant-alternates:normal;font-variant-caps:normal;font-variant-east-asian:normal;font-variant-ligatures:normal;font-variant-numeric:normal;font-variant-position:normal;font-variation-settings:normal;inline-size:0;isolation:auto;mix-blend-mode:normal;shape-margin:0;shape-padding:0;text-decoration-color:#000000;text-decoration-line:none;text-decoration-style:solid;text-indent:0;text-orientation:mixed;text-transform:none;white-space:normal"
       id="path11" />
    <path
       d="m4.3097 1.0583c-1.8657 0-3.3751 1.5383-3.3751 3.439v8.4675c0 1.9007 1.57 3.439 3.4357 3.439h8.1996c1.8657 0 3.4274-1.5383 3.4274-3.439v-8.4675c0-1.9007-1.51-3.439-3.3756-3.439h-0.09688c1.794 0.086515 3.2138 1.5819 3.2138 3.4318v7.9368c0 1.9058-1.5059 3.44-3.3766 3.44h-7.7905c-1.8707 0-3.3766-1.5342-3.3766-3.44v-7.9368c0-1.8498 1.4199-3.3451 3.2138-3.4318z"
       color="#000000"
       color-rendering="auto"
       dominant-baseline="auto"
       image-rendering="auto"
       opacity=".03"
       solid-color="#000000"
       stop-color="#000000"
       style="font-feature-settings:normal;font-variant-alternates:normal;font-variant-caps:normal;font-variant-east-asian:normal;font-variant-ligatures:normal;font-variant-numeric:normal;font-variant-position:normal;font-variation-settings:normal;inline-size:0;isolation:auto;mix-blend-mode:normal;shape-margin:0;shape-padding:0;text-decoration-color:#000000;text-decoration-line:none;text-decoration-style:solid;text-indent:0;text-orientation:mixed;text-transform:none;white-space:normal"
       id="path13" />
    <path
       transform="scale(.26458)"
       d="m4 46.969v2.0312c0 6.6479 5.8957 12 12.544 12h30.961c6.6479 0 12.495-5.3521 12.495-12v-1.9922c-0.02117 7.1849-5.81 12.963-13 12.963h-29.998c-7.2032 0-13.002-5.7987-13.002-13.002z"
       color="#000000"
       color-rendering="auto"
       dominant-baseline="auto"
       image-rendering="auto"
       opacity=".03"
       solid-color="#000000"
       stop-color="#000000"
       style="font-feature-settings:normal;font-variant-alternates:normal;font-variant-caps:normal;font-variant-east-asian:normal;font-variant-ligatures:normal;font-variant-numeric:normal;font-variant-position:normal;font-variation-settings:normal;inline-size:0;isolation:auto;mix-blend-mode:normal;shape-margin:0;shape-padding:0;text-decoration-color:#000000;text-decoration-line:none;text-decoration-style:solid;text-indent:0;text-orientation:mixed;text-transform:none;white-space:normal"
       id="path15" />
    <path
       d="m1.0583 11.906v0.59234c0 1.9386 1.5729 3.4993 3.3318 3.4993h8.1603c1.7589 0 3.3243-1.5608 3.3243-3.4993v-0.58095c-0.0056 2.0952-1.5372 3.7801-3.4395 3.7801h-7.9368c-1.9058 0-3.44-1.691-3.44-3.7915z"
       color="#000000"
       color-rendering="auto"
       dominant-baseline="auto"
       image-rendering="auto"
       opacity=".05"
       solid-color="#000000"
       stop-color="#000000"
       style="font-feature-settings:normal;font-variant-alternates:normal;font-variant-caps:normal;font-variant-east-asian:normal;font-variant-ligatures:normal;font-variant-numeric:normal;font-variant-position:normal;font-variation-settings:normal;inline-size:0;isolation:auto;mix-blend-mode:normal;shape-margin:0;shape-padding:0;text-decoration-color:#000000;text-decoration-line:none;text-decoration-style:solid;text-indent:0;text-orientation:mixed;text-transform:none;white-space:normal"
       id="path17" />
  </g>
  <rect
     x="4"
     y="4"
     width="55.999"
     height="55.999"
     rx="13.001"
     ry="13.001"
     fill="url(#linearGradient862-3)"
     stroke-width="3.7794"
     id="rect21" />
  <path
     d="m43.836 43.748c0.76652-0.47835 0.95086-1.6054 0.39901-2.4477-0.29868-0.45502-3.7253-2.1864-5.7927-2.9261-4.0601-1.4525-8.2673-2.0382-12.141-1.6917-2.9611 0.26601-7.0866 1.1819-8.608 1.9111-1.141 0.54835-1.4385 1.7781-0.64635 2.6788 0.65452 0.74669 1.0255 0.76769 2.9331 0.17034 7.0807-2.2167 13.748-1.7466 20.102 1.4164 2.7476 1.3674 2.9203 1.4082 3.7533 0.88903zm3.0381-7.5287c0.80036-0.73502 0.9217-2.0161 0.26251-2.7628-0.81319-0.92286-7.2394-3.3683-10.828-4.1208-5.8475-1.225-12.138-1.0465-18.227 0.51918-1.9647 0.50518-2.4337 0.75136-2.8036 1.4735-0.33951 0.66036-0.35118 1.155-0.04434 1.8049 0.47602 1.0034 1.5681 1.309 3.0474 0.85403 1.3219-0.40835 3.9353-0.92753 5.837-1.162 2.1712-0.26718 6.2769-0.30334 8.1716-0.07 3.8338 0.47135 8.0246 1.7034 11.585 3.4044 1.4805 0.70702 2.2786 0.72336 2.9996 0.06067zm2.0732-7.7259c0.55418-0.33251 1.0524-1.2145 1.0524-1.8609 0-0.64752-0.33134-1.3452-0.84353-1.7769-0.96603-0.81203-6.208-2.7418-9.8353-3.6203-4.2853-1.0384-7.7014-1.3942-12.145-1.2647-5.3202 0.15517-11.305 1.2017-12.408 2.1701-1.2892 1.1317-0.8937 3.2166 0.72802 3.8361 0.63002 0.24034 0.69069 0.23684 2.2261-0.12834a53.495 53.495 0 0 1 6.6479-1.1189c2.2751-0.23101 8.1354-0.105 10.099 0.21467 3.4779 0.56818 7.3117 1.6451 10.252 2.8806 2.9121 1.2227 3.2201 1.2717 4.227 0.66852z"
     fill="#263238"
     stroke-width="1.1667"
     id="path25" />
</svg>
