<?xml version="1.0" encoding="UTF-8" standalone="no"?>
<svg
   xmlns:dc="http://purl.org/dc/elements/1.1/"
   xmlns:cc="http://creativecommons.org/ns#"
   xmlns:rdf="http://www.w3.org/1999/02/22-rdf-syntax-ns#"
   xmlns:svg="http://www.w3.org/2000/svg"
   xmlns="http://www.w3.org/2000/svg"
   xmlns:sodipodi="http://sodipodi.sourceforge.net/DTD/sodipodi-0.dtd"
   xmlns:inkscape="http://www.inkscape.org/namespaces/inkscape"
   width="64"
   height="64"
   version="1.1"
   viewBox="0 0 16.933 16.933"
   id="svg56"
   sodipodi:docname="wine-winefile.svg"
   inkscape:version="1.0.1 (3bc2e813f5, 2020-09-07)">
  <metadata
     id="metadata60">
    <rdf:RDF>
      <cc:Work
         rdf:about="">
        <dc:format>image/svg+xml</dc:format>
        <dc:type
           rdf:resource="http://purl.org/dc/dcmitype/StillImage" />
      </cc:Work>
    </rdf:RDF>
  </metadata>
  <sodipodi:namedview
     pagecolor="#ffffff"
     bordercolor="#666666"
     borderopacity="1"
     objecttolerance="10"
     gridtolerance="10"
     guidetolerance="10"
     inkscape:pageopacity="0"
     inkscape:pageshadow="2"
     inkscape:window-width="2160"
     inkscape:window-height="1307"
     id="namedview58"
     showgrid="false"
     inkscape:zoom="11.484375"
     inkscape:cx="32"
     inkscape:cy="32"
     inkscape:window-x="0"
     inkscape:window-y="0"
     inkscape:window-maximized="1"
     inkscape:current-layer="svg56" />
  <defs
     id="defs36">
    <filter
       id="filter956"
       x="-.032777"
       y="-.039926"
       width="1.0656"
       height="1.0799"
       color-interpolation-filters="sRGB">
      <feGaussianBlur
         stdDeviation="0.20235586"
         id="feGaussianBlur2" />
    </filter>
    <linearGradient
       id="linearGradient1769"
       x1="445.28"
       x2="445.28"
       y1="179.28"
       y2="200.07"
       gradientTransform="matrix(.38956 0 0 .38184 -165.52 -63.44)"
       gradientUnits="userSpaceOnUse">
      <stop
         stop-color="#60c0f0"
         offset="0"
         id="stop10" />
      <stop
         stop-color="#83d4fb"
         offset="1"
         id="stop12" />
    </linearGradient>
  </defs>
  <path
     d="m2.2099 2.5197c-0.63806 0-1.1513 0.51331-1.1513 1.1513v2.082c-8e-6 2e-3 -5.17e-4 3e-3 -5.17e-4 5e-3v7.7968c0 0.62536 0.5138 1.1286 1.1518 1.1286h12.513c0.63804 0 1.1518-0.50324 1.1518-1.1286v-8.6996c0-0.63797-0.51384-1.1568-1.1518-1.1518l-6.4124 0.0527c-0.91581 0-1.0823-0.0168-1.8639-0.60718-0.75908-0.60112-0.79125-0.62941-1.542-0.62941z"
     filter="url(#filter956)"
     opacity=".25"
     id="path38" />
  <path
     d="m2.21 2.38h2.695c0.75074 0 0.78302 0.0285 1.5421 0.62962 0.78159 0.5904 0.94779 0.607 1.8636 0.607l6.4126-0.0524c0.638-5e-3 1.1517 0.51363 1.1517 1.1516v6.77c0 0.63802-0.51364 1.1517-1.1517 1.1517h-12.513c-0.63802 0-1.1517-0.51364-1.1517-1.1517v-7.9542c0-0.63802 0.51364-1.1517 1.1517-1.1517z"
     fill="#46a2d7"
     id="path40" />
  <rect
     x="1.0583"
     y="4.49"
     width="14.817"
     height="10.054"
     rx="1.1517"
     ry="1.1288"
     fill="url(#linearGradient1769)"
     id="rect44" />
  <path
     d="m2.2102 4.4979c-0.63801 0-1.1518 0.50323-1.1518 1.1286v0.23512c0-0.6089 0.51384-1.0991 1.1518-1.0991h12.513c0.63801 0 1.1518 0.49024 1.1518 1.0991v-0.23512c0-0.62536-0.51384-1.1286-1.1518-1.1286z"
     fill="#fff"
     opacity=".1"
     stroke-width=".26458"
     id="path52" />
  <path
     d="m5.592 9.0919-0.0024-2.0641 2.3153-0.34481v2.4088zm2.6992-2.4704 3.0857-0.49281v2.9634h-3.0857zm3.0866 2.8937-8e-4 2.9634-3.0857-0.47602v-2.4874zm-3.472 2.4338-2.3138-0.348v-2.0865h2.3129v2.4338z"
     opacity=".15"
     stroke-width=".80003"
     id="path54" />
</svg>
