<svg width="64" height="64" version="1.1" viewBox="0 0 16.933 16.933" xmlns="http://www.w3.org/2000/svg">
 <defs>
  <filter id="filter956" x="-.032777" y="-.039926" width="1.0656" height="1.0799" color-interpolation-filters="sRGB">
   <feGaussianBlur stdDeviation="0.20235586"/>
  </filter>
 </defs>
 <path d="m2.2099 2.5197c-0.63806 0-1.1513 0.51331-1.1513 1.1513v2.082c-8e-6 2e-3 -5.17e-4 3e-3 -5.17e-4 5e-3v7.7968c0 0.62536 0.5138 1.1286 1.1518 1.1286h12.513c0.63804 0 1.1518-0.50324 1.1518-1.1286v-8.6996c0-0.63797-0.51384-1.1568-1.1518-1.1518l-6.4124 0.0527c-0.91581 0-1.0823-0.0168-1.8639-0.60718-0.75908-0.60112-0.79125-0.62941-1.542-0.62941z" filter="url(#filter956)" opacity=".25"/>
 <g transform="matrix(.99996 0 0 .99996 3.8468e-5 .0048782)">
  <path d="m2.21 2.38h2.695c0.75074 0 0.78302 0.0285 1.5421 0.62962 0.78159 0.5904 0.94779 0.607 1.8636 0.607l6.4126-0.0524c0.638-5e-3 1.1517 0.51363 1.1517 1.1516v6.77c0 0.63802-0.51364 1.1517-1.1517 1.1517h-12.513c-0.63802 0-1.1517-0.51364-1.1517-1.1517v-7.9542c0-0.63802 0.51364-1.1517 1.1517-1.1517z" fill="#57b0ff"/>
  <rect x="1.0583" y="5.0198" width="14.817" height="9.5242" rx="1.1517" ry="1.0693" fill="#80c3ff" stroke-width=".9733"/>
  <path d="m2.2101 5.027c-0.63801 0-1.1518 0.50323-1.1518 1.1286v0.23512c0-0.6089 0.51384-1.0991 1.1518-1.0991h12.513c0.63801 0 1.1518 0.49024 1.1518 1.0991v-0.23512c0-0.62536-0.51384-1.1286-1.1518-1.1286z" fill="#fff" opacity=".1" stroke-width=".26458"/>
 </g>
 <path d="m5.592 9.3131-0.0024-2.0641 2.3153-0.34481v2.4088zm2.6992-2.4704 3.0857-0.49281v2.9634h-3.0857zm3.0866 2.8937-8e-4 2.9634-3.0857-0.47602v-2.4874zm-3.472 2.4338-2.3138-0.348v-2.0865h2.3129v2.4338z" opacity=".15" stroke-width=".80003"/>
</svg>
